<svg width="500" height="500" viewBox="0 0 500 500" fill="none" xmlns="http://www.w3.org/2000/svg">
<path d="M500 382.398H0V382.648H500V382.398Z" fill="#D1E3FF"/>
<path d="M119.649 392.989H85.9072V393.239H119.649V392.989Z" fill="#D1E3FF"/>
<path d="M78.5737 393.114H58.5527V393.364H78.5737V393.114Z" fill="#D1E3FF"/>
<path d="M303.111 387.75H208.325V388H303.111V387.75Z" fill="#D1E3FF"/>
<path d="M167.778 400.081H137.556V400.331H167.778V400.081Z" fill="#D1E3FF"/>
<path d="M413.667 391.194H335V391.444H413.667V391.194Z" fill="#D1E3FF"/>
<path d="M237.014 337.8H43.915C40.768 337.8 38.207 335.239 38.207 332.092V60.6601C38.207 57.5131 40.768 54.9521 43.915 54.9521H237.014C240.16 54.9521 242.721 57.5131 242.721 60.6601V332.092C242.721 335.239 240.16 337.8 237.014 337.8ZM43.915 55.2031C40.905 55.2031 38.457 57.6511 38.457 60.6611V332.093C38.457 335.103 40.905 337.551 43.915 337.551H237.014C240.023 337.551 242.471 335.103 242.471 332.093V60.6601C242.471 57.6511 240.023 55.2021 237.014 55.2021L43.915 55.2031Z" fill="#D1E3FF"/>
<path d="M453.31 337.8H260.212C257.066 337.8 254.505 335.239 254.505 332.092V60.6601C254.505 57.5131 257.066 54.9521 260.212 54.9521H453.31C456.458 54.9521 459.018 57.5131 459.018 60.6601V332.092C459.019 335.239 456.458 337.8 453.31 337.8ZM260.212 55.2031C257.203 55.2031 254.755 57.6511 254.755 60.6611V332.093C254.755 335.103 257.203 337.551 260.212 337.551H453.31C456.32 337.551 458.768 335.103 458.768 332.093V60.6601C458.768 57.6511 456.32 55.2021 453.31 55.2021L260.212 55.2031Z" fill="#D1E3FF"/>
<path d="M421.223 265.779H395.743V382.398H421.223V265.779Z" fill="#D1E3FF"/>
<path d="M416.384 382.398H421.224V368.633H411.31L416.384 382.398Z" fill="#EEF9FF"/>
<path d="M325.996 265.779H300.516V382.398H325.996V265.779Z" fill="#D1E3FF"/>
<path d="M421.223 265.779H321.771V373.951H421.223V265.779Z" fill="#EEF9FF"/>
<path d="M373.122 320.986V356.743H417.469V320.986H373.122Z" fill="#D1E3FF"/>
<path d="M325.526 320.985V356.742H369.873V320.985H325.526Z" fill="#D1E3FF"/>
<path d="M352.086 324.836H343.312C339.501 324.836 335.858 323.269 333.237 320.503H362.161C359.54 323.269 355.897 324.836 352.086 324.836Z" fill="#EEF9FF"/>
<path d="M400.13 324.836H391.356C387.545 324.836 383.902 323.269 381.281 320.503H410.205C407.584 323.269 403.941 324.836 400.13 324.836Z" fill="#EEF9FF"/>
<path d="M373.122 273.93V309.687H417.469V273.93H373.122Z" fill="#D1E3FF"/>
<path d="M325.526 273.929V309.686H369.873V273.929H325.526Z" fill="#D1E3FF"/>
<path d="M352.086 277.78H343.312C339.501 277.78 335.858 276.213 333.237 273.447H362.161C359.54 276.213 355.897 277.78 352.086 277.78Z" fill="#EEF9FF"/>
<path d="M400.13 277.78H391.356C387.545 277.78 383.902 276.213 381.281 273.447H410.205C407.584 276.213 403.941 277.78 400.13 277.78Z" fill="#EEF9FF"/>
<path d="M326.611 382.398H321.771V368.633H331.685L326.611 382.398Z" fill="#EEF9FF"/>
<path d="M346.368 247.512C346.368 251.967 349.469 255.073 345.013 255.073C340.557 255.073 330.234 251.967 330.234 247.512C330.234 243.057 333.846 239.445 338.301 239.445C342.756 239.445 346.368 243.056 346.368 247.512Z" fill="#CADEFC"/>
<path d="M360.177 251.356C360.177 255.811 363.278 258.917 358.822 258.917C354.366 258.917 344.043 255.811 344.043 251.356C344.043 246.901 347.655 243.289 352.11 243.289C356.565 243.289 360.177 246.901 360.177 251.356Z" fill="#CADEFC"/>
<path d="M373.406 248.987C373.406 253.442 376.507 256.548 372.052 256.548C367.597 256.548 357.272 253.442 357.272 248.987C357.272 244.532 360.884 240.92 365.339 240.92C369.794 240.92 373.406 244.532 373.406 248.987Z" fill="#CADEFC"/>
<path d="M325.289 250.04C325.289 250.04 325.949 265.779 351.236 265.779C376.523 265.779 377.183 250.04 377.183 250.04H325.289Z" fill="#E3EEFF"/>
<path d="M422.278 73.9897H294.049V215.887H422.278V73.9897Z" fill="#D1E3FF"/>
<path d="M436.02 69.6108H285.748C285.045 69.6108 284.475 70.1808 284.475 70.8838C284.475 71.5868 285.045 72.1568 285.748 72.1568H436.02C436.723 72.1568 437.293 71.5868 437.293 70.8838C437.293 70.1808 436.723 69.6108 436.02 69.6108Z" fill="#D1E3FF"/>
<path d="M427.719 73.9897H296.591V215.887H427.719V73.9897Z" fill="#E3EEFF"/>
<path d="M422.278 215.887H294.049V225.998H422.278V215.887Z" fill="#D1E3FF"/>
<path d="M436.783 215.887H305.655V225.998H436.783V215.887Z" fill="#E3EEFF"/>
<path d="M420.102 208.269V81.6074L304.209 81.6074V208.269H420.102Z" fill="#F5FCFF"/>
<path d="M330.517 208.27L375.226 81.6079H396.331L351.622 208.27H330.517Z" fill="white"/>
<path d="M356.155 208.27L400.864 81.6079H409.092L364.383 208.27H356.155Z" fill="white"/>
<path d="M420.102 208.269V81.6074H419.135V208.269H420.102Z" fill="#D1E3FF"/>
<path d="M304.297 67.333H291.187V189.555H304.297V67.333Z" fill="#EBF3FF"/>
<path d="M309.403 67.333H299.189V189.555H309.403V67.333Z" fill="#D1E3FF"/>
<path d="M317.407 67.333H304.297V189.555H317.407V67.333Z" fill="#EBF3FF"/>
<path d="M322.514 67.333H312.3V189.555H322.514V67.333Z" fill="#D1E3FF"/>
<path d="M330.516 67.333H317.406V189.555H330.516V67.333Z" fill="#EBF3FF"/>
<path d="M415.223 67.333H407.668V189.555H415.223V67.333Z" fill="#EBF3FF"/>
<path d="M418.166 67.333H412.28V189.555H418.166V67.333Z" fill="#D1E3FF"/>
<path d="M422.777 67.333H415.222V189.555H422.777V67.333Z" fill="#EBF3FF"/>
<path d="M425.72 67.333H419.834V189.555H425.72V67.333Z" fill="#D1E3FF"/>
<path d="M430.332 67.333H422.777V189.555H430.332V67.333Z" fill="#EBF3FF"/>
<path d="M110.369 105.638H96.708V142.911H110.369V105.638Z" fill="#E3EEFF"/>
<path d="M78.0381 151.444L73.7041 163.28H78.0381L104.601 151.444H78.0381Z" fill="#F3F8FF"/>
<path d="M73.7041 151.444V163.28L100.267 151.444H73.7041Z" fill="#D1E3FF"/>
<path d="M182.204 151.444L177.871 163.28H182.204L208.767 151.444H182.204Z" fill="#F3F8FF"/>
<path d="M177.871 151.444V163.28L204.434 151.444H177.871Z" fill="#D1E3FF"/>
<path d="M54.2047 152H83.0938V142.985H54.2047V152Z" fill="#D1E3FF"/>
<path d="M226.724 142.985H83.0938V152H226.724V142.985Z" fill="#F3F8FF"/>
<path d="M133.123 142.911H99.8747L95.7637 97.7441H129.012L133.123 142.911Z" fill="#D1E3FF"/>
<path d="M134.844 142.911H101.596L97.4854 97.7441H130.733L134.844 142.911Z" fill="#EEF9FF"/>
<path d="M106.141 137.911L102.94 102.744H126.188L129.389 137.911H106.141Z" fill="white"/>
<path d="M148.258 128.242C148.258 128.242 148.873 142.91 172.439 142.91C196.005 142.91 196.62 128.242 196.62 128.242H148.258Z" fill="#E3EEFF"/>
<path d="M123.764 379.155H87.3341C85.6421 379.155 84.2061 378.117 83.6751 376.51C83.1441 374.904 83.6781 373.214 85.0371 372.205L85.6331 373.008C84.4121 373.915 84.3121 375.249 84.6251 376.197C84.9381 377.143 85.8141 378.155 87.3351 378.155H123.765C128.404 378.155 132.177 374.382 132.177 369.743V261.88C132.177 256.825 136.289 252.713 141.344 252.713H152.239V253.713H141.344C136.841 253.713 133.177 257.377 133.177 261.88V369.743C133.176 374.933 128.954 379.155 123.764 379.155Z" fill="#D1E3FF"/>
<path d="M245.459 254.771H179.845V382.398H245.459V254.771Z" fill="#D1E3FF"/>
<path d="M247.916 254.771H242.505V382.398H247.916V254.771Z" fill="#EBF3FF"/>
<path d="M119.135 264.343H249.592V254.77L119.135 254.77V264.343Z" fill="#EBF3FF"/>
<path d="M118.353 254.771H52.7393V382.398H118.353V254.771Z" fill="#D1E3FF"/>
<path d="M120.811 254.771H115.4V382.398H120.811V254.771Z" fill="#EBF3FF"/>
<path d="M98.0332 216.668H159.173L168.034 252.772H106.894L98.0332 216.668Z" fill="#D1E3FF"/>
<path d="M106.895 252.772L107.142 254.768H168.285L168.038 252.772H106.895Z" fill="#D1E3FF"/>
<path d="M99.915 216.668H161.055L169.916 252.772H108.776L99.915 216.668Z" fill="#EEF9FF"/>
<path d="M110.07 251.123L102.019 218.318H159.762L167.814 251.123H110.07Z" fill="white"/>
<path d="M124.707 252.772L124.954 254.768H192.281L192.034 252.772H124.707Z" fill="#EEF9FF"/>
<path d="M77.071 245.672C77.071 245.672 68.074 230.162 80.556 217.815C80.556 217.815 83.814 219.938 83.764 222.793C83.714 225.648 80.275 226.37 81.014 228.752C81.753 231.134 85 233.471 82.869 235.441C80.738 237.411 83.212 239.164 83.068 241.576C82.924 243.99 77.071 245.672 77.071 245.672Z" fill="#EEF9FF"/>
<path d="M77.7534 247.089C77.7534 247.089 81.4014 229.533 65.6624 221.753C65.6624 221.753 63.2404 224.795 64.1874 227.489C65.1354 230.182 68.6264 229.783 68.6764 232.277C68.7264 234.771 66.3824 238.013 69.0254 239.21C71.6684 240.407 69.8734 242.851 70.7714 245.095C71.6694 247.339 77.7534 247.089 77.7534 247.089Z" fill="#EEF9FF"/>
<path d="M63.9688 243.199C63.9688 243.199 64.2677 254.77 75.7397 254.77C87.2118 254.77 87.5108 243.199 87.5108 243.199H63.9688Z" fill="#D1E3FF"/>
<path d="M225.741 382.398H223.456L216.933 350.243L215.787 344.61L208.67 309.568H181.38L166.593 382.398H164.309L179.376 308.224C179.483 307.704 179.937 307.333 180.473 307.333H209.585C210.113 307.333 210.575 307.704 210.674 308.224L216.925 339.002L218.071 344.627L225.741 382.398Z" fill="#EBF3FF"/>
<path d="M269.549 382.398H267.265L252.47 309.568H225.189L218.072 344.626L216.934 350.242L210.402 382.397H208.118L215.788 344.609L216.926 339.001L223.177 308.223C223.284 307.703 223.746 307.332 224.274 307.332H253.386C253.922 307.332 254.376 307.703 254.483 308.223L269.549 382.398Z" fill="#EBF3FF"/>
<path d="M202.286 308.449H252.426C261.998 308.449 269.813 300.792 270.007 291.222L271.876 215.02C272.022 207.845 266.246 201.95 259.07 201.95H227.639C221.126 201.95 215.651 206.837 214.913 213.308L202.286 308.449Z" fill="#E3EEFF"/>
<path d="M180.564 298.842H229.631V308.449H176.2C174.817 308.449 173.696 307.328 173.696 305.945V305.709C173.697 301.916 176.771 298.842 180.564 298.842Z" fill="#E3EEFF"/>
<path d="M250 427.561C357.082 427.561 443.889 422.491 443.889 416.238C443.889 409.984 357.082 404.915 250 404.915C142.918 404.915 56.1113 409.984 56.1113 416.238C56.1113 422.491 142.918 427.561 250 427.561Z" fill="#F0F6FF"/>
<path d="M276.441 170.819L277.094 171.374C277.332 171.578 277.604 171.779 277.856 171.983C278.377 172.39 278.904 172.799 279.456 173.186C280.54 173.98 281.694 174.698 282.843 175.419C285.156 176.845 287.588 178.098 290.107 179.135C292.621 180.181 295.195 181.103 297.843 181.773C298.502 181.951 299.174 182.07 299.84 182.223L300.842 182.442C301.052 182.482 300.881 182.46 300.786 182.488C300.67 182.525 300.485 182.588 300.407 182.666C300.315 182.754 300.32 182.75 300.359 182.728C300.449 182.623 300.661 182.255 300.817 181.785C301.149 180.83 301.355 179.541 301.472 178.236C301.59 176.918 301.63 175.541 301.621 174.148C301.604 171.358 301.401 168.508 301.178 165.648C300.942 162.787 300.605 159.917 300.235 157.045C299.892 154.174 299.457 151.285 299.03 148.443L302.787 147.581C304.442 153.301 305.752 159.044 306.755 164.936C307.27 167.879 307.646 170.859 307.852 173.917C307.953 175.448 308.007 176.999 307.962 178.604C307.904 180.215 307.794 181.856 307.302 183.714C307.04 184.642 306.701 185.651 305.948 186.746C305.538 187.297 305.066 187.862 304.359 188.354C303.677 188.835 302.814 189.223 301.969 189.356C301.154 189.522 300.242 189.451 299.732 189.367L298.577 189.181C297.809 189.048 297.032 188.947 296.269 188.786C293.207 188.169 290.191 187.312 287.265 186.206C284.345 185.085 281.522 183.72 278.814 182.142C277.472 181.329 276.152 180.481 274.873 179.549C274.228 179.094 273.599 178.606 272.969 178.11C272.656 177.85 272.348 177.605 272.036 177.327C271.712 177.046 271.444 176.81 271.045 176.429L276.441 170.819Z" fill="#FF8B7B"/>
<path d="M265.572 166.266C276.544 164.776 285.411 173.647 285.411 173.647L275.347 189.17C275.347 189.17 264.565 182.266 262.675 177.569C260.706 172.678 259.942 167.03 265.572 166.266Z" fill="#9FC6FF"/>
<path d="M299.168 149.789L295.525 142.47L305.091 142.389C305.091 142.389 305.284 147.498 302.861 150.432L299.168 149.789Z" fill="#FF8B7B"/>
<path d="M297.222 134.601L304.336 135.866L305.091 142.389L295.525 142.47L297.222 134.601Z" fill="#FF8B7B"/>
<path d="M226.666 407.868L235.633 408.733L241.833 387.685L232.867 386.82L226.666 407.868Z" fill="#FF8B7B"/>
<path d="M169.699 376.751L176.341 382.987L190.68 367.229L184.038 360.992L169.699 376.751Z" fill="#FF8B7B"/>
<path d="M179.408 379.996L174.417 371.002C174.235 370.675 173.861 370.535 173.516 370.667L165.832 373.592C165.035 373.895 164.689 374.918 165.121 375.665C166.915 378.77 167.938 380.179 170.133 384.134C171.483 386.567 174.113 392.146 175.978 395.506C177.802 398.792 181.264 397.201 180.789 395.635C178.656 388.613 179.058 384.705 179.66 381.606C179.767 381.047 179.673 380.475 179.408 379.996Z" fill="#14365B"/>
<path d="M236.684 406H225.824C225.429 406 225.072 406.274 224.966 406.66L222.605 415.253C222.36 416.144 223.016 416.963 223.93 416.971C227.757 417.005 229.571 416.99 234.347 416.99C237.285 416.99 244.887 416.99 248.944 416.99C252.913 416.99 253.743 412.978 252.101 412.615C244.738 410.986 240.494 408.739 238.222 406.595C237.812 406.208 237.262 406 236.684 406Z" fill="#14365B"/>
<path d="M241.83 387.69L238.635 398.54H229.41L232.859 386.826L241.83 387.69Z" fill="#EA7063"/>
<path d="M184.033 360.995L190.677 367.234L183.283 375.354L176.639 369.115L184.033 360.995Z" fill="#EA7063"/>
<path d="M276.407 160.063C276.338 152.795 269.762 150.25 269.762 150.25C269.762 150.25 277.99 134.667 273.743 124.333C269.496 114 255.573 112.166 251.145 117C243.383 116.666 240.907 127.833 240.907 127.833C240.907 127.833 234.412 128.916 232.657 133.647C230.902 138.378 236.24 143.71 236.24 143.71C236.24 143.71 228.823 144.749 226.094 150.416C223.365 156.083 225.037 163.71 233.24 170.249C245.157 179.749 267.073 167.832 267.073 167.832C267.073 167.832 276.486 168.417 276.407 160.063Z" fill="#0F264C"/>
<path d="M274.96 167.292C274.96 167.292 278.935 169.041 265.602 221.805C250.903 220.534 235.712 219.22 228.559 218.601C230.485 203.579 231.306 194.284 226.776 162.721C226.776 162.721 234.683 161.704 242.685 162.009C248.944 162.248 254.069 162.49 259.505 163.464C266.674 164.749 274.96 167.292 274.96 167.292Z" fill="#9FC6FF"/>
<path d="M265.41 164.71C263.49 164.25 261.46 163.81 259.51 163.46C254.07 162.49 248.95 162.25 242.69 162.01C240.76 161.94 238.83 161.94 237.02 161.98L238.26 164.34C238.48 164.76 243.76 174.61 253.79 180.2L256.55 181.74L259.12 179.91C265.6 175.3 266.56 169.28 265.41 164.71Z" fill="white"/>
<path d="M245.991 143.214C246.584 148.718 246.785 158.726 242.686 162.01C242.686 162.01 247.373 170.902 256.227 175.834C264.074 170.251 259.507 163.465 259.507 163.465C253.597 161.502 254.14 157.037 255.555 152.923L245.991 143.214Z" fill="#FF8B7B"/>
<path d="M249.889 147.175L255.549 152.918C255.211 153.891 254.927 154.884 254.772 155.859C252.495 155.326 249.199 152.96 249.163 150.525C249.146 149.31 249.644 147.719 249.889 147.175Z" fill="#EA7063"/>
<path d="M245.757 130.708C244.674 139.729 244.023 143.524 247.692 148.927C253.21 157.053 264.527 156.411 268.284 147.895C271.665 140.23 272.868 126.765 264.785 121.619C256.821 116.548 246.84 121.687 245.757 130.708Z" fill="#FF8B7B"/>
<path d="M252.741 119.62C259.693 121.417 252.824 142.564 241.699 136.428C241.699 136.428 242.199 127.5 245.282 123.709C248.366 119.917 252.741 119.62 252.741 119.62Z" fill="#0F264C"/>
<path d="M251.991 120.792C254.991 125.667 277.243 134.917 269.763 124.417C262.283 113.917 251.991 120.792 251.991 120.792Z" fill="#0F264C"/>
<path d="M242.9 138.504C242.745 140.381 243.472 142.155 244.491 143.319C246.025 145.071 248.061 144.006 248.698 141.893C249.271 139.992 249.163 136.789 247.113 135.813C245.092 134.852 243.077 136.357 242.9 138.504Z" fill="#FF8B7B"/>
<path d="M265.602 221.804C265.602 221.804 278.135 277.247 269.769 316.333C264.166 342.511 243.957 395.394 243.957 395.394L228.157 394.988C228.157 394.988 243.454 339.49 246.617 317.665C252.027 280.332 238.476 219.458 238.476 219.458L265.602 221.804Z" fill="#0F264C"/>
<path d="M251.15 233L243.25 245.46C245.26 258.38 247.26 274.54 247.77 290.09C258.88 270.2 253.62 243.53 251.15 233Z" fill="#0A1B35"/>
<path d="M245.258 396.213L225.74 395.715L226.869 389.718L248.18 390.728L245.258 396.213Z" fill="#9FC6FF"/>
<path d="M257.503 221.215C257.503 221.215 250.151 280.012 234.213 312.111C221.34 338.038 186.99 374.946 186.99 374.946L178.207 365.898C178.207 365.898 201.409 325.786 210.977 308.563C234.436 266.332 215.264 234.106 228.56 218.6L257.503 221.215Z" fill="#0F264C"/>
<path d="M187.879 376.157L176.545 365.109L180.305 359.993L192.657 372.763L187.879 376.157Z" fill="#9FC6FF"/>
<path d="M228.193 216.38L226.236 219.551C226.084 219.797 226.366 220.086 226.794 220.123L265.641 223.483C265.975 223.512 266.266 223.372 266.305 223.164L266.926 219.877C266.969 219.649 266.696 219.43 266.331 219.398L228.82 216.154C228.544 216.13 228.29 216.221 228.193 216.38Z" fill="#0053CC"/>
<path d="M232.868 221.01L231.863 220.923C231.663 220.906 231.519 220.789 231.544 220.665L232.388 216.398C232.413 216.273 232.597 216.185 232.797 216.203L233.802 216.29C234.002 216.307 234.146 216.424 234.121 216.549L233.277 220.816C233.252 220.939 233.068 221.027 232.868 221.01Z" fill="#0F264C"/>
<path d="M262.787 223.597L261.782 223.51C261.582 223.493 261.438 223.376 261.463 223.252L262.307 218.985C262.332 218.86 262.516 218.772 262.716 218.789L263.721 218.876C263.921 218.893 264.065 219.01 264.04 219.134L263.196 223.401C263.171 223.527 262.987 223.615 262.787 223.597Z" fill="#0F264C"/>
<path d="M247.827 222.303L246.822 222.216C246.622 222.199 246.478 222.082 246.503 221.958L247.347 217.691C247.372 217.566 247.556 217.478 247.756 217.495L248.761 217.582C248.961 217.599 249.105 217.716 249.08 217.84L248.236 222.107C248.211 222.233 248.027 222.321 247.827 222.303Z" fill="#0F264C"/>
<path d="M258.832 135.675C258.699 136.401 258.977 137.061 259.451 137.147C259.925 137.233 260.418 136.715 260.551 135.989C260.684 135.263 260.406 134.603 259.932 134.517C259.458 134.43 258.965 134.949 258.832 135.675Z" fill="#0F264C"/>
<path d="M267.043 137.176C266.91 137.902 267.187 138.561 267.662 138.648C268.137 138.735 268.629 138.216 268.762 137.49C268.895 136.764 268.617 136.104 268.143 136.018C267.668 135.931 267.176 136.45 267.043 137.176Z" fill="#0F264C"/>
<path d="M267.926 136.019L269.763 135.835C269.763 135.835 268.618 137.034 267.926 136.019Z" fill="#0F264C"/>
<path d="M264.645 138.027C264.645 138.027 265.306 141.379 266.387 143.136C265.265 143.856 263.709 143.149 263.709 143.149L264.645 138.027Z" fill="#FF5652"/>
<path d="M260.668 145.508C260.657 145.508 260.646 145.507 260.636 145.505C257.237 144.884 256.107 142.272 256.061 142.161C256.022 142.069 256.066 141.964 256.158 141.925C256.247 141.885 256.354 141.929 256.393 142.021C256.404 142.046 257.5 144.565 260.701 145.15C260.799 145.168 260.864 145.262 260.847 145.359C260.829 145.447 260.754 145.508 260.668 145.508Z" fill="#0F264C"/>
<path d="M256.878 130.016C256.77 130.016 256.662 129.967 256.592 129.874C256.471 129.716 256.501 129.49 256.659 129.369C258.534 127.936 260.39 128.572 260.472 128.6C260.659 128.666 260.756 128.871 260.691 129.059C260.625 129.246 260.419 129.342 260.232 129.28C260.169 129.259 258.652 128.754 257.097 129.942C257.031 129.992 256.954 130.016 256.878 130.016Z" fill="#0F264C"/>
<path d="M271.677 134.419C271.573 134.419 271.469 134.374 271.398 134.287C270.149 132.763 268.52 132.921 268.502 132.922C268.305 132.941 268.127 132.8 268.104 132.603C268.083 132.405 268.225 132.227 268.423 132.205C268.505 132.198 270.46 132.005 271.956 133.83C272.082 133.984 272.06 134.211 271.905 134.337C271.838 134.393 271.758 134.419 271.677 134.419Z" fill="#0F264C"/>
<path d="M229.589 175.974C228.06 179.091 226.407 181.838 224.635 184.65C222.835 187.412 220.932 190.109 218.876 192.708C216.834 195.318 214.591 197.783 212.234 200.156C211.009 201.307 209.819 202.483 208.51 203.558L207.548 204.38L207.308 204.585L206.991 204.832C206.772 204.997 206.561 205.169 206.326 205.315C205.418 205.932 204.42 206.437 203.394 206.788C201.331 207.501 199.227 207.614 197.305 207.456C195.379 207.278 193.584 206.843 191.9 206.274C188.536 205.119 185.52 203.546 182.711 201.744C177.096 198.123 172.144 193.942 167.573 189.203L170.227 186.408C172.617 188.327 175.145 190.243 177.719 191.973C180.276 193.741 182.904 195.387 185.596 196.809C188.29 198.208 191.025 199.485 193.756 200.216C196.465 200.973 199.173 201.103 201.042 200.316C202.049 199.913 202.558 199.472 203.808 198.272C204.923 197.275 205.95 196.158 207.004 195.081C209.054 192.848 210.956 190.464 212.818 188.037C214.669 185.599 216.384 183.041 218.019 180.436C218.849 179.141 219.644 177.824 220.42 176.499C221.169 175.184 221.953 173.793 222.603 172.55L229.589 175.974Z" fill="#FF8B7B"/>
<path d="M172.678 187.628L169.117 180.269L163.2 187.787C163.2 187.787 167.123 191.065 170.927 190.943L172.678 187.628Z" fill="#FF8B7B"/>
<path d="M165.229 178.124L161.877 184.525L163.201 187.786L169.117 180.268L165.229 178.124Z" fill="#FF8B7B"/>
<path d="M226.777 162.721C222.237 163.524 215.873 176.549 215.873 176.549L228.336 187.821C228.336 187.821 236.425 176.972 235.94 171.055C235.526 166.031 232.561 161.698 226.777 162.721Z" fill="#9FC6FF"/>
<path d="M181.159 384.83C181.041 384.83 180.924 384.81 180.807 384.771C179.721 384.406 179.009 382.395 178.68 381.229C178.66 381.16 178.684 381.085 178.74 381.04C178.797 380.994 178.874 380.986 178.937 381.02C179.268 381.194 182.169 382.745 182.264 383.89C182.279 384.065 182.237 384.318 181.955 384.531C181.69 384.73 181.424 384.83 181.159 384.83ZM179.15 381.549C179.654 383.157 180.305 384.222 180.921 384.43C181.187 384.521 181.453 384.459 181.736 384.244C181.899 384.12 181.909 384 181.903 383.92C181.846 383.218 180.145 382.113 179.15 381.549Z" fill="#407BFF"/>
<path d="M181.607 382.002C180.577 382.002 179.314 381.674 178.759 381.335C178.704 381.301 178.671 381.241 178.673 381.177C178.674 381.113 178.71 381.054 178.766 381.024C178.864 380.97 181.16 379.707 182.398 380.146C182.721 380.26 182.949 380.476 183.075 380.788C183.272 381.272 183.057 381.553 182.911 381.677C182.635 381.909 182.154 382.002 181.607 382.002ZM179.249 381.18C180.233 381.599 182.141 381.857 182.676 381.402C182.766 381.326 182.854 381.203 182.74 380.923C182.653 380.709 182.501 380.566 182.277 380.487C181.435 380.188 179.903 380.857 179.249 381.18Z" fill="#407BFF"/>
<path d="M241.503 407.756C240.46 407.756 239.323 407.554 238.536 407.379C238.461 407.362 238.404 407.3 238.396 407.223C238.388 407.147 238.429 407.073 238.499 407.04C238.945 406.83 242.883 405.009 243.878 405.683C244.004 405.769 244.152 405.934 244.135 406.24C244.111 406.664 243.93 407.006 243.598 407.257C243.106 407.628 242.334 407.756 241.503 407.756ZM239.156 407.138C240.326 407.358 242.489 407.641 243.381 406.969C243.628 406.781 243.757 406.536 243.775 406.219C243.784 406.073 243.727 406.015 243.676 405.981C243.118 405.6 240.791 406.418 239.156 407.138Z" fill="#407BFF"/>
<path d="M238.577 407.384C238.535 407.384 238.494 407.369 238.46 407.341C238.409 407.297 238.386 407.229 238.401 407.163C238.439 406.997 239.337 403.107 241.471 403.36C242.006 403.424 242.153 403.689 242.181 403.901C242.315 404.89 239.83 406.884 238.644 407.37C238.623 407.379 238.6 407.384 238.577 407.384ZM241.278 403.709C239.914 403.709 239.116 405.97 238.852 406.875C240.136 406.203 241.911 404.582 241.825 403.949C241.819 403.903 241.8 403.763 241.429 403.718C241.377 403.712 241.327 403.709 241.278 403.709Z" fill="#407BFF"/>
<path d="M259.716 134.518L261.553 134.334C261.553 134.334 260.408 135.533 259.716 134.518Z" fill="#0F264C"/>
<path opacity="0.6" d="M184.491 77.5259L155.183 266.967L320.103 292.482L349.411 103.04L184.491 77.5259ZM252.251 185.301C231.123 182.032 216.641 162.249 219.91 141.121C223.18 119.985 242.962 105.511 264.09 108.78C285.225 112.05 299.701 131.824 296.431 152.96C293.162 174.088 273.386 188.571 252.251 185.301Z" fill="#0053CC"/>
<path opacity="0.3" d="M315.116 285.286L314.869 285.248L149.702 259.695L149.74 259.448L179.086 69.7598L179.333 69.7978L344.5 95.3498L344.462 95.5968L315.116 285.286ZM150.272 259.277L314.698 284.715L343.93 95.7678L179.504 70.3298L150.272 259.277Z" fill="#0053CC"/>
<path d="M258.194 187.26C256.157 187.26 254.095 187.105 252.021 186.784C230.107 183.393 215.037 162.806 218.427 140.892C220.07 130.275 225.748 120.933 234.416 114.589C243.083 108.245 253.702 105.655 264.317 107.298C286.231 110.689 301.301 131.275 297.912 153.19C294.842 173.029 277.677 187.26 258.194 187.26ZM252.48 183.819C272.756 186.957 291.81 173.01 294.948 152.731C298.085 132.452 284.138 113.401 263.859 110.263C254.036 108.743 244.208 111.14 236.188 117.01C228.166 122.881 222.912 131.526 221.392 141.351C218.255 161.63 232.201 180.681 252.48 183.819Z" fill="white"/>
<path d="M220.362 197.033L184.036 191.412L182.773 199.576L219.099 205.196L220.362 197.033Z" fill="#9FC6FF"/>
<path d="M249.719 201.575L225.143 197.772L223.879 205.936L248.456 209.739L249.719 201.575Z" fill="#9FC6FF"/>
<path d="M312.843 228.276L181.477 207.951L180.213 216.114L311.58 236.44L312.843 228.276Z" fill="white"/>
<path d="M244.114 235.414L178.792 225.307L177.529 233.471L242.851 243.578L244.114 235.414Z" fill="white"/>
<path d="M298.987 243.904L255.291 237.143L254.028 245.306L297.724 252.067L298.987 243.904Z" fill="white"/>
<path d="M281.12 258.911L176.106 242.663L174.843 250.826L279.857 267.074L281.12 258.911Z" fill="white"/>
<path d="M351.173 292.48H350.173C350.173 289.991 349.866 287.514 349.263 285.12L350.232 284.876C350.856 287.35 351.173 289.908 351.173 292.48ZM347.253 279.559C345.065 274.979 341.72 270.989 337.578 268.021L338.16 267.208C342.438 270.273 345.894 274.396 348.155 279.127L347.253 279.559Z" fill="#9FC6FF"/>
<path d="M320.102 264.911C304.875 264.911 292.531 277.255 292.531 292.482C292.531 307.709 304.875 320.053 320.102 320.053C335.329 320.053 347.673 307.709 347.673 292.482C347.673 277.255 335.329 264.911 320.102 264.911ZM320.102 316.477C306.85 316.477 296.107 305.734 296.107 292.482C296.107 279.23 306.85 268.487 320.102 268.487C333.354 268.487 344.097 279.23 344.097 292.482C344.096 305.734 333.354 316.477 320.102 316.477Z" fill="#9FC6FF"/>
<path opacity="0.8" d="M320.102 316.477C333.354 316.477 344.097 305.734 344.097 292.482C344.097 279.23 333.354 268.487 320.102 268.487C306.85 268.487 296.107 279.23 296.107 292.482C296.107 305.734 306.85 316.477 320.102 316.477Z" fill="#0053CC"/>
<path d="M316.369 307.662L302.291 293.584L305.826 290.049L316.369 300.592L334.377 282.584L337.912 286.119L316.369 307.662Z" fill="white"/>
</svg>
