<svg width="444" height="190" viewBox="0 0 444 190" fill="none" xmlns="http://www.w3.org/2000/svg">
<g clip-path="url(#clip0_4056_1890)">
<path d="M387.142 141.712H7.48633V7.60547H436.459V141.712H424.831H419.831V146.712V172.331L390.678 143.177L389.213 141.712H387.142Z" fill="#F5F5F5" stroke="#F5F5F5" stroke-width="10"/>
<path d="M386.314 147.962H1.23633V1.35547H442.709V147.962H426.832H426.082V148.712V187.421L386.844 148.182L386.624 147.962H386.314ZM3.73633 144.712V145.462H4.48633H387.66L422.301 180.105L423.582 181.385V179.574V145.462H439.459H440.209V144.712V4.60547V3.85547H439.459H4.48633H3.73633V4.60547V144.712Z" fill="#F5F5F5" stroke="#F5F5F5" stroke-width="1.5"/>
<path d="M128.408 73.7464C128.369 73.3454 128.198 73.0339 127.896 72.8118C127.595 72.5897 127.185 72.4787 126.668 72.4787C126.317 72.4787 126.02 72.5284 125.778 72.6278C125.536 72.724 125.351 72.8582 125.222 73.0305C125.096 73.2029 125.033 73.3984 125.033 73.6172C125.026 73.7995 125.064 73.9586 125.147 74.0945C125.233 74.2304 125.351 74.348 125.5 74.4474C125.649 74.5436 125.821 74.6281 126.017 74.701C126.213 74.7706 126.421 74.8303 126.643 74.88L127.558 75.0987C128.002 75.1982 128.41 75.3307 128.781 75.4964C129.152 75.6622 129.474 75.866 129.746 76.108C130.018 76.3499 130.228 76.6349 130.377 76.9631C130.53 77.2912 130.607 77.6674 130.611 78.0916C130.607 78.7147 130.448 79.255 130.134 79.7124C129.822 80.1664 129.371 80.5194 128.781 80.7713C128.195 81.0199 127.487 81.1442 126.658 81.1442C125.836 81.1442 125.121 81.0182 124.511 80.7663C123.904 80.5144 123.43 80.1416 123.089 79.6477C122.751 79.1506 122.573 78.5357 122.557 77.8033H124.64C124.663 78.1446 124.761 78.4297 124.933 78.6584C125.109 78.8838 125.343 79.0545 125.634 79.1705C125.929 79.2831 126.262 79.3395 126.634 79.3395C126.998 79.3395 127.315 79.2865 127.583 79.1804C127.855 79.0743 128.065 78.9268 128.214 78.7379C128.364 78.549 128.438 78.3319 128.438 78.0866C128.438 77.858 128.37 77.6657 128.234 77.5099C128.102 77.3542 127.906 77.2216 127.648 77.1122C127.393 77.0028 127.079 76.9034 126.708 76.8139L125.599 76.5355C124.741 76.3267 124.063 76.0002 123.566 75.5561C123.069 75.112 122.822 74.5137 122.825 73.7614C122.822 73.1449 122.986 72.6063 123.317 72.1456C123.652 71.6849 124.111 71.3253 124.695 71.0668C125.278 70.8082 125.941 70.679 126.683 70.679C127.439 70.679 128.098 70.8082 128.662 71.0668C129.229 71.3253 129.67 71.6849 129.984 72.1456C130.299 72.6063 130.462 73.1399 130.472 73.7464H128.408ZM133.259 81V70.8182H140.12V72.593H135.411V75.0192H139.767V76.794H135.411V79.2251H140.139V81H133.259ZM151.547 70.8182V81H149.688L145.258 74.5916H145.184V81H143.031V70.8182H144.92L149.315 77.2216H149.405V70.8182H151.547ZM158.135 81H154.526V70.8182H158.165C159.189 70.8182 160.071 71.022 160.81 71.4297C161.549 71.834 162.118 72.4157 162.515 73.1747C162.916 73.9337 163.117 74.8419 163.117 75.8991C163.117 76.9598 162.916 77.8712 162.515 78.6335C162.118 79.3958 161.546 79.9808 160.8 80.3885C160.058 80.7962 159.169 81 158.135 81ZM156.679 79.1555H158.046C158.682 79.1555 159.217 79.0429 159.652 78.8175C160.089 78.5888 160.417 78.2358 160.636 77.7585C160.858 77.2779 160.969 76.6581 160.969 75.8991C160.969 75.1468 160.858 74.532 160.636 74.0547C160.417 73.5774 160.091 73.2261 159.657 73.0007C159.222 72.7753 158.687 72.6626 158.051 72.6626H156.679V79.1555ZM176.641 70.8182H178.794V77.4304C178.794 78.1728 178.616 78.8224 178.262 79.3793C177.91 79.9361 177.418 80.3703 176.785 80.6818C176.152 80.9901 175.414 81.1442 174.573 81.1442C173.727 81.1442 172.988 80.9901 172.355 80.6818C171.722 80.3703 171.23 79.9361 170.879 79.3793C170.527 78.8224 170.352 78.1728 170.352 77.4304V70.8182H172.504V77.2464C172.504 77.6342 172.589 77.9789 172.758 78.2805C172.93 78.5821 173.172 78.8191 173.484 78.9915C173.795 79.1638 174.158 79.25 174.573 79.25C174.99 79.25 175.353 79.1638 175.661 78.9915C175.973 78.8191 176.213 78.5821 176.382 78.2805C176.555 77.9789 176.641 77.6342 176.641 77.2464V70.8182ZM187.288 73.7464C187.248 73.3454 187.078 73.0339 186.776 72.8118C186.474 72.5897 186.065 72.4787 185.548 72.4787C185.197 72.4787 184.9 72.5284 184.658 72.6278C184.416 72.724 184.231 72.8582 184.101 73.0305C183.975 73.2029 183.912 73.3984 183.912 73.6172C183.906 73.7995 183.944 73.9586 184.027 74.0945C184.113 74.2304 184.231 74.348 184.38 74.4474C184.529 74.5436 184.701 74.6281 184.897 74.701C185.092 74.7706 185.301 74.8303 185.523 74.88L186.438 75.0987C186.882 75.1982 187.29 75.3307 187.661 75.4964C188.032 75.6622 188.354 75.866 188.625 76.108C188.897 76.3499 189.108 76.6349 189.257 76.9631C189.409 77.2912 189.487 77.6674 189.49 78.0916C189.487 78.7147 189.328 79.255 189.013 79.7124C188.702 80.1664 188.251 80.5194 187.661 80.7713C187.074 81.0199 186.367 81.1442 185.538 81.1442C184.716 81.1442 184 81.0182 183.39 80.7663C182.784 80.5144 182.31 80.1416 181.968 79.6477C181.63 79.1506 181.453 78.5357 181.437 77.8033H183.52C183.543 78.1446 183.641 78.4297 183.813 78.6584C183.989 78.8838 184.222 79.0545 184.514 79.1705C184.809 79.2831 185.142 79.3395 185.513 79.3395C185.878 79.3395 186.194 79.2865 186.463 79.1804C186.735 79.0743 186.945 78.9268 187.094 78.7379C187.243 78.549 187.318 78.3319 187.318 78.0866C187.318 77.858 187.25 77.6657 187.114 77.5099C186.981 77.3542 186.786 77.2216 186.527 77.1122C186.272 77.0028 185.959 76.9034 185.588 76.8139L184.479 76.5355C183.621 76.3267 182.943 76.0002 182.446 75.5561C181.949 75.112 181.702 74.5137 181.705 73.7614C181.702 73.1449 181.866 72.6063 182.197 72.1456C182.532 71.6849 182.991 71.3253 183.574 71.0668C184.158 70.8082 184.821 70.679 185.563 70.679C186.319 70.679 186.978 70.8082 187.542 71.0668C188.108 71.3253 188.549 71.6849 188.864 72.1456C189.179 72.6063 189.341 73.1399 189.351 73.7464H187.288ZM198.334 81H196.027L199.542 70.8182H202.316L205.826 81H203.519L200.969 73.1449H200.889L198.334 81ZM198.189 76.9979H203.638V78.6783H198.189V76.9979ZM212.692 70.8182H215.346L218.15 77.6591H218.27L221.074 70.8182H223.729V81H221.64V74.3729H221.556L218.921 80.9503H217.499L214.864 74.348H214.78V81H212.692V70.8182ZM226.702 81V70.8182H233.563V72.593H228.855V75.0192H233.21V76.794H228.855V79.2251H233.583V81H226.702ZM241.998 73.7464C241.958 73.3454 241.787 73.0339 241.486 72.8118C241.184 72.5897 240.775 72.4787 240.258 72.4787C239.906 72.4787 239.61 72.5284 239.368 72.6278C239.126 72.724 238.94 72.8582 238.811 73.0305C238.685 73.2029 238.622 73.3984 238.622 73.6172C238.615 73.7995 238.654 73.9586 238.736 74.0945C238.823 74.2304 238.94 74.348 239.089 74.4474C239.239 74.5436 239.411 74.6281 239.607 74.701C239.802 74.7706 240.011 74.8303 240.233 74.88L241.148 75.0987C241.592 75.1982 241.999 75.3307 242.371 75.4964C242.742 75.6622 243.063 75.866 243.335 76.108C243.607 76.3499 243.817 76.6349 243.967 76.9631C244.119 77.2912 244.197 77.6674 244.2 78.0916C244.197 78.7147 244.038 79.255 243.723 79.7124C243.411 80.1664 242.961 80.5194 242.371 80.7713C241.784 81.0199 241.076 81.1442 240.248 81.1442C239.426 81.1442 238.71 81.0182 238.1 80.7663C237.494 80.5144 237.02 80.1416 236.678 79.6477C236.34 79.1506 236.163 78.5357 236.146 77.8033H238.229C238.253 78.1446 238.35 78.4297 238.523 78.6584C238.698 78.8838 238.932 79.0545 239.224 79.1705C239.519 79.2831 239.852 79.3395 240.223 79.3395C240.588 79.3395 240.904 79.2865 241.173 79.1804C241.444 79.0743 241.655 78.9268 241.804 78.7379C241.953 78.549 242.028 78.3319 242.028 78.0866C242.028 77.858 241.96 77.6657 241.824 77.5099C241.691 77.3542 241.496 77.2216 241.237 77.1122C240.982 77.0028 240.669 76.9034 240.298 76.8139L239.189 76.5355C238.33 76.3267 237.653 76.0002 237.156 75.5561C236.658 75.112 236.411 74.5137 236.415 73.7614C236.411 73.1449 236.575 72.6063 236.907 72.1456C237.242 71.6849 237.701 71.3253 238.284 71.0668C238.867 70.8082 239.53 70.679 240.273 70.679C241.028 70.679 241.688 70.8082 242.251 71.0668C242.818 71.3253 243.259 71.6849 243.574 72.1456C243.889 72.6063 244.051 73.1399 244.061 73.7464H241.998ZM252.372 73.7464C252.332 73.3454 252.161 73.0339 251.86 72.8118C251.558 72.5897 251.149 72.4787 250.632 72.4787C250.28 72.4787 249.984 72.5284 249.742 72.6278C249.5 72.724 249.314 72.8582 249.185 73.0305C249.059 73.2029 248.996 73.3984 248.996 73.6172C248.989 73.7995 249.027 73.9586 249.11 74.0945C249.196 74.2304 249.314 74.348 249.463 74.4474C249.612 74.5436 249.785 74.6281 249.98 74.701C250.176 74.7706 250.385 74.8303 250.607 74.88L251.522 75.0987C251.966 75.1982 252.373 75.3307 252.745 75.4964C253.116 75.6622 253.437 75.866 253.709 76.108C253.981 76.3499 254.191 76.6349 254.34 76.9631C254.493 77.2912 254.571 77.6674 254.574 78.0916C254.571 78.7147 254.412 79.255 254.097 79.7124C253.785 80.1664 253.334 80.5194 252.745 80.7713C252.158 81.0199 251.45 81.1442 250.622 81.1442C249.8 81.1442 249.084 81.0182 248.474 80.7663C247.867 80.5144 247.393 80.1416 247.052 79.6477C246.714 79.1506 246.537 78.5357 246.52 77.8033H248.603C248.626 78.1446 248.724 78.4297 248.897 78.6584C249.072 78.8838 249.306 79.0545 249.598 79.1705C249.892 79.2831 250.226 79.3395 250.597 79.3395C250.961 79.3395 251.278 79.2865 251.546 79.1804C251.818 79.0743 252.029 78.9268 252.178 78.7379C252.327 78.549 252.401 78.3319 252.401 78.0866C252.401 77.858 252.334 77.6657 252.198 77.5099C252.065 77.3542 251.87 77.2216 251.611 77.1122C251.356 77.0028 251.043 76.9034 250.671 76.8139L249.563 76.5355C248.704 76.3267 248.026 76.0002 247.529 75.5561C247.032 75.112 246.785 74.5137 246.789 73.7614C246.785 73.1449 246.949 72.6063 247.281 72.1456C247.616 71.6849 248.075 71.3253 248.658 71.0668C249.241 70.8082 249.904 70.679 250.647 70.679C251.402 70.679 252.062 70.8082 252.625 71.0668C253.192 71.3253 253.633 71.6849 253.948 72.1456C254.263 72.6063 254.425 73.1399 254.435 73.7464H252.372ZM258.745 81H256.438L259.953 70.8182H262.727L266.237 81H263.93L261.38 73.1449H261.3L258.745 81ZM258.6 76.9979H264.049V78.6783H258.6V76.9979ZM274.935 74.1094C274.866 73.8674 274.768 73.6536 274.642 73.468C274.516 73.2791 274.362 73.12 274.18 72.9908C274.001 72.8582 273.795 72.7571 273.563 72.6875C273.334 72.6179 273.081 72.5831 272.802 72.5831C272.282 72.5831 271.825 72.7124 271.43 72.9709C271.039 73.2294 270.734 73.6056 270.515 74.0994C270.297 74.59 270.187 75.1899 270.187 75.8991C270.187 76.6084 270.295 77.2116 270.51 77.7088C270.726 78.206 271.031 78.5855 271.425 78.8473C271.82 79.1058 272.285 79.2351 272.822 79.2351C273.309 79.2351 273.725 79.1489 274.07 78.9766C274.418 78.8009 274.683 78.554 274.866 78.2358C275.051 77.9176 275.144 77.5414 275.144 77.1072L275.581 77.1719H272.956V75.5511H277.217V76.8338C277.217 77.7287 277.028 78.4976 276.65 79.1406C276.273 79.7803 275.752 80.2741 275.089 80.6222C274.426 80.9669 273.667 81.1392 272.812 81.1392C271.858 81.1392 271.019 80.9287 270.297 80.5078C269.574 80.0836 269.011 79.482 268.606 78.7031C268.205 77.9209 268.005 76.9929 268.005 75.919C268.005 75.0937 268.124 74.358 268.363 73.7116C268.605 73.062 268.943 72.5118 269.377 72.0611C269.811 71.6103 270.317 71.2673 270.893 71.032C271.47 70.7966 272.095 70.679 272.768 70.679C273.344 70.679 273.881 70.7635 274.378 70.9325C274.876 71.0982 275.316 71.3336 275.701 71.6385C276.089 71.9434 276.405 72.3063 276.65 72.7273C276.896 73.1449 277.053 73.6056 277.123 74.1094H274.935ZM280.034 81V70.8182H286.895V72.593H282.187V75.0192H286.542V76.794H282.187V79.2251H286.915V81H280.034Z" fill="#252525"/>
<path d="M313.14 70L311.681 71.5035L315 75H301V77H315L311.702 80.5035L313.167 82L319 75.986L313.14 70Z" fill="#252525"/>
</g>
<defs>
<clipPath id="clip0_4056_1890">
<rect width="444" height="189" fill="white" transform="translate(0 0.5)"/>
</clipPath>
</defs>
</svg>
