<svg width="444" height="190" viewBox="0 0 444 190" fill="none" xmlns="http://www.w3.org/2000/svg">
<g clip-path="url(#clip0_4056_1884)">
<path d="M387.142 141.712H7.48633V7.60547H436.459V141.712H424.831H419.831V146.712V172.331L390.678 143.177L389.213 141.712H387.142Z" stroke="white" stroke-width="10"/>
<path d="M386.314 147.962H1.23633V1.35547H442.709V147.962H426.832H426.082V148.712V187.421L386.844 148.182L386.624 147.962H386.314ZM3.73633 144.712V145.462H4.48633H387.66L422.301 180.105L423.582 181.385V179.574V145.462H439.459H440.209V144.712V4.60547V3.85547H439.459H4.48633H3.73633V4.60547V144.712Z" fill="#121212" stroke="white" stroke-width="1.5"/>
<path d="M244.601 51.4058H44.9883V57.4635H244.601V51.4058Z" fill="#E8E8E8"/>
<path d="M392.601 72.3613H44.6934V78.4191H392.601V72.3613Z" fill="#E8E8E8"/>
<path d="M392.601 93.3171H45.0342V99.3749H392.601V93.3171Z" fill="#E8E8E8"/>
</g>
<defs>
<clipPath id="clip0_4056_1884">
<rect width="444" height="189" fill="white" transform="translate(0 0.5)"/>
</clipPath>
</defs>
</svg>
