<svg width="42" height="42" viewBox="0 0 42 42" fill="none" xmlns="http://www.w3.org/2000/svg">
<path d="M35.3365 34.5269H33.2197V32.7419H35.3365C35.7159 32.7419 36.0155 32.4194 36.0155 32.0108C36.0155 31.6022 35.7159 31.2796 35.3365 31.2796H33.2197V31.0215C33.2197 30.6129 32.9201 30.2903 32.5407 30.2903C30.8432 30.2903 29.625 31.1075 29.1856 32.4624C29.1257 32.4409 29.0658 32.4194 28.9859 32.4194H8.27663V7.45161H33.2995V24.6559C33.2995 25.3226 33.8188 25.8817 34.4378 25.8817C35.0569 25.8817 35.5762 25.3441 35.5762 24.6559V6.22581C35.5762 5.55914 35.0569 5 34.4378 5H7.13831C6.51923 5 6 5.53763 6 6.22581V33.6452C6 34.3118 6.49926 34.871 7.13831 34.871H28.9859C29.0458 34.871 29.1057 34.8495 29.1657 34.828C29.6649 36.3979 31.1427 37 32.5407 37C32.9201 37 33.2197 36.6774 33.2197 36.2688V36.0108H35.3365C35.7159 36.0108 36.0155 35.6882 36.0155 35.2796C36.0155 34.871 35.7159 34.5269 35.3365 34.5269Z" fill="black"/>
<path d="M12 26H29V22.5H12V26ZM13.7 23.375H15.4V25.125H13.7V23.375ZM12 12V15.5H29V12H12ZM15.4 14.625H13.7V12.875H15.4V14.625ZM12 20.75H29V17.25H12V20.75ZM13.7 18.125H15.4V19.875H13.7V18.125Z" fill="black"/>
</svg>
