<svg width="600" height="600" viewBox="0 0 600 600" fill="none" xmlns="http://www.w3.org/2000/svg">
<rect width="600" height="600" fill="#FAFAFA"/>
<rect x="60" y="267" width="480" height="257" rx="16" fill="#7B7F82" fill-opacity="0.07"/>
<rect x="76.5" y="283.5" width="447" height="224" rx="7.5" fill="white"/>
<rect x="76.5" y="283.5" width="447" height="224" rx="7.5" stroke="#D5D9DC"/>
<rect x="100.5" y="307.5" width="399" height="42" stroke="#D5D9DC"/>
<path d="M123.773 325.273C123.705 324.697 123.428 324.25 122.943 323.932C122.458 323.614 121.864 323.455 121.159 323.455C120.644 323.455 120.193 323.538 119.807 323.705C119.424 323.871 119.125 324.1 118.909 324.392C118.697 324.684 118.591 325.015 118.591 325.386C118.591 325.697 118.665 325.964 118.812 326.188C118.964 326.407 119.157 326.591 119.392 326.739C119.627 326.883 119.873 327.002 120.131 327.097C120.388 327.187 120.625 327.261 120.841 327.318L122.023 327.636C122.326 327.716 122.663 327.826 123.034 327.966C123.409 328.106 123.767 328.297 124.108 328.54C124.453 328.778 124.737 329.085 124.96 329.46C125.184 329.835 125.295 330.295 125.295 330.841C125.295 331.47 125.131 332.038 124.801 332.545C124.475 333.053 123.998 333.456 123.369 333.756C122.744 334.055 121.985 334.205 121.091 334.205C120.258 334.205 119.536 334.07 118.926 333.801C118.32 333.532 117.843 333.157 117.494 332.676C117.15 332.195 116.955 331.636 116.909 331H118.364C118.402 331.439 118.549 331.803 118.807 332.091C119.068 332.375 119.398 332.587 119.795 332.727C120.197 332.864 120.629 332.932 121.091 332.932C121.629 332.932 122.112 332.845 122.54 332.67C122.968 332.492 123.307 332.246 123.557 331.932C123.807 331.614 123.932 331.242 123.932 330.818C123.932 330.432 123.824 330.117 123.608 329.875C123.392 329.633 123.108 329.436 122.756 329.284C122.403 329.133 122.023 329 121.614 328.886L120.182 328.477C119.273 328.216 118.553 327.843 118.023 327.358C117.492 326.873 117.227 326.239 117.227 325.455C117.227 324.803 117.403 324.235 117.756 323.75C118.112 323.261 118.589 322.883 119.188 322.614C119.79 322.341 120.462 322.205 121.205 322.205C121.955 322.205 122.621 322.339 123.205 322.608C123.788 322.873 124.25 323.237 124.591 323.699C124.936 324.161 125.117 324.686 125.136 325.273H123.773ZM131.089 334.182C130.249 334.182 129.523 333.996 128.913 333.625C128.307 333.25 127.839 332.727 127.51 332.057C127.184 331.383 127.021 330.598 127.021 329.705C127.021 328.811 127.184 328.023 127.51 327.341C127.839 326.655 128.298 326.121 128.885 325.739C129.476 325.352 130.165 325.159 130.953 325.159C131.408 325.159 131.857 325.235 132.3 325.386C132.743 325.538 133.146 325.784 133.51 326.125C133.874 326.462 134.163 326.909 134.379 327.466C134.595 328.023 134.703 328.708 134.703 329.523V330.091H127.976V328.932H133.339C133.339 328.439 133.241 328 133.044 327.614C132.851 327.227 132.574 326.922 132.214 326.699C131.858 326.475 131.438 326.364 130.953 326.364C130.419 326.364 129.957 326.496 129.567 326.761C129.18 327.023 128.883 327.364 128.675 327.784C128.466 328.205 128.362 328.655 128.362 329.136V329.909C128.362 330.568 128.476 331.127 128.703 331.585C128.934 332.04 129.254 332.386 129.663 332.625C130.072 332.86 130.548 332.977 131.089 332.977C131.442 332.977 131.76 332.928 132.044 332.83C132.332 332.727 132.58 332.576 132.788 332.375C132.997 332.17 133.158 331.917 133.271 331.614L134.567 331.977C134.43 332.417 134.201 332.803 133.879 333.136C133.557 333.466 133.16 333.723 132.686 333.909C132.213 334.091 131.68 334.182 131.089 334.182ZM138.084 322.364V334H136.743V322.364H138.084ZM144.199 334.182C143.358 334.182 142.633 333.996 142.023 333.625C141.417 333.25 140.949 332.727 140.619 332.057C140.294 331.383 140.131 330.598 140.131 329.705C140.131 328.811 140.294 328.023 140.619 327.341C140.949 326.655 141.407 326.121 141.994 325.739C142.585 325.352 143.275 325.159 144.062 325.159C144.517 325.159 144.966 325.235 145.409 325.386C145.852 325.538 146.256 325.784 146.619 326.125C146.983 326.462 147.273 326.909 147.489 327.466C147.705 328.023 147.812 328.708 147.812 329.523V330.091H141.085V328.932H146.449C146.449 328.439 146.35 328 146.153 327.614C145.96 327.227 145.684 326.922 145.324 326.699C144.968 326.475 144.547 326.364 144.062 326.364C143.528 326.364 143.066 326.496 142.676 326.761C142.29 327.023 141.992 327.364 141.784 327.784C141.576 328.205 141.472 328.655 141.472 329.136V329.909C141.472 330.568 141.585 331.127 141.812 331.585C142.044 332.04 142.364 332.386 142.773 332.625C143.182 332.86 143.657 332.977 144.199 332.977C144.551 332.977 144.869 332.928 145.153 332.83C145.441 332.727 145.689 332.576 145.898 332.375C146.106 332.17 146.267 331.917 146.381 331.614L147.676 331.977C147.54 332.417 147.311 332.803 146.989 333.136C146.667 333.466 146.269 333.723 145.795 333.909C145.322 334.091 144.79 334.182 144.199 334.182ZM153.398 334.182C152.58 334.182 151.875 333.989 151.284 333.602C150.693 333.216 150.239 332.684 149.92 332.006C149.602 331.328 149.443 330.553 149.443 329.682C149.443 328.795 149.606 328.013 149.932 327.335C150.261 326.653 150.72 326.121 151.307 325.739C151.898 325.352 152.587 325.159 153.375 325.159C153.989 325.159 154.542 325.273 155.034 325.5C155.527 325.727 155.93 326.045 156.244 326.455C156.559 326.864 156.754 327.341 156.83 327.886H155.489C155.386 327.489 155.159 327.136 154.807 326.83C154.458 326.519 153.989 326.364 153.398 326.364C152.875 326.364 152.417 326.5 152.023 326.773C151.633 327.042 151.328 327.422 151.108 327.915C150.892 328.403 150.784 328.977 150.784 329.636C150.784 330.311 150.89 330.898 151.102 331.398C151.318 331.898 151.621 332.286 152.011 332.562C152.405 332.839 152.867 332.977 153.398 332.977C153.746 332.977 154.062 332.917 154.347 332.795C154.631 332.674 154.871 332.5 155.068 332.273C155.265 332.045 155.405 331.773 155.489 331.455H156.83C156.754 331.97 156.566 332.434 156.267 332.847C155.972 333.256 155.58 333.581 155.091 333.824C154.606 334.062 154.042 334.182 153.398 334.182ZM162.585 325.273V326.409H158.062V325.273H162.585ZM159.381 323.182H160.722V331.5C160.722 331.879 160.777 332.163 160.886 332.352C161 332.538 161.144 332.663 161.318 332.727C161.496 332.788 161.684 332.818 161.881 332.818C162.028 332.818 162.15 332.811 162.244 332.795C162.339 332.777 162.415 332.761 162.472 332.75L162.744 333.955C162.653 333.989 162.527 334.023 162.364 334.057C162.201 334.095 161.994 334.114 161.744 334.114C161.366 334.114 160.994 334.032 160.631 333.869C160.271 333.706 159.972 333.458 159.733 333.125C159.498 332.792 159.381 332.371 159.381 331.864V323.182ZM169.761 334H168.284L172.557 322.364H174.011L178.284 334H176.807L173.33 324.205H173.239L169.761 334ZM170.307 329.455H176.261V330.705H170.307V329.455ZM179.915 337.273V325.273H181.21V326.659H181.369C181.468 326.508 181.604 326.314 181.778 326.08C181.956 325.841 182.21 325.629 182.54 325.443C182.873 325.254 183.324 325.159 183.892 325.159C184.627 325.159 185.275 325.343 185.835 325.71C186.396 326.078 186.833 326.598 187.148 327.273C187.462 327.947 187.619 328.742 187.619 329.659C187.619 330.583 187.462 331.384 187.148 332.062C186.833 332.737 186.398 333.259 185.841 333.631C185.284 333.998 184.642 334.182 183.915 334.182C183.354 334.182 182.905 334.089 182.568 333.903C182.231 333.714 181.972 333.5 181.79 333.261C181.608 333.019 181.468 332.818 181.369 332.659H181.256V337.273H179.915ZM181.233 329.636C181.233 330.295 181.33 330.877 181.523 331.381C181.716 331.881 181.998 332.273 182.369 332.557C182.741 332.837 183.195 332.977 183.733 332.977C184.294 332.977 184.761 332.83 185.136 332.534C185.515 332.235 185.799 331.833 185.989 331.33C186.182 330.822 186.278 330.258 186.278 329.636C186.278 329.023 186.184 328.47 185.994 327.977C185.809 327.481 185.527 327.089 185.148 326.801C184.773 326.509 184.301 326.364 183.733 326.364C183.188 326.364 182.729 326.502 182.358 326.778C181.987 327.051 181.706 327.434 181.517 327.926C181.328 328.415 181.233 328.985 181.233 329.636ZM189.665 337.273V325.273H190.96V326.659H191.119C191.218 326.508 191.354 326.314 191.528 326.08C191.706 325.841 191.96 325.629 192.29 325.443C192.623 325.254 193.074 325.159 193.642 325.159C194.377 325.159 195.025 325.343 195.585 325.71C196.146 326.078 196.583 326.598 196.898 327.273C197.212 327.947 197.369 328.742 197.369 329.659C197.369 330.583 197.212 331.384 196.898 332.062C196.583 332.737 196.148 333.259 195.591 333.631C195.034 333.998 194.392 334.182 193.665 334.182C193.104 334.182 192.655 334.089 192.318 333.903C191.981 333.714 191.722 333.5 191.54 333.261C191.358 333.019 191.218 332.818 191.119 332.659H191.006V337.273H189.665ZM190.983 329.636C190.983 330.295 191.08 330.877 191.273 331.381C191.466 331.881 191.748 332.273 192.119 332.557C192.491 332.837 192.945 332.977 193.483 332.977C194.044 332.977 194.511 332.83 194.886 332.534C195.265 332.235 195.549 331.833 195.739 331.33C195.932 330.822 196.028 330.258 196.028 329.636C196.028 329.023 195.934 328.47 195.744 327.977C195.559 327.481 195.277 327.089 194.898 326.801C194.523 326.509 194.051 326.364 193.483 326.364C192.938 326.364 192.479 326.502 192.108 326.778C191.737 327.051 191.456 327.434 191.267 327.926C191.078 328.415 190.983 328.985 190.983 329.636ZM205.597 327.227L204.392 327.568C204.316 327.367 204.205 327.172 204.057 326.983C203.913 326.79 203.716 326.631 203.466 326.506C203.216 326.381 202.896 326.318 202.506 326.318C201.972 326.318 201.527 326.441 201.17 326.688C200.818 326.93 200.642 327.239 200.642 327.614C200.642 327.947 200.763 328.21 201.006 328.403C201.248 328.597 201.627 328.758 202.142 328.886L203.438 329.205C204.218 329.394 204.799 329.684 205.182 330.074C205.564 330.46 205.756 330.958 205.756 331.568C205.756 332.068 205.612 332.515 205.324 332.909C205.04 333.303 204.642 333.614 204.131 333.841C203.619 334.068 203.025 334.182 202.347 334.182C201.456 334.182 200.72 333.989 200.136 333.602C199.553 333.216 199.184 332.652 199.028 331.909L200.301 331.591C200.422 332.061 200.652 332.413 200.989 332.648C201.33 332.883 201.775 333 202.324 333C202.949 333 203.445 332.867 203.812 332.602C204.184 332.333 204.369 332.011 204.369 331.636C204.369 331.333 204.263 331.08 204.051 330.875C203.839 330.667 203.513 330.511 203.074 330.409L201.619 330.068C200.82 329.879 200.233 329.585 199.858 329.188C199.487 328.786 199.301 328.284 199.301 327.682C199.301 327.189 199.439 326.754 199.716 326.375C199.996 325.996 200.377 325.699 200.858 325.483C201.343 325.267 201.892 325.159 202.506 325.159C203.369 325.159 204.047 325.348 204.54 325.727C205.036 326.106 205.388 326.606 205.597 327.227Z" fill="black"/>
<path d="M478.443 325.721L475 329.156L471.557 325.721L470.5 326.779L475 331.279L479.5 326.779L478.443 325.721Z" fill="#5D6164"/>
<rect x="100.5" y="374.5" width="399" height="42" stroke="#D5D9DC"/>
<path d="M123.773 392.273C123.705 391.697 123.428 391.25 122.943 390.932C122.458 390.614 121.864 390.455 121.159 390.455C120.644 390.455 120.193 390.538 119.807 390.705C119.424 390.871 119.125 391.1 118.909 391.392C118.697 391.684 118.591 392.015 118.591 392.386C118.591 392.697 118.665 392.964 118.812 393.188C118.964 393.407 119.157 393.591 119.392 393.739C119.627 393.883 119.873 394.002 120.131 394.097C120.388 394.187 120.625 394.261 120.841 394.318L122.023 394.636C122.326 394.716 122.663 394.826 123.034 394.966C123.409 395.106 123.767 395.297 124.108 395.54C124.453 395.778 124.737 396.085 124.96 396.46C125.184 396.835 125.295 397.295 125.295 397.841C125.295 398.47 125.131 399.038 124.801 399.545C124.475 400.053 123.998 400.456 123.369 400.756C122.744 401.055 121.985 401.205 121.091 401.205C120.258 401.205 119.536 401.07 118.926 400.801C118.32 400.532 117.843 400.157 117.494 399.676C117.15 399.195 116.955 398.636 116.909 398H118.364C118.402 398.439 118.549 398.803 118.807 399.091C119.068 399.375 119.398 399.587 119.795 399.727C120.197 399.864 120.629 399.932 121.091 399.932C121.629 399.932 122.112 399.845 122.54 399.67C122.968 399.492 123.307 399.246 123.557 398.932C123.807 398.614 123.932 398.242 123.932 397.818C123.932 397.432 123.824 397.117 123.608 396.875C123.392 396.633 123.108 396.436 122.756 396.284C122.403 396.133 122.023 396 121.614 395.886L120.182 395.477C119.273 395.216 118.553 394.843 118.023 394.358C117.492 393.873 117.227 393.239 117.227 392.455C117.227 391.803 117.403 391.235 117.756 390.75C118.112 390.261 118.589 389.883 119.188 389.614C119.79 389.341 120.462 389.205 121.205 389.205C121.955 389.205 122.621 389.339 123.205 389.608C123.788 389.873 124.25 390.237 124.591 390.699C124.936 391.161 125.117 391.686 125.136 392.273H123.773ZM131.089 401.182C130.249 401.182 129.523 400.996 128.913 400.625C128.307 400.25 127.839 399.727 127.51 399.057C127.184 398.383 127.021 397.598 127.021 396.705C127.021 395.811 127.184 395.023 127.51 394.341C127.839 393.655 128.298 393.121 128.885 392.739C129.476 392.352 130.165 392.159 130.953 392.159C131.408 392.159 131.857 392.235 132.3 392.386C132.743 392.538 133.146 392.784 133.51 393.125C133.874 393.462 134.163 393.909 134.379 394.466C134.595 395.023 134.703 395.708 134.703 396.523V397.091H127.976V395.932H133.339C133.339 395.439 133.241 395 133.044 394.614C132.851 394.227 132.574 393.922 132.214 393.699C131.858 393.475 131.438 393.364 130.953 393.364C130.419 393.364 129.957 393.496 129.567 393.761C129.18 394.023 128.883 394.364 128.675 394.784C128.466 395.205 128.362 395.655 128.362 396.136V396.909C128.362 397.568 128.476 398.127 128.703 398.585C128.934 399.04 129.254 399.386 129.663 399.625C130.072 399.86 130.548 399.977 131.089 399.977C131.442 399.977 131.76 399.928 132.044 399.83C132.332 399.727 132.58 399.576 132.788 399.375C132.997 399.17 133.158 398.917 133.271 398.614L134.567 398.977C134.43 399.417 134.201 399.803 133.879 400.136C133.557 400.466 133.16 400.723 132.686 400.909C132.213 401.091 131.68 401.182 131.089 401.182ZM138.084 389.364V401H136.743V389.364H138.084ZM144.199 401.182C143.358 401.182 142.633 400.996 142.023 400.625C141.417 400.25 140.949 399.727 140.619 399.057C140.294 398.383 140.131 397.598 140.131 396.705C140.131 395.811 140.294 395.023 140.619 394.341C140.949 393.655 141.407 393.121 141.994 392.739C142.585 392.352 143.275 392.159 144.062 392.159C144.517 392.159 144.966 392.235 145.409 392.386C145.852 392.538 146.256 392.784 146.619 393.125C146.983 393.462 147.273 393.909 147.489 394.466C147.705 395.023 147.812 395.708 147.812 396.523V397.091H141.085V395.932H146.449C146.449 395.439 146.35 395 146.153 394.614C145.96 394.227 145.684 393.922 145.324 393.699C144.968 393.475 144.547 393.364 144.062 393.364C143.528 393.364 143.066 393.496 142.676 393.761C142.29 394.023 141.992 394.364 141.784 394.784C141.576 395.205 141.472 395.655 141.472 396.136V396.909C141.472 397.568 141.585 398.127 141.812 398.585C142.044 399.04 142.364 399.386 142.773 399.625C143.182 399.86 143.657 399.977 144.199 399.977C144.551 399.977 144.869 399.928 145.153 399.83C145.441 399.727 145.689 399.576 145.898 399.375C146.106 399.17 146.267 398.917 146.381 398.614L147.676 398.977C147.54 399.417 147.311 399.803 146.989 400.136C146.667 400.466 146.269 400.723 145.795 400.909C145.322 401.091 144.79 401.182 144.199 401.182ZM153.398 401.182C152.58 401.182 151.875 400.989 151.284 400.602C150.693 400.216 150.239 399.684 149.92 399.006C149.602 398.328 149.443 397.553 149.443 396.682C149.443 395.795 149.606 395.013 149.932 394.335C150.261 393.653 150.72 393.121 151.307 392.739C151.898 392.352 152.587 392.159 153.375 392.159C153.989 392.159 154.542 392.273 155.034 392.5C155.527 392.727 155.93 393.045 156.244 393.455C156.559 393.864 156.754 394.341 156.83 394.886H155.489C155.386 394.489 155.159 394.136 154.807 393.83C154.458 393.519 153.989 393.364 153.398 393.364C152.875 393.364 152.417 393.5 152.023 393.773C151.633 394.042 151.328 394.422 151.108 394.915C150.892 395.403 150.784 395.977 150.784 396.636C150.784 397.311 150.89 397.898 151.102 398.398C151.318 398.898 151.621 399.286 152.011 399.562C152.405 399.839 152.867 399.977 153.398 399.977C153.746 399.977 154.062 399.917 154.347 399.795C154.631 399.674 154.871 399.5 155.068 399.273C155.265 399.045 155.405 398.773 155.489 398.455H156.83C156.754 398.97 156.566 399.434 156.267 399.847C155.972 400.256 155.58 400.581 155.091 400.824C154.606 401.062 154.042 401.182 153.398 401.182ZM162.585 392.273V393.409H158.062V392.273H162.585ZM159.381 390.182H160.722V398.5C160.722 398.879 160.777 399.163 160.886 399.352C161 399.538 161.144 399.663 161.318 399.727C161.496 399.788 161.684 399.818 161.881 399.818C162.028 399.818 162.15 399.811 162.244 399.795C162.339 399.777 162.415 399.761 162.472 399.75L162.744 400.955C162.653 400.989 162.527 401.023 162.364 401.057C162.201 401.095 161.994 401.114 161.744 401.114C161.366 401.114 160.994 401.032 160.631 400.869C160.271 400.706 159.972 400.458 159.733 400.125C159.498 399.792 159.381 399.371 159.381 398.864V390.182ZM169.966 404.273C169.739 404.273 169.536 404.254 169.358 404.216C169.18 404.182 169.057 404.148 168.989 404.114L169.33 402.932C169.655 403.015 169.943 403.045 170.193 403.023C170.443 403 170.665 402.888 170.858 402.688C171.055 402.491 171.235 402.17 171.398 401.727L171.648 401.045L168.42 392.273H169.875L172.284 399.227H172.375L174.784 392.273H176.239L172.534 402.273C172.367 402.723 172.161 403.097 171.915 403.392C171.669 403.691 171.383 403.913 171.057 404.057C170.735 404.201 170.371 404.273 169.966 404.273ZM181.241 401.182C180.454 401.182 179.762 400.994 179.168 400.619C178.577 400.244 178.115 399.72 177.781 399.045C177.452 398.371 177.287 397.583 177.287 396.682C177.287 395.773 177.452 394.979 177.781 394.301C178.115 393.623 178.577 393.097 179.168 392.722C179.762 392.347 180.454 392.159 181.241 392.159C182.029 392.159 182.719 392.347 183.31 392.722C183.904 393.097 184.366 393.623 184.696 394.301C185.029 394.979 185.196 395.773 185.196 396.682C185.196 397.583 185.029 398.371 184.696 399.045C184.366 399.72 183.904 400.244 183.31 400.619C182.719 400.994 182.029 401.182 181.241 401.182ZM181.241 399.977C181.84 399.977 182.332 399.824 182.719 399.517C183.105 399.21 183.391 398.807 183.577 398.307C183.762 397.807 183.855 397.265 183.855 396.682C183.855 396.098 183.762 395.555 183.577 395.051C183.391 394.547 183.105 394.14 182.719 393.83C182.332 393.519 181.84 393.364 181.241 393.364C180.643 393.364 180.151 393.519 179.764 393.83C179.378 394.14 179.092 394.547 178.906 395.051C178.721 395.555 178.628 396.098 178.628 396.682C178.628 397.265 178.721 397.807 178.906 398.307C179.092 398.807 179.378 399.21 179.764 399.517C180.151 399.824 180.643 399.977 181.241 399.977ZM192.743 397.432V392.273H194.084V401H192.743V399.523H192.652C192.447 399.966 192.129 400.343 191.697 400.653C191.266 400.96 190.72 401.114 190.061 401.114C189.516 401.114 189.031 400.994 188.607 400.756C188.182 400.513 187.849 400.15 187.607 399.665C187.364 399.176 187.243 398.561 187.243 397.818V392.273H188.584V397.727C188.584 398.364 188.762 398.871 189.118 399.25C189.478 399.629 189.936 399.818 190.493 399.818C190.826 399.818 191.165 399.733 191.51 399.562C191.858 399.392 192.15 399.131 192.385 398.778C192.624 398.426 192.743 397.977 192.743 397.432ZM196.54 401V392.273H197.835V393.591H197.926C198.085 393.159 198.373 392.809 198.79 392.54C199.206 392.271 199.676 392.136 200.199 392.136C200.297 392.136 200.42 392.138 200.568 392.142C200.716 392.146 200.828 392.152 200.903 392.159V393.523C200.858 393.511 200.754 393.494 200.591 393.472C200.432 393.445 200.263 393.432 200.085 393.432C199.661 393.432 199.282 393.521 198.949 393.699C198.619 393.873 198.358 394.116 198.165 394.426C197.975 394.733 197.881 395.083 197.881 395.477V401H196.54ZM206.993 401V392.273H208.334V401H206.993ZM207.675 390.818C207.413 390.818 207.188 390.729 206.999 390.551C206.813 390.373 206.72 390.159 206.72 389.909C206.72 389.659 206.813 389.445 206.999 389.267C207.188 389.089 207.413 389 207.675 389C207.936 389 208.16 389.089 208.345 389.267C208.535 389.445 208.629 389.659 208.629 389.909C208.629 390.159 208.535 390.373 208.345 390.551C208.16 390.729 207.936 390.818 207.675 390.818ZM212.131 395.75V401H210.79V392.273H212.085V393.636H212.199C212.403 393.193 212.714 392.837 213.131 392.568C213.547 392.295 214.085 392.159 214.744 392.159C215.335 392.159 215.852 392.28 216.295 392.523C216.739 392.761 217.083 393.125 217.33 393.614C217.576 394.098 217.699 394.712 217.699 395.455V401H216.358V395.545C216.358 394.86 216.18 394.326 215.824 393.943C215.468 393.557 214.979 393.364 214.358 393.364C213.93 393.364 213.547 393.456 213.21 393.642C212.877 393.828 212.614 394.098 212.42 394.455C212.227 394.811 212.131 395.242 212.131 395.75ZM223.445 401.182C222.717 401.182 222.075 400.998 221.518 400.631C220.962 400.259 220.526 399.737 220.212 399.062C219.897 398.384 219.74 397.583 219.74 396.659C219.74 395.742 219.897 394.947 220.212 394.273C220.526 393.598 220.964 393.078 221.524 392.71C222.085 392.343 222.732 392.159 223.467 392.159C224.036 392.159 224.484 392.254 224.814 392.443C225.147 392.629 225.401 392.841 225.575 393.08C225.753 393.314 225.892 393.508 225.99 393.659H226.104V389.364H227.445V401H226.149V399.659H225.99C225.892 399.818 225.751 400.019 225.57 400.261C225.388 400.5 225.128 400.714 224.791 400.903C224.454 401.089 224.005 401.182 223.445 401.182ZM223.626 399.977C224.164 399.977 224.619 399.837 224.99 399.557C225.361 399.273 225.643 398.881 225.837 398.381C226.03 397.877 226.126 397.295 226.126 396.636C226.126 395.985 226.032 395.415 225.842 394.926C225.653 394.434 225.373 394.051 225.001 393.778C224.63 393.502 224.172 393.364 223.626 393.364C223.058 393.364 222.585 393.509 222.206 393.801C221.831 394.089 221.549 394.481 221.359 394.977C221.174 395.47 221.081 396.023 221.081 396.636C221.081 397.258 221.176 397.822 221.365 398.33C221.558 398.833 221.842 399.235 222.217 399.534C222.596 399.83 223.066 399.977 223.626 399.977ZM235.587 397.432V392.273H236.928V401H235.587V399.523H235.496C235.291 399.966 234.973 400.343 234.541 400.653C234.109 400.96 233.564 401.114 232.905 401.114C232.359 401.114 231.875 400.994 231.45 400.756C231.026 400.513 230.693 400.15 230.45 399.665C230.208 399.176 230.087 398.561 230.087 397.818V392.273H231.428V397.727C231.428 398.364 231.606 398.871 231.962 399.25C232.321 399.629 232.78 399.818 233.337 399.818C233.67 399.818 234.009 399.733 234.354 399.562C234.702 399.392 234.994 399.131 235.229 398.778C235.467 398.426 235.587 397.977 235.587 397.432ZM245.565 394.227L244.361 394.568C244.285 394.367 244.173 394.172 244.026 393.983C243.882 393.79 243.685 393.631 243.435 393.506C243.185 393.381 242.865 393.318 242.474 393.318C241.94 393.318 241.495 393.441 241.139 393.688C240.787 393.93 240.611 394.239 240.611 394.614C240.611 394.947 240.732 395.21 240.974 395.403C241.217 395.597 241.596 395.758 242.111 395.886L243.406 396.205C244.187 396.394 244.768 396.684 245.151 397.074C245.533 397.46 245.724 397.958 245.724 398.568C245.724 399.068 245.58 399.515 245.293 399.909C245.009 400.303 244.611 400.614 244.099 400.841C243.588 401.068 242.993 401.182 242.315 401.182C241.425 401.182 240.688 400.989 240.105 400.602C239.522 400.216 239.152 399.652 238.997 398.909L240.27 398.591C240.391 399.061 240.62 399.413 240.957 399.648C241.298 399.883 241.743 400 242.293 400C242.918 400 243.414 399.867 243.781 399.602C244.152 399.333 244.338 399.011 244.338 398.636C244.338 398.333 244.232 398.08 244.02 397.875C243.808 397.667 243.482 397.511 243.043 397.409L241.588 397.068C240.789 396.879 240.202 396.585 239.827 396.188C239.455 395.786 239.27 395.284 239.27 394.682C239.27 394.189 239.408 393.754 239.685 393.375C239.965 392.996 240.346 392.699 240.827 392.483C241.312 392.267 241.861 392.159 242.474 392.159C243.338 392.159 244.016 392.348 244.509 392.727C245.005 393.106 245.357 393.606 245.565 394.227ZM251.538 392.273V393.409H247.016V392.273H251.538ZM248.334 390.182H249.675V398.5C249.675 398.879 249.73 399.163 249.839 399.352C249.953 399.538 250.097 399.663 250.271 399.727C250.449 399.788 250.637 399.818 250.834 399.818C250.982 399.818 251.103 399.811 251.197 399.795C251.292 399.777 251.368 399.761 251.425 399.75L251.697 400.955C251.607 400.989 251.48 401.023 251.317 401.057C251.154 401.095 250.947 401.114 250.697 401.114C250.319 401.114 249.947 401.032 249.584 400.869C249.224 400.706 248.925 400.458 248.686 400.125C248.451 399.792 248.334 399.371 248.334 398.864V390.182ZM253.555 401V392.273H254.851V393.591H254.942C255.101 393.159 255.389 392.809 255.805 392.54C256.222 392.271 256.692 392.136 257.214 392.136C257.313 392.136 257.436 392.138 257.584 392.142C257.732 392.146 257.843 392.152 257.919 392.159V393.523C257.874 393.511 257.769 393.494 257.607 393.472C257.447 393.445 257.279 393.432 257.101 393.432C256.677 393.432 256.298 393.521 255.964 393.699C255.635 393.873 255.374 394.116 255.18 394.426C254.991 394.733 254.896 395.083 254.896 395.477V401H253.555ZM260.638 404.273C260.411 404.273 260.208 404.254 260.03 404.216C259.852 404.182 259.729 404.148 259.661 404.114L260.001 402.932C260.327 403.015 260.615 403.045 260.865 403.023C261.115 403 261.337 402.888 261.53 402.688C261.727 402.491 261.907 402.17 262.07 401.727L262.32 401.045L259.092 392.273H260.547L262.956 399.227H263.047L265.456 392.273H266.911L263.206 402.273C263.039 402.723 262.833 403.097 262.587 403.392C262.34 403.691 262.054 403.913 261.729 404.057C261.407 404.201 261.043 404.273 260.638 404.273Z" fill="black"/>
<path d="M478.443 392.721L475 396.156L471.557 392.721L470.5 393.779L475 398.279L479.5 393.779L478.443 392.721Z" fill="#5D6164"/>
<rect x="100.5" y="441.5" width="80" height="42" fill="black"/>
<rect x="100.5" y="441.5" width="80" height="42" stroke="#D5D9DC"/>
<path d="M118.261 468H116.398L120.585 456.364H122.614L126.801 468H124.938L121.648 458.477H121.557L118.261 468ZM118.574 463.443H124.619V464.92H118.574V463.443ZM134.822 461.403L133.283 461.676C133.218 461.479 133.116 461.292 132.976 461.114C132.839 460.936 132.654 460.79 132.419 460.676C132.184 460.562 131.891 460.506 131.538 460.506C131.057 460.506 130.656 460.614 130.334 460.83C130.012 461.042 129.851 461.316 129.851 461.653C129.851 461.945 129.959 462.18 130.175 462.358C130.391 462.536 130.739 462.682 131.22 462.795L132.607 463.114C133.41 463.299 134.008 463.585 134.402 463.972C134.796 464.358 134.993 464.86 134.993 465.477C134.993 466 134.841 466.466 134.538 466.875C134.239 467.28 133.821 467.598 133.283 467.83C132.749 468.061 132.129 468.176 131.425 468.176C130.447 468.176 129.65 467.968 129.033 467.551C128.415 467.131 128.036 466.534 127.896 465.761L129.538 465.511C129.641 465.939 129.851 466.263 130.169 466.483C130.487 466.699 130.902 466.807 131.413 466.807C131.97 466.807 132.415 466.691 132.749 466.46C133.082 466.225 133.249 465.939 133.249 465.602C133.249 465.33 133.146 465.1 132.942 464.915C132.741 464.729 132.432 464.589 132.016 464.494L130.538 464.17C129.724 463.985 129.122 463.689 128.732 463.284C128.345 462.879 128.152 462.366 128.152 461.744C128.152 461.229 128.296 460.778 128.584 460.392C128.872 460.006 129.269 459.705 129.777 459.489C130.285 459.269 130.866 459.159 131.521 459.159C132.464 459.159 133.207 459.364 133.749 459.773C134.29 460.178 134.648 460.722 134.822 461.403ZM138.423 465.04L138.412 462.966H138.707L142.185 459.273H144.219L140.253 463.477H139.986L138.423 465.04ZM136.861 468V456.364H138.56V468H136.861ZM142.372 468L139.247 463.852L140.418 462.665L144.457 468H142.372ZM151.121 468H149.257L153.445 456.364H155.473L159.661 468H157.797L154.507 458.477H154.416L151.121 468ZM151.433 463.443H157.479V464.92H151.433V463.443ZM163.097 456.364V468H161.341V456.364H163.097Z" fill="white"/>
<path d="M64.6236 106H60.6861L67.8551 85.6364H72.4091L79.5881 106H75.6506L70.2116 89.8126H70.0526L64.6236 106ZM64.7528 98.0157H75.4915V100.979H64.7528V98.0157ZM93.9361 94.7643L90.6548 95.1222C90.562 94.7908 90.3996 94.4792 90.1676 94.1876C89.9422 93.8959 89.6373 93.6606 89.2528 93.4816C88.8684 93.3026 88.3977 93.2131 87.8409 93.2131C87.0919 93.2131 86.4621 93.3755 85.9517 93.7003C85.4479 94.0252 85.1993 94.4461 85.206 94.9631C85.1993 95.4073 85.3617 95.7685 85.6932 96.0469C86.0313 96.3253 86.5881 96.554 87.3636 96.733L89.9688 97.2898C91.4138 97.6014 92.4877 98.0952 93.1903 98.7714C93.8996 99.4475 94.2576 100.332 94.2642 101.426C94.2576 102.387 93.9759 103.236 93.419 103.972C92.8688 104.701 92.1032 105.271 91.1222 105.682C90.1411 106.093 89.0142 106.298 87.7415 106.298C85.8722 106.298 84.3674 105.907 83.2273 105.125C82.0871 104.336 81.4077 103.239 81.1889 101.834L84.6989 101.496C84.858 102.185 85.196 102.706 85.7131 103.057C86.2301 103.408 86.9029 103.584 87.7315 103.584C88.5866 103.584 89.2727 103.408 89.7898 103.057C90.3134 102.706 90.5753 102.271 90.5753 101.754C90.5753 101.317 90.4063 100.956 90.0682 100.671C89.7367 100.385 89.2197 100.167 88.517 100.014L85.9119 99.4674C84.447 99.1625 83.3632 98.6487 82.6605 97.9262C81.9579 97.197 81.6098 96.2756 81.6165 95.162C81.6098 94.2207 81.8651 93.4054 82.3821 92.716C82.9058 92.0199 83.6316 91.483 84.5597 91.1052C85.4943 90.7207 86.5715 90.5285 87.7912 90.5285C89.581 90.5285 90.9896 90.9096 92.017 91.6719C93.0511 92.4342 93.6908 93.465 93.9361 94.7643ZM100.513 101.207L100.504 96.8623H101.08L106.569 90.7273H110.775L104.023 98.2444H103.278L100.513 101.207ZM97.2322 106V85.6364H100.832V106H97.2322ZM106.817 106L101.846 99.0498L104.272 96.5143L111.123 106H106.817ZM122.893 106H118.956L126.125 85.6364H130.679L137.858 106H133.92L128.481 89.8126H128.322L122.893 106ZM123.022 98.0157H133.761V100.979H123.022V98.0157ZM144.229 85.6364V106H140.54V85.6364H144.229ZM152.29 103.216L152.161 104.31C152.068 105.145 151.902 105.993 151.664 106.855C151.432 107.724 151.186 108.522 150.928 109.251C150.669 109.981 150.461 110.554 150.301 110.972H147.875C147.968 110.567 148.094 110.017 148.253 109.321C148.419 108.625 148.578 107.843 148.73 106.974C148.883 106.106 148.986 105.224 149.039 104.33L149.108 103.216H152.29ZM61.1136 130.729V127.636H77.3608V130.729H71.0668V148H67.4077V130.729H61.1136ZM84.7809 148.298C83.2894 148.298 81.9968 147.97 80.9031 147.314C79.8093 146.658 78.9608 145.74 78.3576 144.56C77.761 143.38 77.4627 142.001 77.4627 140.423C77.4627 138.846 77.761 137.464 78.3576 136.277C78.9608 135.09 79.8093 134.169 80.9031 133.513C81.9968 132.857 83.2894 132.528 84.7809 132.528C86.2724 132.528 87.565 132.857 88.6587 133.513C89.7525 134.169 90.5977 135.09 91.1942 136.277C91.7975 137.464 92.0991 138.846 92.0991 140.423C92.0991 142.001 91.7975 143.38 91.1942 144.56C90.5977 145.74 89.7525 146.658 88.6587 147.314C87.565 147.97 86.2724 148.298 84.7809 148.298ZM84.8008 145.415C85.6095 145.415 86.2856 145.193 86.8292 144.749C87.3728 144.298 87.7771 143.695 88.0423 142.939C88.314 142.183 88.4499 141.341 88.4499 140.413C88.4499 139.479 88.314 138.634 88.0423 137.878C87.7771 137.116 87.3728 136.509 86.8292 136.058C86.2856 135.608 85.6095 135.382 84.8008 135.382C83.9722 135.382 83.2828 135.608 82.7326 136.058C82.189 136.509 81.7814 137.116 81.5096 137.878C81.2444 138.634 81.1119 139.479 81.1119 140.413C81.1119 141.341 81.2444 142.183 81.5096 142.939C81.7814 143.695 82.189 144.298 82.7326 144.749C83.2828 145.193 83.9722 145.415 84.8008 145.415ZM109.835 132.727V135.511H100.807V132.727H109.835ZM103.064 148V131.286C103.064 130.258 103.276 129.403 103.7 128.72C104.131 128.037 104.708 127.527 105.43 127.189C106.153 126.851 106.955 126.682 107.837 126.682C108.46 126.682 109.013 126.732 109.497 126.831C109.981 126.93 110.339 127.02 110.571 127.099L109.855 129.884C109.703 129.837 109.51 129.791 109.278 129.744C109.046 129.691 108.788 129.665 108.503 129.665C107.833 129.665 107.359 129.827 107.081 130.152C106.809 130.47 106.673 130.928 106.673 131.524V148H103.064ZM112.654 148V132.727H116.254V148H112.654ZM114.464 130.56C113.894 130.56 113.403 130.371 112.992 129.993C112.581 129.608 112.376 129.148 112.376 128.611C112.376 128.067 112.581 127.607 112.992 127.229C113.403 126.844 113.894 126.652 114.464 126.652C115.04 126.652 115.531 126.844 115.935 127.229C116.346 127.607 116.552 128.067 116.552 128.611C116.552 129.148 116.346 129.608 115.935 129.993C115.531 130.371 115.04 130.56 114.464 130.56ZM123.554 139.051V148H119.955V132.727H123.395V135.323H123.574C123.926 134.467 124.486 133.788 125.255 133.284C126.03 132.78 126.988 132.528 128.128 132.528C129.182 132.528 130.1 132.754 130.882 133.205C131.671 133.655 132.281 134.308 132.712 135.163C133.15 136.019 133.365 137.056 133.358 138.276V148H129.759V138.832C129.759 137.812 129.494 137.013 128.963 136.436C128.44 135.859 127.714 135.571 126.786 135.571C126.156 135.571 125.596 135.71 125.105 135.989C124.622 136.26 124.24 136.655 123.962 137.172C123.69 137.689 123.554 138.315 123.554 139.051ZM142.685 148.269C141.485 148.269 140.411 147.96 139.463 147.344C138.516 146.727 137.766 145.832 137.216 144.659C136.666 143.486 136.391 142.061 136.391 140.384C136.391 138.687 136.669 137.255 137.226 136.088C137.79 134.915 138.549 134.03 139.503 133.433C140.458 132.83 141.522 132.528 142.695 132.528C143.59 132.528 144.326 132.681 144.902 132.986C145.479 133.284 145.936 133.645 146.275 134.07C146.613 134.487 146.874 134.882 147.06 135.253H147.209V127.636H150.819V148H147.279V145.594H147.06C146.874 145.965 146.606 146.359 146.255 146.777C145.903 147.188 145.439 147.539 144.863 147.831C144.286 148.123 143.56 148.269 142.685 148.269ZM143.689 145.315C144.452 145.315 145.101 145.11 145.638 144.699C146.175 144.281 146.583 143.701 146.861 142.959C147.14 142.216 147.279 141.351 147.279 140.364C147.279 139.376 147.14 138.518 146.861 137.788C146.589 137.059 146.185 136.492 145.648 136.088C145.118 135.684 144.465 135.482 143.689 135.482C142.887 135.482 142.218 135.69 141.681 136.108C141.144 136.526 140.739 137.102 140.468 137.838C140.196 138.574 140.06 139.416 140.06 140.364C140.06 141.318 140.196 142.17 140.468 142.919C140.746 143.662 141.154 144.248 141.691 144.679C142.234 145.103 142.9 145.315 143.689 145.315ZM168.261 148.298C166.77 148.298 165.477 147.97 164.384 147.314C163.29 146.658 162.441 145.74 161.838 144.56C161.241 143.38 160.943 142.001 160.943 140.423C160.943 138.846 161.241 137.464 161.838 136.277C162.441 135.09 163.29 134.169 164.384 133.513C165.477 132.857 166.77 132.528 168.261 132.528C169.753 132.528 171.045 132.857 172.139 133.513C173.233 134.169 174.078 135.09 174.675 136.277C175.278 137.464 175.58 138.846 175.58 140.423C175.58 142.001 175.278 143.38 174.675 144.56C174.078 145.74 173.233 146.658 172.139 147.314C171.045 147.97 169.753 148.298 168.261 148.298ZM168.281 145.415C169.09 145.415 169.766 145.193 170.31 144.749C170.853 144.298 171.258 143.695 171.523 142.939C171.795 142.183 171.93 141.341 171.93 140.413C171.93 139.479 171.795 138.634 171.523 137.878C171.258 137.116 170.853 136.509 170.31 136.058C169.766 135.608 169.09 135.382 168.281 135.382C167.453 135.382 166.763 135.608 166.213 136.058C165.67 136.509 165.262 137.116 164.99 137.878C164.725 138.634 164.592 139.479 164.592 140.413C164.592 141.341 164.725 142.183 164.99 142.939C165.262 143.695 165.67 144.298 166.213 144.749C166.763 145.193 167.453 145.415 168.281 145.415ZM188.369 141.577V132.727H191.968V148H188.478V145.286H188.319C187.975 146.141 187.408 146.84 186.619 147.384C185.837 147.927 184.872 148.199 183.725 148.199C182.725 148.199 181.84 147.977 181.071 147.533C180.308 147.082 179.712 146.429 179.281 145.574C178.85 144.712 178.635 143.671 178.635 142.452V132.727H182.234V141.895C182.234 142.863 182.499 143.632 183.029 144.202C183.56 144.772 184.256 145.057 185.118 145.057C185.648 145.057 186.162 144.928 186.659 144.669C187.156 144.411 187.564 144.026 187.882 143.516C188.207 142.999 188.369 142.352 188.369 141.577ZM203.296 132.727V135.511H194.516V132.727H203.296ZM196.684 129.068H200.283V143.406C200.283 143.89 200.356 144.261 200.502 144.52C200.655 144.772 200.853 144.944 201.099 145.037C201.344 145.13 201.616 145.176 201.914 145.176C202.139 145.176 202.345 145.16 202.531 145.126C202.723 145.093 202.869 145.064 202.968 145.037L203.575 147.851C203.382 147.917 203.107 147.99 202.749 148.07C202.398 148.149 201.967 148.196 201.457 148.209C200.555 148.235 199.743 148.099 199.021 147.801C198.298 147.496 197.725 147.026 197.3 146.389C196.883 145.753 196.677 144.957 196.684 144.003V129.068ZM217.647 148.308C216.679 148.308 215.807 148.136 215.032 147.791C214.263 147.44 213.653 146.923 213.202 146.24C212.758 145.557 212.536 144.715 212.536 143.715C212.536 142.853 212.695 142.14 213.013 141.577C213.331 141.013 213.766 140.563 214.316 140.224C214.866 139.886 215.486 139.631 216.175 139.459C216.871 139.28 217.59 139.151 218.333 139.071C219.228 138.978 219.953 138.895 220.51 138.823C221.067 138.743 221.471 138.624 221.723 138.465C221.982 138.299 222.111 138.044 222.111 137.699V137.639C222.111 136.89 221.889 136.31 221.445 135.899C221.001 135.488 220.361 135.283 219.526 135.283C218.644 135.283 217.945 135.475 217.428 135.859C216.917 136.244 216.573 136.698 216.394 137.222L213.033 136.744C213.298 135.816 213.736 135.041 214.346 134.418C214.955 133.788 215.701 133.317 216.583 133.006C217.464 132.688 218.439 132.528 219.506 132.528C220.242 132.528 220.974 132.615 221.703 132.787C222.433 132.959 223.099 133.244 223.702 133.642C224.305 134.033 224.789 134.567 225.154 135.243C225.525 135.919 225.711 136.764 225.711 137.778V148H222.25V145.902H222.131C221.912 146.326 221.604 146.724 221.206 147.095C220.815 147.46 220.321 147.755 219.725 147.98C219.135 148.199 218.442 148.308 217.647 148.308ZM218.581 145.663C219.304 145.663 219.93 145.521 220.461 145.236C220.991 144.944 221.399 144.56 221.684 144.082C221.975 143.605 222.121 143.085 222.121 142.521V140.722C222.008 140.814 221.816 140.901 221.544 140.98C221.279 141.06 220.981 141.129 220.65 141.189C220.318 141.249 219.99 141.302 219.665 141.348C219.34 141.394 219.059 141.434 218.82 141.467C218.283 141.54 217.802 141.66 217.378 141.825C216.954 141.991 216.619 142.223 216.374 142.521C216.129 142.813 216.006 143.191 216.006 143.655C216.006 144.318 216.248 144.818 216.732 145.156C217.216 145.494 217.832 145.663 218.581 145.663ZM232.929 127.636V148H229.33V127.636H232.929ZM240.23 127.636V148H236.631V127.636H240.23ZM258.503 132.727V135.511H249.723V132.727H258.503ZM251.891 129.068H255.49V143.406C255.49 143.89 255.563 144.261 255.709 144.52C255.862 144.772 256.06 144.944 256.306 145.037C256.551 145.13 256.823 145.176 257.121 145.176C257.346 145.176 257.552 145.16 257.738 145.126C257.93 145.093 258.076 145.064 258.175 145.037L258.782 147.851C258.589 147.917 258.314 147.99 257.956 148.07C257.605 148.149 257.174 148.196 256.664 148.209C255.762 148.235 254.95 148.099 254.228 147.801C253.505 147.496 252.932 147.026 252.507 146.389C252.09 145.753 251.884 144.957 251.891 144.003V129.068ZM265.441 139.051V148H261.842V127.636H265.362V135.323H265.54C265.898 134.461 266.452 133.781 267.201 133.284C267.957 132.78 268.918 132.528 270.085 132.528C271.145 132.528 272.07 132.751 272.859 133.195C273.647 133.639 274.257 134.288 274.688 135.144C275.126 135.999 275.344 137.043 275.344 138.276V148H271.745V138.832C271.745 137.805 271.48 137.006 270.95 136.436C270.426 135.859 269.69 135.571 268.742 135.571C268.106 135.571 267.536 135.71 267.032 135.989C266.535 136.26 266.144 136.655 265.859 137.172C265.58 137.689 265.441 138.315 265.441 139.051ZM285.775 148.298C284.244 148.298 282.921 147.98 281.808 147.344C280.701 146.701 279.849 145.793 279.252 144.619C278.656 143.439 278.357 142.051 278.357 140.453C278.357 138.882 278.656 137.503 279.252 136.317C279.855 135.124 280.697 134.196 281.778 133.533C282.858 132.863 284.128 132.528 285.586 132.528C286.527 132.528 287.415 132.681 288.251 132.986C289.093 133.284 289.835 133.748 290.478 134.378C291.128 135.008 291.638 135.81 292.009 136.784C292.38 137.752 292.566 138.905 292.566 140.244V141.348H280.048V138.922H289.116C289.109 138.233 288.96 137.619 288.668 137.082C288.377 136.539 287.969 136.111 287.445 135.8C286.928 135.488 286.325 135.332 285.636 135.332C284.9 135.332 284.254 135.511 283.697 135.869C283.14 136.221 282.706 136.685 282.394 137.261C282.089 137.831 281.933 138.458 281.927 139.141V141.259C281.927 142.147 282.089 142.909 282.414 143.546C282.739 144.175 283.193 144.659 283.776 144.997C284.36 145.329 285.042 145.494 285.825 145.494C286.348 145.494 286.822 145.421 287.246 145.276C287.671 145.123 288.039 144.901 288.35 144.609C288.662 144.318 288.897 143.957 289.056 143.526L292.417 143.903C292.205 144.792 291.8 145.567 291.204 146.23C290.614 146.886 289.858 147.397 288.937 147.761C288.015 148.119 286.961 148.298 285.775 148.298ZM236.576 183.577V174.727H240.175V190H236.685V187.286H236.526C236.182 188.141 235.615 188.84 234.826 189.384C234.044 189.927 233.079 190.199 231.933 190.199C230.932 190.199 230.047 189.977 229.278 189.533C228.515 189.082 227.919 188.429 227.488 187.574C227.057 186.712 226.842 185.671 226.842 184.452V174.727H230.441V183.895C230.441 184.863 230.706 185.632 231.237 186.202C231.767 186.772 232.463 187.057 233.325 187.057C233.855 187.057 234.369 186.928 234.866 186.669C235.363 186.411 235.771 186.026 236.089 185.516C236.414 184.999 236.576 184.352 236.576 183.577ZM255.948 178.764L252.667 179.122C252.574 178.791 252.411 178.479 252.179 178.188C251.954 177.896 251.649 177.661 251.265 177.482C250.88 177.303 250.409 177.213 249.853 177.213C249.104 177.213 248.474 177.376 247.963 177.7C247.46 178.025 247.211 178.446 247.218 178.963C247.211 179.407 247.373 179.769 247.705 180.047C248.043 180.325 248.6 180.554 249.375 180.733L251.98 181.29C253.426 181.601 254.499 182.095 255.202 182.771C255.911 183.448 256.269 184.332 256.276 185.426C256.269 186.387 255.988 187.236 255.431 187.972C254.881 188.701 254.115 189.271 253.134 189.682C252.153 190.093 251.026 190.298 249.753 190.298C247.884 190.298 246.379 189.907 245.239 189.125C244.099 188.336 243.419 187.239 243.201 185.834L246.711 185.496C246.87 186.185 247.208 186.706 247.725 187.057C248.242 187.408 248.915 187.584 249.743 187.584C250.598 187.584 251.284 187.408 251.801 187.057C252.325 186.706 252.587 186.271 252.587 185.754C252.587 185.317 252.418 184.956 252.08 184.671C251.748 184.385 251.231 184.167 250.529 184.014L247.924 183.467C246.459 183.162 245.375 182.649 244.672 181.926C243.97 181.197 243.622 180.276 243.628 179.162C243.622 178.221 243.877 177.405 244.394 176.716C244.917 176.02 245.643 175.483 246.571 175.105C247.506 174.721 248.583 174.528 249.803 174.528C251.593 174.528 253.001 174.91 254.029 175.672C255.063 176.434 255.703 177.465 255.948 178.764ZM266.005 190.298C264.474 190.298 263.152 189.98 262.038 189.344C260.931 188.701 260.079 187.793 259.483 186.619C258.886 185.439 258.588 184.051 258.588 182.453C258.588 180.882 258.886 179.503 259.483 178.317C260.086 177.124 260.928 176.196 262.008 175.533C263.089 174.863 264.358 174.528 265.816 174.528C266.758 174.528 267.646 174.681 268.481 174.986C269.323 175.284 270.065 175.748 270.708 176.378C271.358 177.008 271.868 177.81 272.24 178.784C272.611 179.752 272.797 180.905 272.797 182.244V183.348H260.278V180.922H269.346C269.34 180.233 269.19 179.619 268.899 179.082C268.607 178.539 268.199 178.111 267.676 177.8C267.159 177.488 266.556 177.332 265.866 177.332C265.13 177.332 264.484 177.511 263.927 177.869C263.37 178.221 262.936 178.685 262.625 179.261C262.32 179.831 262.164 180.458 262.157 181.141V183.259C262.157 184.147 262.32 184.909 262.645 185.546C262.969 186.175 263.423 186.659 264.007 186.997C264.59 187.329 265.273 187.494 266.055 187.494C266.579 187.494 267.053 187.421 267.477 187.276C267.901 187.123 268.269 186.901 268.581 186.609C268.892 186.318 269.127 185.957 269.287 185.526L272.647 185.903C272.435 186.792 272.031 187.567 271.434 188.23C270.844 188.886 270.089 189.397 269.167 189.761C268.246 190.119 267.192 190.298 266.005 190.298ZM289.449 190.298C287.924 190.298 286.615 189.964 285.521 189.294C284.434 188.625 283.596 187.7 283.006 186.52C282.422 185.333 282.131 183.968 282.131 182.423C282.131 180.872 282.429 179.503 283.026 178.317C283.622 177.124 284.464 176.196 285.551 175.533C286.645 174.863 287.938 174.528 289.429 174.528C290.669 174.528 291.766 174.757 292.72 175.215C293.681 175.665 294.447 176.305 295.017 177.134C295.587 177.956 295.912 178.917 295.991 180.017H292.551C292.412 179.281 292.08 178.668 291.557 178.178C291.04 177.68 290.347 177.432 289.479 177.432C288.743 177.432 288.097 177.631 287.54 178.028C286.983 178.42 286.549 178.983 286.237 179.719C285.932 180.455 285.78 181.336 285.78 182.364C285.78 183.404 285.932 184.299 286.237 185.048C286.542 185.791 286.97 186.364 287.52 186.769C288.077 187.166 288.73 187.365 289.479 187.365C290.009 187.365 290.483 187.266 290.901 187.067C291.325 186.861 291.679 186.566 291.964 186.182C292.25 185.797 292.445 185.33 292.551 184.78H295.991C295.905 185.86 295.587 186.818 295.037 187.653C294.487 188.482 293.738 189.132 292.79 189.602C291.842 190.066 290.728 190.298 289.449 190.298ZM303.342 190.308C302.374 190.308 301.502 190.136 300.727 189.791C299.958 189.44 299.348 188.923 298.897 188.24C298.453 187.557 298.231 186.715 298.231 185.715C298.231 184.853 298.39 184.14 298.708 183.577C299.027 183.013 299.461 182.563 300.011 182.224C300.561 181.886 301.181 181.631 301.87 181.459C302.566 181.28 303.286 181.151 304.028 181.071C304.923 180.978 305.649 180.895 306.206 180.823C306.762 180.743 307.167 180.624 307.419 180.465C307.677 180.299 307.806 180.044 307.806 179.699V179.639C307.806 178.89 307.584 178.31 307.14 177.899C306.696 177.488 306.056 177.283 305.221 177.283C304.34 177.283 303.64 177.475 303.123 177.859C302.613 178.244 302.268 178.698 302.089 179.222L298.728 178.744C298.993 177.816 299.431 177.041 300.041 176.418C300.651 175.788 301.396 175.317 302.278 175.006C303.16 174.688 304.134 174.528 305.201 174.528C305.937 174.528 306.67 174.615 307.399 174.787C308.128 174.959 308.794 175.244 309.397 175.642C310.001 176.033 310.484 176.567 310.849 177.243C311.22 177.919 311.406 178.764 311.406 179.778V190H307.946V187.902H307.826C307.608 188.326 307.299 188.724 306.902 189.095C306.511 189.46 306.017 189.755 305.42 189.98C304.83 190.199 304.137 190.308 303.342 190.308ZM304.277 187.663C304.999 187.663 305.626 187.521 306.156 187.236C306.686 186.944 307.094 186.56 307.379 186.082C307.671 185.605 307.816 185.085 307.816 184.521V182.722C307.704 182.814 307.511 182.901 307.24 182.98C306.975 183.06 306.676 183.129 306.345 183.189C306.013 183.249 305.685 183.302 305.36 183.348C305.036 183.394 304.754 183.434 304.515 183.467C303.978 183.54 303.498 183.66 303.074 183.825C302.649 183.991 302.315 184.223 302.069 184.521C301.824 184.813 301.701 185.191 301.701 185.655C301.701 186.318 301.943 186.818 302.427 187.156C302.911 187.494 303.528 187.663 304.277 187.663ZM327.096 178.764L323.815 179.122C323.722 178.791 323.56 178.479 323.328 178.188C323.102 177.896 322.797 177.661 322.413 177.482C322.029 177.303 321.558 177.213 321.001 177.213C320.252 177.213 319.622 177.376 319.112 177.7C318.608 178.025 318.359 178.446 318.366 178.963C318.359 179.407 318.522 179.769 318.853 180.047C319.191 180.325 319.748 180.554 320.524 180.733L323.129 181.29C324.574 181.601 325.648 182.095 326.35 182.771C327.06 183.448 327.418 184.332 327.424 185.426C327.418 186.387 327.136 187.236 326.579 187.972C326.029 188.701 325.263 189.271 324.282 189.682C323.301 190.093 322.174 190.298 320.902 190.298C319.032 190.298 317.528 189.907 316.387 189.125C315.247 188.336 314.568 187.239 314.349 185.834L317.859 185.496C318.018 186.185 318.356 186.706 318.873 187.057C319.39 187.408 320.063 187.584 320.892 187.584C321.747 187.584 322.433 187.408 322.95 187.057C323.474 186.706 323.735 186.271 323.735 185.754C323.735 185.317 323.566 184.956 323.228 184.671C322.897 184.385 322.38 184.167 321.677 184.014L319.072 183.467C317.607 183.162 316.523 182.649 315.821 181.926C315.118 181.197 314.77 180.276 314.777 179.162C314.77 178.221 315.025 177.405 315.542 176.716C316.066 176.02 316.792 175.483 317.72 175.105C318.654 174.721 319.732 174.528 320.951 174.528C322.741 174.528 324.15 174.91 325.177 175.672C326.211 176.434 326.851 177.465 327.096 178.764ZM337.154 190.298C335.623 190.298 334.3 189.98 333.186 189.344C332.079 188.701 331.228 187.793 330.631 186.619C330.034 185.439 329.736 184.051 329.736 182.453C329.736 180.882 330.034 179.503 330.631 178.317C331.234 177.124 332.076 176.196 333.157 175.533C334.237 174.863 335.507 174.528 336.965 174.528C337.906 174.528 338.794 174.681 339.63 174.986C340.471 175.284 341.214 175.748 341.857 176.378C342.507 177.008 343.017 177.81 343.388 178.784C343.759 179.752 343.945 180.905 343.945 182.244V183.348H331.426V180.922H340.495C340.488 180.233 340.339 179.619 340.047 179.082C339.756 178.539 339.348 178.111 338.824 177.8C338.307 177.488 337.704 177.332 337.015 177.332C336.279 177.332 335.632 177.511 335.076 177.869C334.519 178.221 334.085 178.685 333.773 179.261C333.468 179.831 333.312 180.458 333.306 181.141V183.259C333.306 184.147 333.468 184.909 333.793 185.546C334.118 186.175 334.572 186.659 335.155 186.997C335.739 187.329 336.421 187.494 337.203 187.494C337.727 187.494 338.201 187.421 338.625 187.276C339.05 187.123 339.417 186.901 339.729 186.609C340.041 186.318 340.276 185.957 340.435 185.526L343.796 185.903C343.584 186.792 343.179 187.567 342.583 188.23C341.993 188.886 341.237 189.397 340.316 189.761C339.394 190.119 338.34 190.298 337.154 190.298ZM359.061 178.764L355.78 179.122C355.687 178.791 355.525 178.479 355.293 178.188C355.067 177.896 354.762 177.661 354.378 177.482C353.993 177.303 353.523 177.213 352.966 177.213C352.217 177.213 351.587 177.376 351.077 177.7C350.573 178.025 350.324 178.446 350.331 178.963C350.324 179.407 350.487 179.769 350.818 180.047C351.156 180.325 351.713 180.554 352.489 180.733L355.094 181.29C356.539 181.601 357.613 182.095 358.315 182.771C359.025 183.448 359.383 184.332 359.389 185.426C359.383 186.387 359.101 187.236 358.544 187.972C357.994 188.701 357.228 189.271 356.247 189.682C355.266 190.093 354.139 190.298 352.866 190.298C350.997 190.298 349.492 189.907 348.352 189.125C347.212 188.336 346.533 187.239 346.314 185.834L349.824 185.496C349.983 186.185 350.321 186.706 350.838 187.057C351.355 187.408 352.028 187.584 352.857 187.584C353.712 187.584 354.398 187.408 354.915 187.057C355.438 186.706 355.7 186.271 355.7 185.754C355.7 185.317 355.531 184.956 355.193 184.671C354.862 184.385 354.345 184.167 353.642 184.014L351.037 183.467C349.572 183.162 348.488 182.649 347.786 181.926C347.083 181.197 346.735 180.276 346.741 179.162C346.735 178.221 346.99 177.405 347.507 176.716C348.031 176.02 348.757 175.483 349.685 175.105C350.619 174.721 351.696 174.528 352.916 174.528C354.706 174.528 356.115 174.91 357.142 175.672C358.176 176.434 358.816 177.465 359.061 178.764ZM69.4759 216.727V219.511H60.696V216.727H69.4759ZM62.8636 213.068H66.4631V227.406C66.4631 227.89 66.536 228.261 66.6818 228.52C66.8343 228.772 67.0331 228.944 67.2784 229.037C67.5237 229.13 67.7955 229.176 68.0938 229.176C68.3191 229.176 68.5246 229.16 68.7102 229.126C68.9025 229.093 69.0483 229.064 69.1477 229.037L69.7543 231.851C69.562 231.917 69.2869 231.99 68.929 232.07C68.5777 232.149 68.1468 232.196 67.6364 232.209C66.7348 232.235 65.9228 232.099 65.2003 231.801C64.4777 231.496 63.9044 231.026 63.4801 230.389C63.0625 229.753 62.857 228.957 62.8636 228.003V213.068ZM76.881 232.308C75.9132 232.308 75.0415 232.136 74.266 231.791C73.497 231.44 72.8872 230.923 72.4364 230.24C71.9923 229.557 71.7702 228.715 71.7702 227.715C71.7702 226.853 71.9293 226.14 72.2475 225.577C72.5657 225.013 72.9999 224.563 73.5501 224.224C74.1003 223.886 74.7201 223.631 75.4094 223.459C76.1055 223.28 76.8247 223.151 77.5671 223.071C78.462 222.978 79.1879 222.895 79.7447 222.823C80.3015 222.743 80.7058 222.624 80.9577 222.465C81.2163 222.299 81.3455 222.044 81.3455 221.699V221.639C81.3455 220.89 81.1235 220.31 80.6793 219.899C80.2352 219.488 79.5955 219.283 78.7603 219.283C77.8787 219.283 77.1793 219.475 76.6623 219.859C76.1519 220.244 75.8072 220.698 75.6282 221.222L72.2674 220.744C72.5326 219.816 72.9701 219.041 73.5799 218.418C74.1897 217.788 74.9355 217.317 75.8171 217.006C76.6987 216.688 77.6732 216.528 78.7404 216.528C79.4762 216.528 80.2087 216.615 80.9379 216.787C81.667 216.959 82.3332 217.244 82.9364 217.642C83.5397 218.033 84.0236 218.567 84.3881 219.243C84.7594 219.919 84.945 220.764 84.945 221.778V232H81.4847V229.902H81.3654C81.1467 230.326 80.8384 230.724 80.4407 231.095C80.0496 231.46 79.5558 231.755 78.9592 231.98C78.3692 232.199 77.6765 232.308 76.881 232.308ZM77.8157 229.663C78.5382 229.663 79.1647 229.521 79.695 229.236C80.2253 228.944 80.6329 228.56 80.918 228.082C81.2096 227.605 81.3555 227.085 81.3555 226.521V224.722C81.2428 224.814 81.0505 224.901 80.7788 224.98C80.5136 225.06 80.2153 225.129 79.8839 225.189C79.5524 225.249 79.2243 225.302 78.8995 225.348C78.5747 225.394 78.293 225.434 78.0543 225.467C77.5174 225.54 77.0368 225.66 76.6126 225.825C76.1883 225.991 75.8536 226.223 75.6083 226.521C75.363 226.813 75.2404 227.191 75.2404 227.655C75.2404 228.318 75.4824 228.818 75.9663 229.156C76.4502 229.494 77.0666 229.663 77.8157 229.663ZM88.5643 232V216.727H92.1637V232H88.5643ZM90.3739 214.56C89.8039 214.56 89.3133 214.371 88.9023 213.993C88.4914 213.608 88.2859 213.148 88.2859 212.611C88.2859 212.067 88.4914 211.607 88.9023 211.229C89.3133 210.844 89.8039 210.652 90.3739 210.652C90.9506 210.652 91.4412 210.844 91.8455 211.229C92.2565 211.607 92.462 212.067 92.462 212.611C92.462 213.148 92.2565 213.608 91.8455 213.993C91.4412 214.371 90.9506 214.56 90.3739 214.56ZM99.4645 211.636V232H95.8651V211.636H99.4645ZM109.828 232.298C108.336 232.298 107.044 231.97 105.95 231.314C104.856 230.658 104.008 229.74 103.404 228.56C102.808 227.38 102.51 226.001 102.51 224.423C102.51 222.846 102.808 221.464 103.404 220.277C104.008 219.09 104.856 218.169 105.95 217.513C107.044 216.857 108.336 216.528 109.828 216.528C111.319 216.528 112.612 216.857 113.706 217.513C114.799 218.169 115.645 219.09 116.241 220.277C116.844 221.464 117.146 222.846 117.146 224.423C117.146 226.001 116.844 227.38 116.241 228.56C115.645 229.74 114.799 230.658 113.706 231.314C112.612 231.97 111.319 232.298 109.828 232.298ZM109.848 229.415C110.656 229.415 111.333 229.193 111.876 228.749C112.42 228.298 112.824 227.695 113.089 226.939C113.361 226.183 113.497 225.341 113.497 224.413C113.497 223.479 113.361 222.634 113.089 221.878C112.824 221.116 112.42 220.509 111.876 220.058C111.333 219.608 110.656 219.382 109.848 219.382C109.019 219.382 108.33 219.608 107.779 220.058C107.236 220.509 106.828 221.116 106.556 221.878C106.291 222.634 106.159 223.479 106.159 224.413C106.159 225.341 106.291 226.183 106.556 226.939C106.828 227.695 107.236 228.298 107.779 228.749C108.33 229.193 109.019 229.415 109.848 229.415ZM120.201 232V216.727H123.691V219.273H123.85C124.129 218.391 124.606 217.712 125.282 217.234C125.965 216.751 126.744 216.509 127.619 216.509C127.817 216.509 128.04 216.519 128.285 216.538C128.537 216.552 128.746 216.575 128.911 216.608V219.919C128.759 219.866 128.517 219.82 128.185 219.78C127.861 219.733 127.546 219.71 127.241 219.71C126.585 219.71 125.995 219.853 125.471 220.138C124.954 220.416 124.546 220.804 124.248 221.301C123.95 221.798 123.8 222.372 123.8 223.021V232H120.201ZM137.435 232.298C135.904 232.298 134.581 231.98 133.468 231.344C132.361 230.701 131.509 229.793 130.912 228.619C130.316 227.439 130.017 226.051 130.017 224.453C130.017 222.882 130.316 221.503 130.912 220.317C131.516 219.124 132.357 218.196 133.438 217.533C134.518 216.863 135.788 216.528 137.246 216.528C138.187 216.528 139.076 216.681 139.911 216.986C140.753 217.284 141.495 217.748 142.138 218.378C142.788 219.008 143.298 219.81 143.669 220.784C144.041 221.752 144.226 222.905 144.226 224.244V225.348H131.708V222.922H140.776C140.769 222.233 140.62 221.619 140.328 221.082C140.037 220.539 139.629 220.111 139.105 219.8C138.588 219.488 137.985 219.332 137.296 219.332C136.56 219.332 135.914 219.511 135.357 219.869C134.8 220.221 134.366 220.685 134.054 221.261C133.749 221.831 133.594 222.458 133.587 223.141V225.259C133.587 226.147 133.749 226.909 134.074 227.546C134.399 228.175 134.853 228.659 135.436 228.997C136.02 229.329 136.703 229.494 137.485 229.494C138.008 229.494 138.482 229.421 138.907 229.276C139.331 229.123 139.699 228.901 140.01 228.609C140.322 228.318 140.557 227.957 140.716 227.526L144.077 227.903C143.865 228.792 143.461 229.567 142.864 230.23C142.274 230.886 141.518 231.397 140.597 231.761C139.676 232.119 138.622 232.298 137.435 232.298ZM152.939 232.269C151.739 232.269 150.665 231.96 149.717 231.344C148.769 230.727 148.02 229.832 147.47 228.659C146.92 227.486 146.645 226.061 146.645 224.384C146.645 222.687 146.923 221.255 147.48 220.088C148.044 218.915 148.803 218.03 149.757 217.433C150.712 216.83 151.776 216.528 152.949 216.528C153.844 216.528 154.58 216.681 155.156 216.986C155.733 217.284 156.19 217.645 156.528 218.07C156.866 218.487 157.128 218.882 157.314 219.253H157.463V211.636H161.072V232H157.533V229.594H157.314C157.128 229.965 156.86 230.359 156.509 230.777C156.157 231.188 155.693 231.539 155.116 231.831C154.54 232.123 153.814 232.269 152.939 232.269ZM153.943 229.315C154.705 229.315 155.355 229.11 155.892 228.699C156.429 228.281 156.837 227.701 157.115 226.959C157.393 226.216 157.533 225.351 157.533 224.364C157.533 223.376 157.393 222.518 157.115 221.788C156.843 221.059 156.439 220.492 155.902 220.088C155.372 219.684 154.719 219.482 153.943 219.482C153.141 219.482 152.472 219.69 151.935 220.108C151.398 220.526 150.993 221.102 150.722 221.838C150.45 222.574 150.314 223.416 150.314 224.364C150.314 225.318 150.45 226.17 150.722 226.919C151 227.662 151.408 228.248 151.945 228.679C152.488 229.103 153.154 229.315 153.943 229.315ZM179.589 216.727V219.511H170.561V216.727H179.589ZM172.818 232V215.286C172.818 214.258 173.03 213.403 173.454 212.72C173.885 212.037 174.462 211.527 175.184 211.189C175.907 210.851 176.709 210.682 177.591 210.682C178.214 210.682 178.767 210.732 179.251 210.831C179.735 210.93 180.093 211.02 180.325 211.099L179.609 213.884C179.457 213.837 179.264 213.791 179.032 213.744C178.8 213.691 178.542 213.665 178.257 213.665C177.587 213.665 177.113 213.827 176.835 214.152C176.563 214.47 176.427 214.928 176.427 215.524V232H172.818ZM188.496 232.298C187.004 232.298 185.712 231.97 184.618 231.314C183.524 230.658 182.676 229.74 182.072 228.56C181.476 227.38 181.178 226.001 181.178 224.423C181.178 222.846 181.476 221.464 182.072 220.277C182.676 219.09 183.524 218.169 184.618 217.513C185.712 216.857 187.004 216.528 188.496 216.528C189.987 216.528 191.28 216.857 192.374 217.513C193.467 218.169 194.313 219.09 194.909 220.277C195.512 221.464 195.814 222.846 195.814 224.423C195.814 226.001 195.512 227.38 194.909 228.56C194.313 229.74 193.467 230.658 192.374 231.314C191.28 231.97 189.987 232.298 188.496 232.298ZM188.516 229.415C189.324 229.415 190 229.193 190.544 228.749C191.088 228.298 191.492 227.695 191.757 226.939C192.029 226.183 192.165 225.341 192.165 224.413C192.165 223.479 192.029 222.634 191.757 221.878C191.492 221.116 191.088 220.509 190.544 220.058C190 219.608 189.324 219.382 188.516 219.382C187.687 219.382 186.998 219.608 186.447 220.058C185.904 220.509 185.496 221.116 185.224 221.878C184.959 222.634 184.827 223.479 184.827 224.413C184.827 225.341 184.959 226.183 185.224 226.939C185.496 227.695 185.904 228.298 186.447 228.749C186.998 229.193 187.687 229.415 188.516 229.415ZM198.869 232V216.727H202.359V219.273H202.518C202.797 218.391 203.274 217.712 203.95 217.234C204.633 216.751 205.412 216.509 206.287 216.509C206.485 216.509 206.708 216.519 206.953 216.538C207.205 216.552 207.413 216.575 207.579 216.608V219.919C207.427 219.866 207.185 219.82 206.853 219.78C206.529 219.733 206.214 219.71 205.909 219.71C205.252 219.71 204.663 219.853 204.139 220.138C203.622 220.416 203.214 220.804 202.916 221.301C202.618 221.798 202.468 222.372 202.468 223.021V232H198.869ZM219.153 237.727C218.663 237.727 218.208 237.688 217.791 237.608C217.38 237.535 217.052 237.449 216.806 237.349L217.642 234.546C218.165 234.698 218.633 234.771 219.044 234.764C219.455 234.758 219.816 234.628 220.127 234.376C220.446 234.131 220.714 233.72 220.933 233.144L221.241 232.318L215.703 216.727H219.521L223.041 228.261H223.2L226.73 216.727H230.558L224.443 233.849C224.158 234.658 223.78 235.351 223.309 235.928C222.839 236.511 222.262 236.955 221.579 237.26C220.903 237.572 220.094 237.727 219.153 237.727ZM239.191 232.298C237.7 232.298 236.407 231.97 235.313 231.314C234.219 230.658 233.371 229.74 232.768 228.56C232.171 227.38 231.873 226.001 231.873 224.423C231.873 222.846 232.171 221.464 232.768 220.277C233.371 219.09 234.219 218.169 235.313 217.513C236.407 216.857 237.7 216.528 239.191 216.528C240.683 216.528 241.975 216.857 243.069 217.513C244.163 218.169 245.008 219.09 245.604 220.277C246.208 221.464 246.509 222.846 246.509 224.423C246.509 226.001 246.208 227.38 245.604 228.56C245.008 229.74 244.163 230.658 243.069 231.314C241.975 231.97 240.683 232.298 239.191 232.298ZM239.211 229.415C240.02 229.415 240.696 229.193 241.239 228.749C241.783 228.298 242.187 227.695 242.452 226.939C242.724 226.183 242.86 225.341 242.86 224.413C242.86 223.479 242.724 222.634 242.452 221.878C242.187 221.116 241.783 220.509 241.239 220.058C240.696 219.608 240.02 219.382 239.211 219.382C238.382 219.382 237.693 219.608 237.143 220.058C236.599 220.509 236.192 221.116 235.92 221.878C235.655 222.634 235.522 223.479 235.522 224.413C235.522 225.341 235.655 226.183 235.92 226.939C236.192 227.695 236.599 228.298 237.143 228.749C237.693 229.193 238.382 229.415 239.211 229.415ZM259.299 225.577V216.727H262.898V232H259.408V229.286H259.249C258.904 230.141 258.337 230.84 257.549 231.384C256.766 231.927 255.802 232.199 254.655 232.199C253.654 232.199 252.769 231.977 252 231.533C251.238 231.082 250.641 230.429 250.211 229.574C249.78 228.712 249.564 227.671 249.564 226.452V216.727H253.164V225.895C253.164 226.863 253.429 227.632 253.959 228.202C254.489 228.772 255.185 229.057 256.047 229.057C256.578 229.057 257.091 228.928 257.588 228.669C258.086 228.411 258.493 228.026 258.811 227.516C259.136 226.999 259.299 226.352 259.299 225.577ZM266.599 232V216.727H270.089V219.273H270.249C270.527 218.391 271.004 217.712 271.68 217.234C272.363 216.751 273.142 216.509 274.017 216.509C274.216 216.509 274.438 216.519 274.683 216.538C274.935 216.552 275.144 216.575 275.31 216.608V219.919C275.157 219.866 274.915 219.82 274.584 219.78C274.259 219.733 273.944 219.71 273.639 219.71C272.983 219.71 272.393 219.853 271.869 220.138C271.352 220.416 270.945 220.804 270.646 221.301C270.348 221.798 270.199 222.372 270.199 223.021V232H266.599ZM284.805 232V211.636H288.405V219.253H288.554C288.74 218.882 289.001 218.487 289.339 218.07C289.678 217.645 290.135 217.284 290.712 216.986C291.288 216.681 292.024 216.528 292.919 216.528C294.099 216.528 295.163 216.83 296.111 217.433C297.065 218.03 297.821 218.915 298.378 220.088C298.941 221.255 299.223 222.687 299.223 224.384C299.223 226.061 298.948 227.486 298.398 228.659C297.848 229.832 297.098 230.727 296.151 231.344C295.203 231.96 294.129 232.269 292.929 232.269C292.054 232.269 291.328 232.123 290.751 231.831C290.175 231.539 289.711 231.188 289.359 230.777C289.015 230.359 288.746 229.965 288.554 229.594H288.345V232H284.805ZM288.335 224.364C288.335 225.351 288.474 226.216 288.753 226.959C289.038 227.701 289.446 228.281 289.976 228.699C290.513 229.11 291.162 229.315 291.925 229.315C292.72 229.315 293.386 229.103 293.923 228.679C294.46 228.248 294.865 227.662 295.136 226.919C295.415 226.17 295.554 225.318 295.554 224.364C295.554 223.416 295.418 222.574 295.146 221.838C294.875 221.102 294.47 220.526 293.933 220.108C293.396 219.69 292.727 219.482 291.925 219.482C291.156 219.482 290.503 219.684 289.966 220.088C289.429 220.492 289.021 221.059 288.743 221.788C288.471 222.518 288.335 223.376 288.335 224.364ZM312.017 225.577V216.727H315.617V232H312.127V229.286H311.968C311.623 230.141 311.056 230.84 310.267 231.384C309.485 231.927 308.521 232.199 307.374 232.199C306.373 232.199 305.488 231.977 304.719 231.533C303.957 231.082 303.36 230.429 302.929 229.574C302.498 228.712 302.283 227.671 302.283 226.452V216.727H305.882V225.895C305.882 226.863 306.148 227.632 306.678 228.202C307.208 228.772 307.904 229.057 308.766 229.057C309.296 229.057 309.81 228.928 310.307 228.669C310.804 228.411 311.212 228.026 311.53 227.516C311.855 226.999 312.017 226.352 312.017 225.577ZM331.389 220.764L328.108 221.122C328.015 220.791 327.853 220.479 327.621 220.188C327.395 219.896 327.09 219.661 326.706 219.482C326.321 219.303 325.851 219.213 325.294 219.213C324.545 219.213 323.915 219.376 323.405 219.7C322.901 220.025 322.652 220.446 322.659 220.963C322.652 221.407 322.815 221.769 323.146 222.047C323.484 222.325 324.041 222.554 324.817 222.733L327.422 223.29C328.867 223.601 329.941 224.095 330.643 224.771C331.353 225.448 331.711 226.332 331.717 227.426C331.711 228.387 331.429 229.236 330.872 229.972C330.322 230.701 329.556 231.271 328.575 231.682C327.594 232.093 326.467 232.298 325.195 232.298C323.325 232.298 321.821 231.907 320.68 231.125C319.54 230.336 318.861 229.239 318.642 227.834L322.152 227.496C322.311 228.185 322.649 228.706 323.166 229.057C323.683 229.408 324.356 229.584 325.185 229.584C326.04 229.584 326.726 229.408 327.243 229.057C327.767 228.706 328.028 228.271 328.028 227.754C328.028 227.317 327.859 226.956 327.521 226.671C327.19 226.385 326.673 226.167 325.97 226.014L323.365 225.467C321.9 225.162 320.816 224.649 320.114 223.926C319.411 223.197 319.063 222.276 319.07 221.162C319.063 220.221 319.318 219.405 319.835 218.716C320.359 218.02 321.085 217.483 322.013 217.105C322.947 216.721 324.025 216.528 325.244 216.528C327.034 216.528 328.443 216.91 329.47 217.672C330.504 218.434 331.144 219.465 331.389 220.764ZM334.685 232V216.727H338.285V232H334.685ZM336.495 214.56C335.925 214.56 335.434 214.371 335.023 213.993C334.612 213.608 334.407 213.148 334.407 212.611C334.407 212.067 334.612 211.607 335.023 211.229C335.434 210.844 335.925 210.652 336.495 210.652C337.072 210.652 337.562 210.844 337.967 211.229C338.378 211.607 338.583 212.067 338.583 212.611C338.583 213.148 338.378 213.608 337.967 213.993C337.562 214.371 337.072 214.56 336.495 214.56ZM345.586 223.051V232H341.986V216.727H345.426V219.323H345.605C345.957 218.467 346.517 217.788 347.286 217.284C348.061 216.78 349.019 216.528 350.159 216.528C351.213 216.528 352.132 216.754 352.914 217.205C353.703 217.655 354.312 218.308 354.743 219.163C355.181 220.019 355.396 221.056 355.39 222.276V232H351.79V222.832C351.79 221.812 351.525 221.013 350.995 220.436C350.471 219.859 349.745 219.571 348.817 219.571C348.187 219.571 347.627 219.71 347.137 219.989C346.653 220.26 346.272 220.655 345.993 221.172C345.721 221.689 345.586 222.315 345.586 223.051ZM365.81 232.298C364.279 232.298 362.956 231.98 361.843 231.344C360.736 230.701 359.884 229.793 359.287 228.619C358.691 227.439 358.392 226.051 358.392 224.453C358.392 222.882 358.691 221.503 359.287 220.317C359.891 219.124 360.732 218.196 361.813 217.533C362.893 216.863 364.163 216.528 365.621 216.528C366.562 216.528 367.451 216.681 368.286 216.986C369.128 217.284 369.87 217.748 370.513 218.378C371.163 219.008 371.673 219.81 372.044 220.784C372.416 221.752 372.601 222.905 372.601 224.244V225.348H360.083V222.922H369.151C369.144 222.233 368.995 221.619 368.703 221.082C368.412 220.539 368.004 220.111 367.48 219.8C366.963 219.488 366.36 219.332 365.671 219.332C364.935 219.332 364.289 219.511 363.732 219.869C363.175 220.221 362.741 220.685 362.429 221.261C362.124 221.831 361.969 222.458 361.962 223.141V225.259C361.962 226.147 362.124 226.909 362.449 227.546C362.774 228.175 363.228 228.659 363.811 228.997C364.395 229.329 365.078 229.494 365.86 229.494C366.383 229.494 366.857 229.421 367.282 229.276C367.706 229.123 368.074 228.901 368.385 228.609C368.697 228.318 368.932 227.957 369.091 227.526L372.452 227.903C372.24 228.792 371.836 229.567 371.239 230.23C370.649 230.886 369.893 231.397 368.972 231.761C368.051 232.119 366.997 232.298 365.81 232.298ZM387.717 220.764L384.436 221.122C384.343 220.791 384.181 220.479 383.949 220.188C383.723 219.896 383.419 219.661 383.034 219.482C382.65 219.303 382.179 219.213 381.622 219.213C380.873 219.213 380.243 219.376 379.733 219.7C379.229 220.025 378.981 220.446 378.987 220.963C378.981 221.407 379.143 221.769 379.474 222.047C379.813 222.325 380.369 222.554 381.145 222.733L383.75 223.29C385.195 223.601 386.269 224.095 386.972 224.771C387.681 225.448 388.039 226.332 388.045 227.426C388.039 228.387 387.757 229.236 387.2 229.972C386.65 230.701 385.884 231.271 384.903 231.682C383.922 232.093 382.795 232.298 381.523 232.298C379.653 232.298 378.149 231.907 377.009 231.125C375.868 230.336 375.189 229.239 374.97 227.834L378.48 227.496C378.639 228.185 378.977 228.706 379.494 229.057C380.011 229.408 380.684 229.584 381.513 229.584C382.368 229.584 383.054 229.408 383.571 229.057C384.095 228.706 384.357 228.271 384.357 227.754C384.357 227.317 384.188 226.956 383.849 226.671C383.518 226.385 383.001 226.167 382.298 226.014L379.693 225.467C378.228 225.162 377.144 224.649 376.442 223.926C375.739 223.197 375.391 222.276 375.398 221.162C375.391 220.221 375.646 219.405 376.163 218.716C376.687 218.02 377.413 217.483 378.341 217.105C379.276 216.721 380.353 216.528 381.572 216.528C383.362 216.528 384.771 216.91 385.798 217.672C386.832 218.434 387.472 219.465 387.717 220.764ZM403.085 220.764L399.803 221.122C399.71 220.791 399.548 220.479 399.316 220.188C399.091 219.896 398.786 219.661 398.401 219.482C398.017 219.303 397.546 219.213 396.989 219.213C396.24 219.213 395.611 219.376 395.1 219.7C394.596 220.025 394.348 220.446 394.354 220.963C394.348 221.407 394.51 221.769 394.842 222.047C395.18 222.325 395.737 222.554 396.512 222.733L399.117 223.29C400.562 223.601 401.636 224.095 402.339 224.771C403.048 225.448 403.406 226.332 403.413 227.426C403.406 228.387 403.124 229.236 402.567 229.972C402.017 230.701 401.252 231.271 400.271 231.682C399.29 232.093 398.163 232.298 396.89 232.298C395.021 232.298 393.516 231.907 392.376 231.125C391.236 230.336 390.556 229.239 390.337 227.834L393.847 227.496C394.006 228.185 394.344 228.706 394.862 229.057C395.379 229.408 396.051 229.584 396.88 229.584C397.735 229.584 398.421 229.408 398.938 229.057C399.462 228.706 399.724 228.271 399.724 227.754C399.724 227.317 399.555 226.956 399.217 226.671C398.885 226.385 398.368 226.167 397.665 226.014L395.06 225.467C393.595 225.162 392.512 224.649 391.809 223.926C391.106 223.197 390.758 222.276 390.765 221.162C390.758 220.221 391.013 219.405 391.531 218.716C392.054 218.02 392.78 217.483 393.708 217.105C394.643 216.721 395.72 216.528 396.94 216.528C398.729 216.528 400.138 216.91 401.165 217.672C402.2 218.434 402.839 219.465 403.085 220.764Z" fill="#0D0D0D"/>
<path d="M64.6236 190H60.6861L67.8551 169.636H72.4091L79.5881 190H75.6506L70.2116 173.813H70.0526L64.6236 190ZM64.7528 182.016H75.4915V184.979H64.7528V182.016ZM91.8455 183.577V174.727H95.445V190H91.9549V187.286H91.7958C91.4511 188.141 90.8844 188.84 90.0955 189.384C89.3133 189.927 88.3488 190.199 87.2021 190.199C86.2011 190.199 85.3162 189.977 84.5472 189.533C83.7849 189.082 83.1883 188.429 82.7575 187.574C82.3266 186.712 82.1112 185.671 82.1112 184.452V174.727H85.7106V183.895C85.7106 184.863 85.9757 185.632 86.506 186.202C87.0363 186.772 87.7324 187.057 88.5941 187.057C89.1244 187.057 89.6381 186.928 90.1353 186.669C90.6325 186.411 91.0401 186.026 91.3583 185.516C91.6831 184.999 91.8455 184.352 91.8455 183.577ZM106.773 174.727V177.511H97.9929V174.727H106.773ZM100.161 171.068H103.76V185.406C103.76 185.89 103.833 186.261 103.979 186.52C104.131 186.772 104.33 186.944 104.575 187.037C104.821 187.13 105.092 187.176 105.391 187.176C105.616 187.176 105.821 187.16 106.007 187.126C106.199 187.093 106.345 187.064 106.445 187.037L107.051 189.851C106.859 189.917 106.584 189.99 106.226 190.07C105.875 190.149 105.444 190.196 104.933 190.209C104.032 190.235 103.22 190.099 102.497 189.801C101.775 189.496 101.201 189.026 100.777 188.389C100.359 187.753 100.154 186.957 100.161 186.003V171.068ZM116.281 190.298C114.789 190.298 113.497 189.97 112.403 189.314C111.309 188.658 110.461 187.74 109.858 186.56C109.261 185.38 108.963 184.001 108.963 182.423C108.963 180.846 109.261 179.464 109.858 178.277C110.461 177.09 111.309 176.169 112.403 175.513C113.497 174.857 114.789 174.528 116.281 174.528C117.772 174.528 119.065 174.857 120.159 175.513C121.252 176.169 122.098 177.09 122.694 178.277C123.297 179.464 123.599 180.846 123.599 182.423C123.599 184.001 123.297 185.38 122.694 186.56C122.098 187.74 121.252 188.658 120.159 189.314C119.065 189.97 117.772 190.298 116.281 190.298ZM116.301 187.415C117.109 187.415 117.786 187.193 118.329 186.749C118.873 186.298 119.277 185.695 119.542 184.939C119.814 184.183 119.95 183.341 119.95 182.413C119.95 181.479 119.814 180.634 119.542 179.878C119.277 179.116 118.873 178.509 118.329 178.058C117.786 177.608 117.109 177.382 116.301 177.382C115.472 177.382 114.783 177.608 114.233 178.058C113.689 178.509 113.281 179.116 113.01 179.878C112.744 180.634 112.612 181.479 112.612 182.413C112.612 183.341 112.744 184.183 113.01 184.939C113.281 185.695 113.689 186.298 114.233 186.749C114.783 187.193 115.472 187.415 116.301 187.415ZM126.654 190V174.727H130.094V177.323H130.273C130.592 176.448 131.119 175.765 131.854 175.274C132.59 174.777 133.469 174.528 134.489 174.528C135.523 174.528 136.395 174.78 137.104 175.284C137.82 175.781 138.324 176.461 138.616 177.323H138.775C139.113 176.474 139.683 175.798 140.485 175.294C141.294 174.784 142.252 174.528 143.359 174.528C144.764 174.528 145.911 174.973 146.799 175.861C147.687 176.749 148.131 178.045 148.131 179.749V190H144.522V180.305C144.522 179.358 144.27 178.665 143.766 178.227C143.263 177.783 142.646 177.561 141.917 177.561C141.049 177.561 140.369 177.833 139.879 178.376C139.395 178.913 139.153 179.613 139.153 180.474V190H135.623V180.156C135.623 179.367 135.384 178.738 134.907 178.267C134.436 177.796 133.82 177.561 133.058 177.561C132.54 177.561 132.07 177.694 131.646 177.959C131.221 178.217 130.883 178.585 130.631 179.063C130.379 179.533 130.254 180.083 130.254 180.713V190H126.654ZM156.178 190.308C155.21 190.308 154.338 190.136 153.563 189.791C152.794 189.44 152.184 188.923 151.733 188.24C151.289 187.557 151.067 186.715 151.067 185.715C151.067 184.853 151.226 184.14 151.544 183.577C151.863 183.013 152.297 182.563 152.847 182.224C153.397 181.886 154.017 181.631 154.706 181.459C155.402 181.28 156.122 181.151 156.864 181.071C157.759 180.978 158.485 180.895 159.042 180.823C159.598 180.743 160.003 180.624 160.255 180.465C160.513 180.299 160.642 180.044 160.642 179.699V179.639C160.642 178.89 160.42 178.31 159.976 177.899C159.532 177.488 158.892 177.283 158.057 177.283C157.176 177.283 156.476 177.475 155.959 177.859C155.449 178.244 155.104 178.698 154.925 179.222L151.564 178.744C151.829 177.816 152.267 177.041 152.877 176.418C153.487 175.788 154.232 175.317 155.114 175.006C155.996 174.688 156.97 174.528 158.037 174.528C158.773 174.528 159.506 174.615 160.235 174.787C160.964 174.959 161.63 175.244 162.233 175.642C162.837 176.033 163.32 176.567 163.685 177.243C164.056 177.919 164.242 178.764 164.242 179.778V190H160.782V187.902H160.662C160.444 188.326 160.135 188.724 159.738 189.095C159.346 189.46 158.853 189.755 158.256 189.98C157.666 190.199 156.973 190.308 156.178 190.308ZM157.113 187.663C157.835 187.663 158.462 187.521 158.992 187.236C159.522 186.944 159.93 186.56 160.215 186.082C160.507 185.605 160.652 185.085 160.652 184.521V182.722C160.54 182.814 160.347 182.901 160.076 182.98C159.81 183.06 159.512 183.129 159.181 183.189C158.849 183.249 158.521 183.302 158.196 183.348C157.872 183.394 157.59 183.434 157.351 183.467C156.814 183.54 156.334 183.66 155.909 183.825C155.485 183.991 155.15 184.223 154.905 184.521C154.66 184.813 154.537 185.191 154.537 185.655C154.537 186.318 154.779 186.818 155.263 187.156C155.747 187.494 156.364 187.663 157.113 187.663ZM175.488 174.727V177.511H166.708V174.727H175.488ZM168.875 171.068H172.475V185.406C172.475 185.89 172.548 186.261 172.694 186.52C172.846 186.772 173.045 186.944 173.29 187.037C173.535 187.13 173.807 187.176 174.105 187.176C174.331 187.176 174.536 187.16 174.722 187.126C174.914 187.093 175.06 187.064 175.159 187.037L175.766 189.851C175.574 189.917 175.299 189.99 174.941 190.07C174.589 190.149 174.158 190.196 173.648 190.209C172.747 190.235 171.935 190.099 171.212 189.801C170.489 189.496 169.916 189.026 169.492 188.389C169.074 187.753 168.869 186.957 168.875 186.003V171.068ZM178.498 190V174.727H182.097V190H178.498ZM180.308 172.56C179.737 172.56 179.247 172.371 178.836 171.993C178.425 171.608 178.219 171.148 178.219 170.611C178.219 170.067 178.425 169.607 178.836 169.229C179.247 168.844 179.737 168.652 180.308 168.652C180.884 168.652 181.375 168.844 181.779 169.229C182.19 169.607 182.396 170.067 182.396 170.611C182.396 171.148 182.19 171.608 181.779 171.993C181.375 172.371 180.884 172.56 180.308 172.56ZM192.461 190.298C190.969 190.298 189.676 189.97 188.583 189.314C187.489 188.658 186.641 187.74 186.037 186.56C185.441 185.38 185.142 184.001 185.142 182.423C185.142 180.846 185.441 179.464 186.037 178.277C186.641 177.09 187.489 176.169 188.583 175.513C189.676 174.857 190.969 174.528 192.461 174.528C193.952 174.528 195.245 174.857 196.338 175.513C197.432 176.169 198.277 177.09 198.874 178.277C199.477 179.464 199.779 180.846 199.779 182.423C199.779 184.001 199.477 185.38 198.874 186.56C198.277 187.74 197.432 188.658 196.338 189.314C195.245 189.97 193.952 190.298 192.461 190.298ZM192.48 187.415C193.289 187.415 193.965 187.193 194.509 186.749C195.052 186.298 195.457 185.695 195.722 184.939C195.994 184.183 196.13 183.341 196.13 182.413C196.13 181.479 195.994 180.634 195.722 179.878C195.457 179.116 195.052 178.509 194.509 178.058C193.965 177.608 193.289 177.382 192.48 177.382C191.652 177.382 190.962 177.608 190.412 178.058C189.869 178.509 189.461 179.116 189.189 179.878C188.924 180.634 188.792 181.479 188.792 182.413C188.792 183.341 188.924 184.183 189.189 184.939C189.461 185.695 189.869 186.298 190.412 186.749C190.962 187.193 191.652 187.415 192.48 187.415ZM206.433 181.051V190H202.834V174.727H206.274V177.323H206.453C206.804 176.467 207.365 175.788 208.134 175.284C208.909 174.78 209.867 174.528 211.007 174.528C212.061 174.528 212.979 174.754 213.761 175.205C214.55 175.655 215.16 176.308 215.591 177.163C216.028 178.019 216.244 179.056 216.237 180.276V190H212.638V180.832C212.638 179.812 212.373 179.013 211.842 178.436C211.319 177.859 210.593 177.571 209.665 177.571C209.035 177.571 208.475 177.71 207.984 177.989C207.5 178.26 207.119 178.655 206.841 179.172C206.569 179.689 206.433 180.315 206.433 181.051Z" fill="#4485F2"/>
</svg>
