<svg width="640" height="952" viewBox="0 0 640 952" fill="none" xmlns="http://www.w3.org/2000/svg">
<rect width="640" height="952" fill="white"/>
<rect x="161" y="288.199" width="300" height="64" rx="4" fill="#F6F4EE"/>
<path d="M180.112 313.199L177.288 303.017H178.904L180.888 310.902H180.982L183.045 303.017H184.646L186.71 310.907H186.804L188.783 303.017H190.403L187.575 313.199H186.028L183.886 305.572H183.806L181.663 313.199H180.112ZM193.171 308.665V313.199H191.685V303.017H193.151V306.805H193.246C193.425 306.394 193.698 306.068 194.066 305.826C194.434 305.584 194.915 305.463 195.508 305.463C196.032 305.463 196.489 305.571 196.88 305.786C197.275 306.002 197.579 306.323 197.795 306.751C198.014 307.175 198.123 307.705 198.123 308.341V313.199H196.637V308.52C196.637 307.96 196.492 307.526 196.204 307.218C195.916 306.906 195.515 306.751 195.001 306.751C194.65 306.751 194.335 306.825 194.056 306.974C193.781 307.123 193.564 307.342 193.405 307.631C193.249 307.916 193.171 308.26 193.171 308.665ZM203.398 313.353C202.646 313.353 201.998 313.192 201.454 312.871C200.914 312.546 200.496 312.09 200.201 311.503C199.91 310.913 199.764 310.222 199.764 309.43C199.764 308.648 199.91 307.959 200.201 307.362C200.496 306.765 200.907 306.3 201.434 305.965C201.964 305.63 202.584 305.463 203.294 305.463C203.724 305.463 204.142 305.534 204.546 305.677C204.951 305.819 205.314 306.043 205.635 306.348C205.957 306.653 206.21 307.049 206.396 307.536C206.581 308.02 206.674 308.608 206.674 309.301V309.828H200.604V308.714H205.218C205.218 308.323 205.138 307.977 204.979 307.675C204.82 307.37 204.596 307.13 204.308 306.954C204.023 306.779 203.688 306.691 203.303 306.691C202.886 306.691 202.521 306.794 202.21 306.999C201.901 307.201 201.663 307.466 201.494 307.795C201.328 308.119 201.245 308.472 201.245 308.854V309.724C201.245 310.234 201.335 310.668 201.514 311.026C201.696 311.384 201.95 311.658 202.274 311.846C202.599 312.032 202.979 312.125 203.413 312.125C203.695 312.125 203.951 312.085 204.183 312.006C204.415 311.923 204.616 311.8 204.785 311.638C204.954 311.475 205.083 311.275 205.173 311.036L206.58 311.29C206.467 311.704 206.265 312.067 205.973 312.378C205.685 312.687 205.322 312.927 204.884 313.099C204.45 313.268 203.955 313.353 203.398 313.353ZM209.81 308.665V313.199H208.324V305.562H209.75V306.805H209.845C210.02 306.401 210.296 306.076 210.67 305.831C211.048 305.586 211.524 305.463 212.097 305.463C212.617 305.463 213.073 305.572 213.464 305.791C213.855 306.006 214.158 306.328 214.374 306.756C214.589 307.183 214.697 307.712 214.697 308.341V313.199H213.211V308.52C213.211 307.967 213.066 307.534 212.778 307.223C212.49 306.908 212.094 306.751 211.59 306.751C211.245 306.751 210.939 306.825 210.67 306.974C210.405 307.123 210.194 307.342 210.039 307.631C209.886 307.916 209.81 308.26 209.81 308.665ZM223.96 305.562V306.756H219.789V305.562H223.96ZM220.908 303.733H222.394V310.957C222.394 311.245 222.437 311.462 222.524 311.608C222.61 311.75 222.721 311.848 222.857 311.901C222.996 311.951 223.147 311.976 223.309 311.976C223.428 311.976 223.533 311.967 223.622 311.951C223.712 311.934 223.781 311.921 223.831 311.911L224.1 313.139C224.013 313.172 223.891 313.205 223.732 313.239C223.573 313.275 223.374 313.295 223.135 313.298C222.744 313.305 222.379 313.235 222.041 313.089C221.703 312.944 221.43 312.718 221.221 312.413C221.012 312.108 220.908 311.725 220.908 311.265V303.733ZM227.255 308.665V313.199H225.769V303.017H227.235V306.805H227.33C227.509 306.394 227.782 306.068 228.15 305.826C228.518 305.584 228.999 305.463 229.592 305.463C230.116 305.463 230.573 305.571 230.964 305.786C231.359 306.002 231.663 306.323 231.879 306.751C232.098 307.175 232.207 307.705 232.207 308.341V313.199H230.721V308.52C230.721 307.96 230.576 307.526 230.288 307.218C230 306.906 229.599 306.751 229.085 306.751C228.734 306.751 228.419 306.825 228.14 306.974C227.865 307.123 227.648 307.342 227.489 307.631C227.333 307.916 227.255 308.26 227.255 308.665ZM234.191 313.199V305.562H235.677V313.199H234.191ZM234.941 304.384C234.683 304.384 234.461 304.298 234.275 304.126C234.093 303.95 234.002 303.741 234.002 303.499C234.002 303.254 234.093 303.045 234.275 302.873C234.461 302.697 234.683 302.609 234.941 302.609C235.2 302.609 235.42 302.697 235.603 302.873C235.788 303.045 235.881 303.254 235.881 303.499C235.881 303.741 235.788 303.95 235.603 304.126C235.42 304.298 235.2 304.384 234.941 304.384ZM243.399 307.427L242.052 307.665C241.996 307.493 241.906 307.329 241.784 307.173C241.664 307.017 241.502 306.89 241.296 306.79C241.091 306.691 240.834 306.641 240.526 306.641C240.105 306.641 239.753 306.736 239.472 306.925C239.19 307.11 239.049 307.35 239.049 307.645C239.049 307.901 239.144 308.106 239.333 308.262C239.521 308.418 239.826 308.545 240.247 308.645L241.46 308.923C242.163 309.086 242.687 309.336 243.031 309.674C243.376 310.012 243.548 310.451 243.548 310.991C243.548 311.449 243.416 311.856 243.151 312.214C242.889 312.569 242.523 312.847 242.052 313.05C241.585 313.252 241.043 313.353 240.426 313.353C239.571 313.353 238.874 313.171 238.333 312.806C237.793 312.438 237.462 311.916 237.339 311.24L238.776 311.021C238.865 311.396 239.049 311.679 239.328 311.871C239.606 312.06 239.969 312.155 240.416 312.155C240.904 312.155 241.293 312.054 241.585 311.851C241.876 311.646 242.022 311.396 242.022 311.101C242.022 310.862 241.933 310.662 241.754 310.499C241.578 310.337 241.308 310.214 240.943 310.131L239.651 309.848C238.938 309.685 238.411 309.427 238.07 309.072C237.732 308.718 237.563 308.269 237.563 307.725C237.563 307.274 237.689 306.88 237.941 306.542C238.192 306.204 238.54 305.94 238.985 305.751C239.429 305.559 239.937 305.463 240.511 305.463C241.336 305.463 241.986 305.642 242.46 306C242.934 306.355 243.247 306.83 243.399 307.427ZM250.374 308.665V313.199H248.888V303.017H250.355V306.805H250.449C250.628 306.394 250.901 306.068 251.269 305.826C251.637 305.584 252.118 305.463 252.711 305.463C253.235 305.463 253.692 305.571 254.083 305.786C254.478 306.002 254.783 306.323 254.998 306.751C255.217 307.175 255.326 307.705 255.326 308.341V313.199H253.84V308.52C253.84 307.96 253.695 307.526 253.407 307.218C253.119 306.906 252.718 306.751 252.204 306.751C251.853 306.751 251.538 306.825 251.259 306.974C250.984 307.123 250.767 307.342 250.608 307.631C250.452 307.916 250.374 308.26 250.374 308.665ZM259.532 313.368C259.048 313.368 258.611 313.278 258.22 313.099C257.829 312.917 257.519 312.654 257.29 312.309C257.065 311.964 256.952 311.542 256.952 311.041C256.952 310.61 257.035 310.256 257.2 309.977C257.366 309.699 257.59 309.478 257.872 309.316C258.153 309.154 258.468 309.031 258.816 308.948C259.164 308.865 259.519 308.802 259.88 308.759C260.338 308.706 260.709 308.663 260.994 308.63C261.279 308.593 261.486 308.535 261.615 308.456C261.744 308.376 261.809 308.247 261.809 308.068V308.033C261.809 307.599 261.686 307.263 261.441 307.024C261.199 306.785 260.838 306.666 260.357 306.666C259.857 306.666 259.463 306.777 259.174 306.999C258.889 307.218 258.692 307.462 258.583 307.73L257.186 307.412C257.351 306.948 257.593 306.573 257.911 306.288C258.233 306 258.602 305.791 259.02 305.662C259.438 305.529 259.877 305.463 260.338 305.463C260.642 305.463 260.966 305.499 261.307 305.572C261.652 305.642 261.973 305.771 262.271 305.96C262.573 306.149 262.82 306.419 263.012 306.77C263.204 307.118 263.301 307.571 263.301 308.128V313.199H261.849V312.155H261.789C261.693 312.347 261.549 312.536 261.357 312.721C261.164 312.907 260.918 313.061 260.616 313.184C260.314 313.306 259.953 313.368 259.532 313.368ZM259.855 312.175C260.266 312.175 260.618 312.093 260.909 311.931C261.204 311.769 261.428 311.556 261.58 311.295C261.736 311.029 261.814 310.746 261.814 310.444V309.46C261.761 309.513 261.658 309.563 261.506 309.609C261.357 309.652 261.186 309.69 260.994 309.724C260.802 309.753 260.614 309.782 260.432 309.808C260.25 309.831 260.097 309.851 259.975 309.868C259.686 309.904 259.423 309.966 259.184 310.052C258.949 310.138 258.76 310.262 258.617 310.425C258.478 310.584 258.409 310.796 258.409 311.061C258.409 311.429 258.544 311.707 258.816 311.896C259.088 312.082 259.434 312.175 259.855 312.175ZM265.281 316.062V305.562H266.732V306.8H266.857C266.943 306.641 267.067 306.457 267.229 306.248C267.392 306.04 267.617 305.857 267.906 305.702C268.194 305.542 268.575 305.463 269.049 305.463C269.665 305.463 270.216 305.619 270.7 305.93C271.183 306.242 271.563 306.691 271.838 307.278C272.116 307.864 272.256 308.57 272.256 309.395C272.256 310.221 272.118 310.928 271.843 311.518C271.568 312.105 271.19 312.557 270.71 312.876C270.229 313.19 269.68 313.348 269.064 313.348C268.6 313.348 268.22 313.27 267.925 313.114C267.634 312.958 267.405 312.776 267.239 312.567C267.074 312.359 266.946 312.173 266.857 312.011H266.767V316.062H265.281ZM266.737 309.381C266.737 309.917 266.815 310.388 266.971 310.792C267.127 311.197 267.352 311.513 267.647 311.742C267.942 311.967 268.303 312.08 268.731 312.08C269.175 312.08 269.546 311.962 269.844 311.727C270.143 311.489 270.368 311.165 270.521 310.758C270.676 310.35 270.754 309.891 270.754 309.381C270.754 308.877 270.678 308.424 270.526 308.023C270.376 307.622 270.151 307.306 269.849 307.074C269.551 306.842 269.178 306.726 268.731 306.726C268.3 306.726 267.935 306.837 267.637 307.059C267.342 307.281 267.118 307.591 266.966 307.989C266.813 308.386 266.737 308.85 266.737 309.381ZM273.921 316.062V305.562H275.373V306.8H275.497C275.583 306.641 275.708 306.457 275.87 306.248C276.032 306.04 276.258 305.857 276.546 305.702C276.835 305.542 277.216 305.463 277.69 305.463C278.306 305.463 278.856 305.619 279.34 305.93C279.824 306.242 280.204 306.691 280.479 307.278C280.757 307.864 280.896 308.57 280.896 309.395C280.896 310.221 280.759 310.928 280.484 311.518C280.209 312.105 279.831 312.557 279.35 312.876C278.87 313.19 278.321 313.348 277.705 313.348C277.241 313.348 276.861 313.27 276.566 313.114C276.274 312.958 276.046 312.776 275.88 312.567C275.714 312.359 275.587 312.173 275.497 312.011H275.408V316.062H273.921ZM275.378 309.381C275.378 309.917 275.456 310.388 275.612 310.792C275.767 311.197 275.993 311.513 276.288 311.742C276.583 311.967 276.944 312.08 277.371 312.08C277.816 312.08 278.187 311.962 278.485 311.727C278.783 311.489 279.009 311.165 279.161 310.758C279.317 310.35 279.395 309.891 279.395 309.381C279.395 308.877 279.319 308.424 279.166 308.023C279.017 307.622 278.792 307.306 278.49 307.074C278.192 306.842 277.819 306.726 277.371 306.726C276.941 306.726 276.576 306.837 276.278 307.059C275.983 307.281 275.759 307.591 275.607 307.989C275.454 308.386 275.378 308.85 275.378 309.381ZM285.853 313.353C285.101 313.353 284.453 313.192 283.909 312.871C283.369 312.546 282.951 312.09 282.656 311.503C282.365 310.913 282.219 310.222 282.219 309.43C282.219 308.648 282.365 307.959 282.656 307.362C282.951 306.765 283.362 306.3 283.889 305.965C284.42 305.63 285.039 305.463 285.749 305.463C286.179 305.463 286.597 305.534 287.001 305.677C287.406 305.819 287.769 306.043 288.09 306.348C288.412 306.653 288.665 307.049 288.851 307.536C289.036 308.02 289.129 308.608 289.129 309.301V309.828H283.059V308.714H287.673C287.673 308.323 287.593 307.977 287.434 307.675C287.275 307.37 287.051 307.13 286.763 306.954C286.478 306.779 286.143 306.691 285.759 306.691C285.341 306.691 284.976 306.794 284.665 306.999C284.357 307.201 284.118 307.466 283.949 307.795C283.783 308.119 283.7 308.472 283.7 308.854V309.724C283.7 310.234 283.79 310.668 283.969 311.026C284.151 311.384 284.405 311.658 284.729 311.846C285.054 312.032 285.434 312.125 285.868 312.125C286.15 312.125 286.406 312.085 286.638 312.006C286.871 311.923 287.071 311.8 287.24 311.638C287.409 311.475 287.538 311.275 287.628 311.036L289.035 311.29C288.922 311.704 288.72 312.067 288.428 312.378C288.14 312.687 287.777 312.927 287.339 313.099C286.905 313.268 286.41 313.353 285.853 313.353ZM292.265 308.665V313.199H290.779V305.562H292.205V306.805H292.3C292.476 306.401 292.751 306.076 293.125 305.831C293.503 305.586 293.979 305.463 294.552 305.463C295.072 305.463 295.528 305.572 295.919 305.791C296.31 306.006 296.614 306.328 296.829 306.756C297.044 307.183 297.152 307.712 297.152 308.341V313.199H295.666V308.52C295.666 307.967 295.521 307.534 295.233 307.223C294.945 306.908 294.549 306.751 294.045 306.751C293.7 306.751 293.394 306.825 293.125 306.974C292.86 307.123 292.65 307.342 292.494 307.631C292.341 307.916 292.265 308.26 292.265 308.665ZM302.437 313.353C301.685 313.353 301.037 313.192 300.493 312.871C299.953 312.546 299.535 312.09 299.24 311.503C298.949 310.913 298.803 310.222 298.803 309.43C298.803 308.648 298.949 307.959 299.24 307.362C299.535 306.765 299.946 306.3 300.473 305.965C301.003 305.63 301.623 305.463 302.333 305.463C302.763 305.463 303.181 305.534 303.585 305.677C303.99 305.819 304.353 306.043 304.674 306.348C304.996 306.653 305.249 307.049 305.435 307.536C305.62 308.02 305.713 308.608 305.713 309.301V309.828H299.643V308.714H304.257C304.257 308.323 304.177 307.977 304.018 307.675C303.859 307.37 303.635 307.13 303.347 306.954C303.062 306.779 302.727 306.691 302.343 306.691C301.925 306.691 301.56 306.794 301.249 306.999C300.941 307.201 300.702 307.466 300.533 307.795C300.367 308.119 300.284 308.472 300.284 308.854V309.724C300.284 310.234 300.374 310.668 300.553 311.026C300.735 311.384 300.989 311.658 301.313 311.846C301.638 312.032 302.018 312.125 302.452 312.125C302.734 312.125 302.99 312.085 303.222 312.006C303.454 311.923 303.655 311.8 303.824 311.638C303.993 311.475 304.122 311.275 304.212 311.036L305.619 311.29C305.506 311.704 305.304 312.067 305.012 312.378C304.724 312.687 304.361 312.927 303.923 313.099C303.489 313.268 302.994 313.353 302.437 313.353ZM310.221 313.348C309.605 313.348 309.055 313.19 308.571 312.876C308.09 312.557 307.712 312.105 307.437 311.518C307.165 310.928 307.029 310.221 307.029 309.395C307.029 308.57 307.167 307.864 307.442 307.278C307.721 306.691 308.102 306.242 308.586 305.93C309.069 305.619 309.618 305.463 310.231 305.463C310.705 305.463 311.086 305.542 311.375 305.702C311.666 305.857 311.892 306.04 312.051 306.248C312.213 306.457 312.339 306.641 312.429 306.8H312.518V303.017H314.005V313.199H312.553V312.011H312.429C312.339 312.173 312.21 312.359 312.041 312.567C311.875 312.776 311.646 312.958 311.355 313.114C311.063 313.27 310.685 313.348 310.221 313.348ZM310.549 312.08C310.977 312.08 311.338 311.967 311.633 311.742C311.931 311.513 312.157 311.197 312.309 310.792C312.465 310.388 312.543 309.917 312.543 309.381C312.543 308.85 312.467 308.386 312.314 307.989C312.162 307.591 311.938 307.281 311.643 307.059C311.348 306.837 310.984 306.726 310.549 306.726C310.102 306.726 309.729 306.842 309.431 307.074C309.132 307.306 308.907 307.622 308.755 308.023C308.605 308.424 308.531 308.877 308.531 309.381C308.531 309.891 308.607 310.35 308.76 310.758C308.912 311.165 309.137 311.489 309.436 311.727C309.737 311.962 310.109 312.08 310.549 312.08Z" fill="#4D4D4D"/>
<rect x="177" y="326.199" width="167" height="16" rx="2" fill="#F1F6EE"/>
<path d="M310.293 376.906C310.683 377.296 311.317 377.296 311.707 376.906L318.071 370.542C318.462 370.151 318.462 369.518 318.071 369.128C317.681 368.737 317.047 368.737 316.657 369.128L311 374.785L305.343 369.128C304.953 368.737 304.319 368.737 303.929 369.128C303.538 369.518 303.538 370.151 303.929 370.542L310.293 376.906ZM310 360.199V376.199H312V360.199H310Z" fill="#B3B3B3"/>
<rect x="161" y="392.199" width="300" height="64" rx="4" fill="#F6F4EE"/>
<path d="M181.415 417.199H178.119V407.017H181.519C182.517 407.017 183.374 407.221 184.089 407.628C184.805 408.033 185.354 408.614 185.735 409.373C186.12 410.129 186.312 411.036 186.312 412.093C186.312 413.154 186.118 414.065 185.73 414.827C185.346 415.59 184.789 416.176 184.06 416.587C183.33 416.995 182.449 417.199 181.415 417.199ZM179.655 415.856H181.33C182.106 415.856 182.75 415.711 183.264 415.419C183.778 415.124 184.162 414.698 184.418 414.141C184.673 413.581 184.8 412.898 184.8 412.093C184.8 411.294 184.673 410.616 184.418 410.06C184.166 409.503 183.79 409.08 183.289 408.792C182.789 408.503 182.167 408.359 181.425 408.359H179.655V415.856ZM191.319 417.353C190.604 417.353 189.979 417.189 189.445 416.861C188.912 416.533 188.497 416.073 188.202 415.484C187.907 414.894 187.76 414.204 187.76 413.415C187.76 412.623 187.907 411.931 188.202 411.337C188.497 410.744 188.912 410.283 189.445 409.955C189.979 409.627 190.604 409.463 191.319 409.463C192.035 409.463 192.66 409.627 193.194 409.955C193.727 410.283 194.142 410.744 194.437 411.337C194.732 411.931 194.879 412.623 194.879 413.415C194.879 414.204 194.732 414.894 194.437 415.484C194.142 416.073 193.727 416.533 193.194 416.861C192.66 417.189 192.035 417.353 191.319 417.353ZM191.324 416.105C191.788 416.105 192.173 415.982 192.478 415.737C192.783 415.492 193.008 415.165 193.154 414.758C193.303 414.35 193.378 413.901 193.378 413.41C193.378 412.923 193.303 412.476 193.154 412.068C193.008 411.657 192.783 411.327 192.478 411.079C192.173 410.83 191.788 410.706 191.324 410.706C190.857 410.706 190.469 410.83 190.161 411.079C189.856 411.327 189.629 411.657 189.48 412.068C189.334 412.476 189.261 412.923 189.261 413.41C189.261 413.901 189.334 414.35 189.48 414.758C189.629 415.165 189.856 415.492 190.161 415.737C190.469 415.982 190.857 416.105 191.324 416.105ZM203.808 409.562V410.756H199.637V409.562H203.808ZM200.756 407.733H202.242V414.957C202.242 415.245 202.285 415.462 202.371 415.608C202.457 415.75 202.568 415.848 202.704 415.901C202.844 415.951 202.994 415.976 203.157 415.976C203.276 415.976 203.381 415.967 203.47 415.951C203.559 415.934 203.629 415.921 203.679 415.911L203.947 417.139C203.861 417.172 203.738 417.205 203.579 417.239C203.42 417.275 203.221 417.295 202.983 417.298C202.592 417.305 202.227 417.235 201.889 417.089C201.551 416.944 201.278 416.718 201.069 416.413C200.86 416.108 200.756 415.725 200.756 415.265V407.733ZM207.103 412.665V417.199H205.616V407.017H207.083V410.805H207.178C207.357 410.394 207.63 410.068 207.998 409.826C208.366 409.584 208.846 409.463 209.44 409.463C209.963 409.463 210.421 409.571 210.812 409.786C211.206 410.002 211.511 410.323 211.727 410.751C211.945 411.175 212.055 411.705 212.055 412.341V417.199H210.568V412.52C210.568 411.96 210.424 411.526 210.136 411.218C209.847 410.906 209.446 410.751 208.933 410.751C208.581 410.751 208.266 410.825 207.988 410.974C207.713 411.123 207.496 411.342 207.337 411.631C207.181 411.916 207.103 412.26 207.103 412.665ZM214.038 417.199V409.562H215.525V417.199H214.038ZM214.789 408.384C214.531 408.384 214.308 408.298 214.123 408.126C213.941 407.95 213.849 407.741 213.849 407.499C213.849 407.254 213.941 407.045 214.123 406.873C214.308 406.697 214.531 406.609 214.789 406.609C215.048 406.609 215.268 406.697 215.45 406.873C215.636 407.045 215.729 407.254 215.729 407.499C215.729 407.741 215.636 407.95 215.45 408.126C215.268 408.298 215.048 408.384 214.789 408.384ZM223.247 411.427L221.9 411.665C221.843 411.493 221.754 411.329 221.631 411.173C221.512 411.017 221.349 410.89 221.144 410.79C220.939 410.691 220.682 410.641 220.373 410.641C219.952 410.641 219.601 410.736 219.319 410.925C219.038 411.11 218.897 411.35 218.897 411.645C218.897 411.901 218.991 412.106 219.18 412.262C219.369 412.418 219.674 412.545 220.095 412.645L221.308 412.923C222.011 413.086 222.534 413.336 222.879 413.674C223.224 414.012 223.396 414.451 223.396 414.991C223.396 415.449 223.264 415.856 222.998 416.214C222.737 416.569 222.37 416.847 221.9 417.05C221.432 417.252 220.89 417.353 220.274 417.353C219.419 417.353 218.721 417.171 218.181 416.806C217.641 416.438 217.309 415.916 217.187 415.24L218.623 415.021C218.713 415.396 218.897 415.679 219.175 415.871C219.454 416.06 219.817 416.155 220.264 416.155C220.751 416.155 221.141 416.054 221.432 415.851C221.724 415.646 221.87 415.396 221.87 415.101C221.87 414.862 221.78 414.662 221.601 414.499C221.426 414.337 221.156 414.214 220.791 414.131L219.498 413.848C218.786 413.685 218.259 413.427 217.917 413.072C217.579 412.718 217.41 412.269 217.41 411.725C217.41 411.274 217.536 410.88 217.788 410.542C218.04 410.204 218.388 409.94 218.832 409.751C219.276 409.559 219.785 409.463 220.358 409.463C221.184 409.463 221.833 409.642 222.307 410C222.781 410.355 223.095 410.83 223.247 411.427Z" fill="#4D4D4D"/>
<rect x="177" y="430.199" width="16" height="16" rx="2" fill="#EFEDF7"/>
<rect x="201" y="430.199" width="167" height="16" rx="2" fill="#EFEDF7"/>
<path d="M187.293 480.906C187.683 481.296 188.317 481.296 188.707 480.906L195.071 474.542C195.462 474.151 195.462 473.518 195.071 473.128C194.681 472.737 194.047 472.737 193.657 473.128L188 478.785L182.343 473.128C181.953 472.737 181.319 472.737 180.929 473.128C180.538 473.518 180.538 474.151 180.929 474.542L187.293 480.906ZM187 464.199V480.199H189V464.199H187Z" fill="#B3B3B3"/>
<path d="M411.293 480.906C411.683 481.296 412.317 481.296 412.707 480.906L419.071 474.542C419.462 474.151 419.462 473.518 419.071 473.128C418.681 472.737 418.047 472.737 417.657 473.128L412 478.785L406.343 473.128C405.953 472.737 405.319 472.737 404.929 473.128C404.538 473.518 404.538 474.151 404.929 474.542L411.293 480.906ZM411 464.199V480.199H413V464.199H411Z" fill="#B3B3B3"/>
<path d="M411.293 584.906C411.683 585.296 412.317 585.296 412.707 584.906L419.071 578.542C419.462 578.151 419.462 577.518 419.071 577.128C418.681 576.737 418.047 576.737 417.657 577.128L412 582.785L406.343 577.128C405.953 576.737 405.319 576.737 404.929 577.128C404.538 577.518 404.538 578.151 404.929 578.542L411.293 584.906ZM411 568.199V584.199H413V568.199H411Z" fill="#B3B3B3"/>
<rect x="88" y="496.199" width="200" height="64" rx="4" fill="#F6F4EE"/>
<path d="M105.979 521.199H104.348L108.012 511.017H109.787L113.451 521.199H111.82L108.942 512.866H108.862L105.979 521.199ZM106.252 517.212H111.542V518.504H106.252V517.212ZM116.289 516.665V521.199H114.802V513.562H116.229V514.805H116.323C116.499 514.401 116.774 514.076 117.149 513.831C117.526 513.586 118.002 513.463 118.575 513.463C119.096 513.463 119.552 513.572 119.943 513.791C120.334 514.006 120.637 514.328 120.852 514.756C121.068 515.183 121.176 515.712 121.176 516.341V521.199H119.689V516.52C119.689 515.967 119.545 515.534 119.257 515.223C118.968 514.908 118.572 514.751 118.068 514.751C117.724 514.751 117.417 514.825 117.149 514.974C116.883 515.123 116.673 515.342 116.517 515.631C116.365 515.916 116.289 516.26 116.289 516.665ZM126.028 521.348C125.411 521.348 124.861 521.19 124.377 520.876C123.897 520.557 123.519 520.105 123.244 519.518C122.972 518.928 122.836 518.221 122.836 517.395C122.836 516.57 122.974 515.864 123.249 515.278C123.527 514.691 123.908 514.242 124.392 513.93C124.876 513.619 125.425 513.463 126.038 513.463C126.512 513.463 126.893 513.542 127.181 513.702C127.473 513.857 127.698 514.04 127.857 514.248C128.02 514.457 128.146 514.641 128.235 514.8H128.325V511.017H129.811V521.199H128.36V520.011H128.235C128.146 520.173 128.017 520.359 127.847 520.567C127.682 520.776 127.453 520.958 127.161 521.114C126.87 521.27 126.492 521.348 126.028 521.348ZM126.356 520.08C126.784 520.08 127.145 519.967 127.44 519.742C127.738 519.513 127.963 519.197 128.116 518.792C128.272 518.388 128.35 517.917 128.35 517.381C128.35 516.85 128.273 516.386 128.121 515.989C127.968 515.591 127.745 515.281 127.45 515.059C127.155 514.837 126.79 514.726 126.356 514.726C125.909 514.726 125.536 514.842 125.237 515.074C124.939 515.306 124.714 515.622 124.561 516.023C124.412 516.424 124.338 516.877 124.338 517.381C124.338 517.891 124.414 518.35 124.566 518.758C124.719 519.165 124.944 519.489 125.242 519.727C125.544 519.962 125.915 520.08 126.356 520.08ZM138.497 521.348C137.88 521.348 137.33 521.19 136.846 520.876C136.365 520.557 135.988 520.105 135.713 519.518C135.441 518.928 135.305 518.221 135.305 517.395C135.305 516.57 135.442 515.864 135.718 515.278C135.996 514.691 136.377 514.242 136.861 513.93C137.345 513.619 137.893 513.463 138.507 513.463C138.981 513.463 139.362 513.542 139.65 513.702C139.942 513.857 140.167 514.04 140.326 514.248C140.489 514.457 140.615 514.641 140.704 514.8H140.794V511.017H142.28V521.199H140.828V520.011H140.704C140.615 520.173 140.485 520.359 140.316 520.567C140.151 520.776 139.922 520.958 139.63 521.114C139.338 521.27 138.961 521.348 138.497 521.348ZM138.825 520.08C139.252 520.08 139.614 519.967 139.909 519.742C140.207 519.513 140.432 519.197 140.585 518.792C140.74 518.388 140.818 517.917 140.818 517.381C140.818 516.85 140.742 516.386 140.59 515.989C140.437 515.591 140.213 515.281 139.919 515.059C139.624 514.837 139.259 514.726 138.825 514.726C138.377 514.726 138.004 514.842 137.706 515.074C137.408 515.306 137.182 515.622 137.03 516.023C136.881 516.424 136.806 516.877 136.806 517.381C136.806 517.891 136.883 518.35 137.035 518.758C137.187 519.165 137.413 519.489 137.711 519.727C138.013 519.962 138.384 520.08 138.825 520.08ZM147.618 521.353C146.902 521.353 146.278 521.189 145.744 520.861C145.21 520.533 144.796 520.073 144.501 519.484C144.206 518.894 144.059 518.204 144.059 517.415C144.059 516.623 144.206 515.931 144.501 515.337C144.796 514.744 145.21 514.283 145.744 513.955C146.278 513.627 146.902 513.463 147.618 513.463C148.334 513.463 148.959 513.627 149.493 513.955C150.026 514.283 150.44 514.744 150.735 515.337C151.03 515.931 151.178 516.623 151.178 517.415C151.178 518.204 151.03 518.894 150.735 519.484C150.44 520.073 150.026 520.533 149.493 520.861C148.959 521.189 148.334 521.353 147.618 521.353ZM147.623 520.105C148.087 520.105 148.472 519.982 148.777 519.737C149.082 519.492 149.307 519.165 149.453 518.758C149.602 518.35 149.676 517.901 149.676 517.41C149.676 516.923 149.602 516.476 149.453 516.068C149.307 515.657 149.082 515.327 148.777 515.079C148.472 514.83 148.087 514.706 147.623 514.706C147.156 514.706 146.768 514.83 146.46 515.079C146.155 515.327 145.928 515.657 145.779 516.068C145.633 516.476 145.56 516.923 145.56 517.41C145.56 517.901 145.633 518.35 145.779 518.758C145.928 519.165 146.155 519.492 146.46 519.737C146.768 519.982 147.156 520.105 147.623 520.105ZM160.107 513.562V514.756H155.936V513.562H160.107ZM157.054 511.733H158.541V518.957C158.541 519.245 158.584 519.462 158.67 519.608C158.756 519.75 158.867 519.848 159.003 519.901C159.142 519.951 159.293 519.976 159.456 519.976C159.575 519.976 159.679 519.967 159.769 519.951C159.858 519.934 159.928 519.921 159.978 519.911L160.246 521.139C160.16 521.172 160.037 521.205 159.878 521.239C159.719 521.275 159.52 521.295 159.282 521.298C158.891 521.305 158.526 521.235 158.188 521.089C157.85 520.944 157.576 520.718 157.368 520.413C157.159 520.108 157.054 519.725 157.054 519.265V511.733ZM163.402 516.665V521.199H161.915V511.017H163.382V514.805H163.476C163.655 514.394 163.929 514.068 164.297 513.826C164.665 513.584 165.145 513.463 165.738 513.463C166.262 513.463 166.72 513.571 167.111 513.786C167.505 514.002 167.81 514.323 168.025 514.751C168.244 515.175 168.354 515.705 168.354 516.341V521.199H166.867V516.52C166.867 515.96 166.723 515.526 166.434 515.218C166.146 514.906 165.745 514.751 165.231 514.751C164.88 514.751 164.565 514.825 164.287 514.974C164.012 515.123 163.795 515.342 163.635 515.631C163.48 515.916 163.402 516.26 163.402 516.665ZM170.337 521.199V513.562H171.824V521.199H170.337ZM171.088 512.384C170.829 512.384 170.607 512.298 170.422 512.126C170.239 511.95 170.148 511.741 170.148 511.499C170.148 511.254 170.239 511.045 170.422 510.873C170.607 510.697 170.829 510.609 171.088 510.609C171.346 510.609 171.567 510.697 171.749 510.873C171.935 511.045 172.028 511.254 172.028 511.499C172.028 511.741 171.935 511.95 171.749 512.126C171.567 512.298 171.346 512.384 171.088 512.384ZM179.546 515.427L178.199 515.665C178.142 515.493 178.053 515.329 177.93 515.173C177.811 515.017 177.648 514.89 177.443 514.79C177.237 514.691 176.98 514.641 176.672 514.641C176.251 514.641 175.9 514.736 175.618 514.925C175.337 515.11 175.196 515.35 175.196 515.645C175.196 515.901 175.29 516.106 175.479 516.262C175.668 516.418 175.973 516.545 176.394 516.645L177.607 516.923C178.31 517.086 178.833 517.336 179.178 517.674C179.523 518.012 179.695 518.451 179.695 518.991C179.695 519.449 179.562 519.856 179.297 520.214C179.035 520.569 178.669 520.847 178.199 521.05C177.731 521.252 177.189 521.353 176.573 521.353C175.718 521.353 175.02 521.171 174.48 520.806C173.94 520.438 173.608 519.916 173.485 519.24L174.922 519.021C175.012 519.396 175.196 519.679 175.474 519.871C175.752 520.06 176.115 520.155 176.563 520.155C177.05 520.155 177.44 520.054 177.731 519.851C178.023 519.646 178.169 519.396 178.169 519.101C178.169 518.862 178.079 518.662 177.9 518.499C177.725 518.337 177.454 518.214 177.09 518.131L175.797 517.848C175.085 517.685 174.558 517.427 174.216 517.072C173.878 516.718 173.709 516.269 173.709 515.725C173.709 515.274 173.835 514.88 174.087 514.542C174.339 514.204 174.687 513.94 175.131 513.751C175.575 513.559 176.084 513.463 176.657 513.463C177.483 513.463 178.132 513.642 178.606 514C179.08 514.355 179.393 514.83 179.546 515.427Z" fill="#4D4D4D"/>
<rect x="104" y="534.199" width="16" height="16" rx="2" fill="#F7EFED"/>
<rect x="128" y="534.199" width="118" height="16" rx="2" fill="#F7EFED"/>
<rect x="312" y="600.199" width="200" height="64" rx="4" fill="#F6F4EE"/>
<path d="M332.415 625.199H329.119V615.017H332.519C333.517 615.017 334.374 615.221 335.089 615.628C335.805 616.033 336.354 616.614 336.735 617.373C337.12 618.129 337.312 619.036 337.312 620.093C337.312 621.154 337.118 622.065 336.73 622.827C336.346 623.59 335.789 624.176 335.06 624.587C334.33 624.995 333.449 625.199 332.415 625.199ZM330.655 623.856H332.33C333.106 623.856 333.75 623.711 334.264 623.419C334.778 623.124 335.162 622.698 335.418 622.141C335.673 621.581 335.8 620.898 335.8 620.093C335.8 619.294 335.673 618.616 335.418 618.06C335.166 617.503 334.79 617.08 334.289 616.792C333.789 616.503 333.167 616.359 332.425 616.359H330.655V623.856ZM342.319 625.353C341.604 625.353 340.979 625.189 340.445 624.861C339.912 624.533 339.497 624.073 339.202 623.484C338.907 622.894 338.76 622.204 338.76 621.415C338.76 620.623 338.907 619.931 339.202 619.337C339.497 618.744 339.912 618.283 340.445 617.955C340.979 617.627 341.604 617.463 342.319 617.463C343.035 617.463 343.66 617.627 344.194 617.955C344.727 618.283 345.142 618.744 345.437 619.337C345.732 619.931 345.879 620.623 345.879 621.415C345.879 622.204 345.732 622.894 345.437 623.484C345.142 624.073 344.727 624.533 344.194 624.861C343.66 625.189 343.035 625.353 342.319 625.353ZM342.324 624.105C342.788 624.105 343.173 623.982 343.478 623.737C343.783 623.492 344.008 623.165 344.154 622.758C344.303 622.35 344.378 621.901 344.378 621.41C344.378 620.923 344.303 620.476 344.154 620.068C344.008 619.657 343.783 619.327 343.478 619.079C343.173 618.83 342.788 618.706 342.324 618.706C341.857 618.706 341.469 618.83 341.161 619.079C340.856 619.327 340.629 619.657 340.48 620.068C340.334 620.476 340.261 620.923 340.261 621.41C340.261 621.901 340.334 622.35 340.48 622.758C340.629 623.165 340.856 623.492 341.161 623.737C341.469 623.982 341.857 624.105 342.324 624.105ZM354.808 617.562V618.756H350.637V617.562H354.808ZM351.756 615.733H353.242V622.957C353.242 623.245 353.285 623.462 353.371 623.608C353.457 623.75 353.568 623.848 353.704 623.901C353.844 623.951 353.994 623.976 354.157 623.976C354.276 623.976 354.381 623.967 354.47 623.951C354.559 623.934 354.629 623.921 354.679 623.911L354.947 625.139C354.861 625.172 354.738 625.205 354.579 625.239C354.42 625.275 354.221 625.295 353.983 625.298C353.592 625.305 353.227 625.235 352.889 625.089C352.551 624.944 352.278 624.718 352.069 624.413C351.86 624.108 351.756 623.725 351.756 623.265V615.733ZM358.103 620.665V625.199H356.616V615.017H358.083V618.805H358.178C358.357 618.394 358.63 618.068 358.998 617.826C359.366 617.584 359.846 617.463 360.44 617.463C360.963 617.463 361.421 617.571 361.812 617.786C362.206 618.002 362.511 618.323 362.727 618.751C362.945 619.175 363.055 619.705 363.055 620.341V625.199H361.568V620.52C361.568 619.96 361.424 619.526 361.136 619.218C360.847 618.906 360.446 618.751 359.933 618.751C359.581 618.751 359.266 618.825 358.988 618.974C358.713 619.123 358.496 619.342 358.337 619.631C358.181 619.916 358.103 620.26 358.103 620.665ZM365.038 625.199V617.562H366.525V625.199H365.038ZM365.789 616.384C365.531 616.384 365.308 616.298 365.123 616.126C364.941 615.95 364.849 615.741 364.849 615.499C364.849 615.254 364.941 615.045 365.123 614.873C365.308 614.697 365.531 614.609 365.789 614.609C366.048 614.609 366.268 614.697 366.45 614.873C366.636 615.045 366.729 615.254 366.729 615.499C366.729 615.741 366.636 615.95 366.45 616.126C366.268 616.298 366.048 616.384 365.789 616.384ZM374.247 619.427L372.9 619.665C372.843 619.493 372.754 619.329 372.631 619.173C372.512 619.017 372.349 618.89 372.144 618.79C371.939 618.691 371.682 618.641 371.373 618.641C370.952 618.641 370.601 618.736 370.319 618.925C370.038 619.11 369.897 619.35 369.897 619.645C369.897 619.901 369.991 620.106 370.18 620.262C370.369 620.418 370.674 620.545 371.095 620.645L372.308 620.923C373.011 621.086 373.534 621.336 373.879 621.674C374.224 622.012 374.396 622.451 374.396 622.991C374.396 623.449 374.264 623.856 373.998 624.214C373.737 624.569 373.37 624.847 372.9 625.05C372.432 625.252 371.89 625.353 371.274 625.353C370.419 625.353 369.721 625.171 369.181 624.806C368.641 624.438 368.309 623.916 368.187 623.24L369.623 623.021C369.713 623.396 369.897 623.679 370.175 623.871C370.454 624.06 370.817 624.155 371.264 624.155C371.751 624.155 372.141 624.054 372.432 623.851C372.724 623.646 372.87 623.396 372.87 623.101C372.87 622.862 372.78 622.662 372.601 622.499C372.426 622.337 372.156 622.214 371.791 622.131L370.498 621.848C369.786 621.685 369.259 621.427 368.917 621.072C368.579 620.718 368.41 620.269 368.41 619.725C368.41 619.274 368.536 618.88 368.788 618.542C369.04 618.204 369.388 617.94 369.832 617.751C370.276 617.559 370.785 617.463 371.358 617.463C372.184 617.463 372.833 617.642 373.307 618C373.781 618.355 374.095 618.83 374.247 619.427Z" fill="#4D4D4D"/>
<rect x="328" y="638.199" width="16" height="16" rx="2" fill="#EDF3F7"/>
<rect x="352" y="638.199" width="145" height="16" rx="2" fill="#EDF3F7"/>
<rect x="312" y="496.199" width="200" height="64" rx="4" fill="#F6F4EE"/>
<path d="M330.655 511.017V521.199H329.119V511.017H330.655ZM336.407 513.562V514.756H332.092V513.562H336.407ZM333.275 521.199V512.677C333.275 512.2 333.379 511.804 333.588 511.489C333.797 511.171 334.074 510.934 334.418 510.778C334.763 510.619 335.138 510.54 335.542 510.54C335.84 510.54 336.095 510.564 336.308 510.614C336.52 510.661 336.677 510.704 336.78 510.743L336.432 511.947C336.362 511.927 336.273 511.904 336.163 511.877C336.054 511.847 335.921 511.832 335.766 511.832C335.404 511.832 335.146 511.922 334.99 512.101C334.838 512.28 334.761 512.538 334.761 512.876V521.199H333.275ZM345.21 513.562V514.756H341.039V513.562H345.21ZM342.158 511.733H343.644V518.957C343.644 519.245 343.687 519.462 343.774 519.608C343.86 519.75 343.971 519.848 344.107 519.901C344.246 519.951 344.397 519.976 344.559 519.976C344.678 519.976 344.783 519.967 344.872 519.951C344.962 519.934 345.031 519.921 345.081 519.911L345.35 521.139C345.263 521.172 345.141 521.205 344.982 521.239C344.823 521.275 344.624 521.295 344.385 521.298C343.994 521.305 343.629 521.235 343.291 521.089C342.953 520.944 342.68 520.718 342.471 520.413C342.262 520.108 342.158 519.725 342.158 519.265V511.733ZM348.505 516.665V521.199H347.019V511.017H348.485V514.805H348.58C348.759 514.394 349.032 514.068 349.4 513.826C349.768 513.584 350.249 513.463 350.842 513.463C351.366 513.463 351.823 513.571 352.214 513.786C352.609 514.002 352.913 514.323 353.129 514.751C353.348 515.175 353.457 515.705 353.457 516.341V521.199H351.971V516.52C351.971 515.96 351.826 515.526 351.538 515.218C351.25 514.906 350.849 514.751 350.335 514.751C349.984 514.751 349.669 514.825 349.39 514.974C349.115 515.123 348.898 515.342 348.739 515.631C348.583 515.916 348.505 516.26 348.505 516.665ZM355.441 521.199V513.562H356.927V521.199H355.441ZM356.191 512.384C355.933 512.384 355.711 512.298 355.525 512.126C355.343 511.95 355.252 511.741 355.252 511.499C355.252 511.254 355.343 511.045 355.525 510.873C355.711 510.697 355.933 510.609 356.191 510.609C356.45 510.609 356.67 510.697 356.853 510.873C357.038 511.045 357.131 511.254 357.131 511.499C357.131 511.741 357.038 511.95 356.853 512.126C356.67 512.298 356.45 512.384 356.191 512.384ZM364.649 515.427L363.302 515.665C363.246 515.493 363.156 515.329 363.034 515.173C362.914 515.017 362.752 514.89 362.546 514.79C362.341 514.691 362.084 514.641 361.776 514.641C361.355 514.641 361.003 514.736 360.722 514.925C360.44 515.11 360.299 515.35 360.299 515.645C360.299 515.901 360.394 516.106 360.583 516.262C360.771 516.418 361.076 516.545 361.497 516.645L362.71 516.923C363.413 517.086 363.937 517.336 364.281 517.674C364.626 518.012 364.798 518.451 364.798 518.991C364.798 519.449 364.666 519.856 364.401 520.214C364.139 520.569 363.773 520.847 363.302 521.05C362.835 521.252 362.293 521.353 361.676 521.353C360.821 521.353 360.124 521.171 359.583 520.806C359.043 520.438 358.712 519.916 358.589 519.24L360.026 519.021C360.115 519.396 360.299 519.679 360.578 519.871C360.856 520.06 361.219 520.155 361.666 520.155C362.154 520.155 362.543 520.054 362.835 519.851C363.126 519.646 363.272 519.396 363.272 519.101C363.272 518.862 363.183 518.662 363.004 518.499C362.828 518.337 362.558 518.214 362.193 518.131L360.901 517.848C360.188 517.685 359.661 517.427 359.32 517.072C358.982 516.718 358.813 516.269 358.813 515.725C358.813 515.274 358.939 514.88 359.191 514.542C359.442 514.204 359.79 513.94 360.235 513.751C360.679 513.559 361.187 513.463 361.761 513.463C362.586 513.463 363.236 513.642 363.71 514C364.184 514.355 364.497 514.83 364.649 515.427ZM371.624 516.665V521.199H370.138V511.017H371.605V514.805H371.699C371.878 514.394 372.151 514.068 372.519 513.826C372.887 513.584 373.368 513.463 373.961 513.463C374.485 513.463 374.942 513.571 375.333 513.786C375.728 514.002 376.033 514.323 376.248 514.751C376.467 515.175 376.576 515.705 376.576 516.341V521.199H375.09V516.52C375.09 515.96 374.945 515.526 374.657 515.218C374.369 514.906 373.968 514.751 373.454 514.751C373.103 514.751 372.788 514.825 372.509 514.974C372.234 515.123 372.017 515.342 371.858 515.631C371.702 515.916 371.624 516.26 371.624 516.665ZM380.782 521.368C380.298 521.368 379.861 521.278 379.47 521.099C379.079 520.917 378.769 520.654 378.54 520.309C378.315 519.964 378.202 519.542 378.202 519.041C378.202 518.61 378.285 518.256 378.45 517.977C378.616 517.699 378.84 517.478 379.122 517.316C379.403 517.154 379.718 517.031 380.066 516.948C380.414 516.865 380.769 516.802 381.13 516.759C381.588 516.706 381.959 516.663 382.244 516.63C382.529 516.593 382.736 516.535 382.865 516.456C382.994 516.376 383.059 516.247 383.059 516.068V516.033C383.059 515.599 382.936 515.263 382.691 515.024C382.449 514.785 382.088 514.666 381.607 514.666C381.107 514.666 380.713 514.777 380.424 514.999C380.139 515.218 379.942 515.462 379.833 515.73L378.436 515.412C378.601 514.948 378.843 514.573 379.161 514.288C379.483 514 379.852 513.791 380.27 513.662C380.688 513.529 381.127 513.463 381.588 513.463C381.892 513.463 382.216 513.499 382.557 513.572C382.902 513.642 383.223 513.771 383.521 513.96C383.823 514.149 384.07 514.419 384.262 514.77C384.454 515.118 384.551 515.571 384.551 516.128V521.199H383.099V520.155H383.039C382.943 520.347 382.799 520.536 382.607 520.721C382.414 520.907 382.168 521.061 381.866 521.184C381.564 521.306 381.203 521.368 380.782 521.368ZM381.105 520.175C381.516 520.175 381.868 520.093 382.159 519.931C382.454 519.769 382.678 519.556 382.83 519.295C382.986 519.029 383.064 518.746 383.064 518.444V517.46C383.011 517.513 382.908 517.563 382.756 517.609C382.607 517.652 382.436 517.69 382.244 517.724C382.052 517.753 381.864 517.782 381.682 517.808C381.5 517.831 381.347 517.851 381.225 517.868C380.936 517.904 380.673 517.966 380.434 518.052C380.199 518.138 380.01 518.262 379.867 518.425C379.728 518.584 379.659 518.796 379.659 519.061C379.659 519.429 379.794 519.707 380.066 519.896C380.338 520.082 380.684 520.175 381.105 520.175ZM386.531 524.062V513.562H387.982V514.8H388.107C388.193 514.641 388.317 514.457 388.479 514.248C388.642 514.04 388.867 513.857 389.156 513.702C389.444 513.542 389.825 513.463 390.299 513.463C390.915 513.463 391.466 513.619 391.95 513.93C392.433 514.242 392.813 514.691 393.088 515.278C393.366 515.864 393.506 516.57 393.506 517.395C393.506 518.221 393.368 518.928 393.093 519.518C392.818 520.105 392.44 520.557 391.96 520.876C391.479 521.19 390.93 521.348 390.314 521.348C389.85 521.348 389.47 521.27 389.175 521.114C388.884 520.958 388.655 520.776 388.489 520.567C388.324 520.359 388.196 520.173 388.107 520.011H388.017V524.062H386.531ZM387.987 517.381C387.987 517.917 388.065 518.388 388.221 518.792C388.377 519.197 388.602 519.513 388.897 519.742C389.192 519.967 389.553 520.08 389.981 520.08C390.425 520.08 390.796 519.962 391.094 519.727C391.393 519.489 391.618 519.165 391.771 518.758C391.926 518.35 392.004 517.891 392.004 517.381C392.004 516.877 391.928 516.424 391.776 516.023C391.626 515.622 391.401 515.306 391.099 515.074C390.801 514.842 390.428 514.726 389.981 514.726C389.55 514.726 389.185 514.837 388.887 515.059C388.592 515.281 388.368 515.591 388.216 515.989C388.063 516.386 387.987 516.85 387.987 517.381ZM395.171 524.062V513.562H396.623V514.8H396.747C396.833 514.641 396.958 514.457 397.12 514.248C397.282 514.04 397.508 513.857 397.796 513.702C398.085 513.542 398.466 513.463 398.94 513.463C399.556 513.463 400.106 513.619 400.59 513.93C401.074 514.242 401.454 514.691 401.729 515.278C402.007 515.864 402.146 516.57 402.146 517.395C402.146 518.221 402.009 518.928 401.734 519.518C401.459 520.105 401.081 520.557 400.6 520.876C400.12 521.19 399.571 521.348 398.955 521.348C398.491 521.348 398.111 521.27 397.816 521.114C397.524 520.958 397.296 520.776 397.13 520.567C396.964 520.359 396.837 520.173 396.747 520.011H396.658V524.062H395.171ZM396.628 517.381C396.628 517.917 396.706 518.388 396.862 518.792C397.017 519.197 397.243 519.513 397.538 519.742C397.833 519.967 398.194 520.08 398.621 520.08C399.066 520.08 399.437 519.962 399.735 519.727C400.033 519.489 400.259 519.165 400.411 518.758C400.567 518.35 400.645 517.891 400.645 517.381C400.645 516.877 400.569 516.424 400.416 516.023C400.267 515.622 400.042 515.306 399.74 515.074C399.442 514.842 399.069 514.726 398.621 514.726C398.191 514.726 397.826 514.837 397.528 515.059C397.233 515.281 397.009 515.591 396.857 515.989C396.704 516.386 396.628 516.85 396.628 517.381ZM407.103 521.353C406.351 521.353 405.703 521.192 405.159 520.871C404.619 520.546 404.201 520.09 403.906 519.503C403.615 518.913 403.469 518.222 403.469 517.43C403.469 516.648 403.615 515.959 403.906 515.362C404.201 514.765 404.612 514.3 405.139 513.965C405.67 513.63 406.289 513.463 406.999 513.463C407.429 513.463 407.847 513.534 408.251 513.677C408.656 513.819 409.019 514.043 409.34 514.348C409.662 514.653 409.915 515.049 410.101 515.536C410.286 516.02 410.379 516.608 410.379 517.301V517.828H404.309V516.714H408.923C408.923 516.323 408.843 515.977 408.684 515.675C408.525 515.37 408.301 515.13 408.013 514.954C407.728 514.779 407.393 514.691 407.009 514.691C406.591 514.691 406.226 514.794 405.915 514.999C405.607 515.201 405.368 515.466 405.199 515.795C405.033 516.119 404.95 516.472 404.95 516.854V517.724C404.95 518.234 405.04 518.668 405.219 519.026C405.401 519.384 405.655 519.658 405.979 519.846C406.304 520.032 406.684 520.125 407.118 520.125C407.4 520.125 407.656 520.085 407.888 520.006C408.121 519.923 408.321 519.8 408.49 519.638C408.659 519.475 408.788 519.275 408.878 519.036L410.285 519.29C410.172 519.704 409.97 520.067 409.678 520.378C409.39 520.687 409.027 520.927 408.589 521.099C408.155 521.268 407.66 521.353 407.103 521.353ZM413.515 516.665V521.199H412.029V513.562H413.455V514.805H413.55C413.726 514.401 414.001 514.076 414.375 513.831C414.753 513.586 415.229 513.463 415.802 513.463C416.322 513.463 416.778 513.572 417.169 513.791C417.56 514.006 417.864 514.328 418.079 514.756C418.294 515.183 418.402 515.712 418.402 516.341V521.199H416.916V516.52C416.916 515.967 416.771 515.534 416.483 515.223C416.195 514.908 415.799 514.751 415.295 514.751C414.95 514.751 414.644 514.825 414.375 514.974C414.11 515.123 413.9 515.342 413.744 515.631C413.591 515.916 413.515 516.26 413.515 516.665Z" fill="#4D4D4D"/>
<rect x="328" y="534.199" width="16" height="16" rx="2" fill="#F7EDF6"/>
<rect x="352" y="534.199" width="131" height="16" rx="2" fill="#F7EDF6"/>
</svg>
